<svg width="325" height="206" viewBox="0 0 325 206" fill="none" xmlns="http://www.w3.org/2000/svg">
<g opacity="0.4">
<path opacity="0.4" d="M292.331 158.527L291.069 157.825C290.271 157.379 289.777 156.537 289.79 155.62C289.793 155.518 289.793 155.415 289.793 155.312C289.793 155.21 289.79 155.107 289.79 155.005C289.777 154.092 290.268 153.246 291.069 152.8L292.331 152.098C293.328 151.544 293.818 150.384 293.527 149.281C293.524 149.269 293.52 149.256 293.514 149.243C293.219 148.144 292.21 147.384 291.072 147.4L289.627 147.423C288.701 147.439 287.855 146.933 287.406 146.125C287.316 145.965 287.223 145.808 287.134 145.651C286.656 144.856 286.64 143.869 287.118 143.071L287.858 141.84C288.444 140.86 288.291 139.61 287.483 138.803C287.473 138.793 287.461 138.78 287.454 138.774C286.647 137.966 285.397 137.812 284.416 138.399L283.186 139.139C282.388 139.617 281.401 139.601 280.606 139.123C280.449 139.033 280.292 138.94 280.132 138.851C279.324 138.399 278.818 137.553 278.834 136.63L278.856 135.185C278.876 134.047 278.116 133.038 277.014 132.743C277.001 132.74 276.988 132.736 276.975 132.73C275.873 132.438 274.71 132.929 274.158 133.925L273.457 135.188C273.011 135.986 272.168 136.479 271.252 136.466C271.149 136.463 271.047 136.463 270.944 136.463C270.842 136.463 270.739 136.466 270.637 136.466C269.723 136.479 268.877 135.989 268.432 135.188L267.73 133.925C267.176 132.929 266.016 132.438 264.913 132.73C264.9 132.733 264.888 132.736 264.875 132.743C263.776 133.038 263.016 134.047 263.032 135.185L263.055 136.63C263.071 137.556 262.564 138.402 261.757 138.851C261.597 138.94 261.44 139.033 261.283 139.123C260.488 139.601 259.501 139.617 258.703 139.139L257.472 138.399C256.492 137.812 255.242 137.966 254.434 138.774C254.425 138.783 254.412 138.796 254.406 138.803C253.598 139.61 253.444 140.86 254.031 141.84L254.771 143.071C255.248 143.869 255.232 144.856 254.755 145.651C254.665 145.808 254.572 145.965 254.482 146.125C254.031 146.933 253.185 147.439 252.262 147.423L250.816 147.4C249.679 147.381 248.669 148.141 248.375 149.243C248.371 149.256 248.368 149.269 248.362 149.281C248.07 150.384 248.56 151.547 249.557 152.098L250.82 152.8C251.618 153.246 252.111 154.088 252.098 155.005C252.095 155.107 252.095 155.21 252.095 155.312C252.095 155.415 252.098 155.518 252.098 155.62C252.111 156.533 251.621 157.379 250.82 157.825L249.557 158.527C248.56 159.081 248.07 160.241 248.362 161.343C248.365 161.356 248.368 161.369 248.375 161.382C248.669 162.481 249.679 163.241 250.816 163.225L252.262 163.202C253.188 163.186 254.034 163.692 254.482 164.5C254.572 164.66 254.665 164.817 254.755 164.974C255.232 165.769 255.248 166.756 254.771 167.554L254.031 168.784C253.444 169.765 253.598 171.015 254.406 171.822C254.415 171.832 254.428 171.845 254.434 171.851C255.242 172.659 256.492 172.813 257.472 172.226L258.703 171.486C259.501 171.008 260.488 171.024 261.283 171.502C261.44 171.592 261.597 171.685 261.757 171.774C262.564 172.226 263.071 173.072 263.055 173.995L263.032 175.44C263.013 176.578 263.772 177.587 264.875 177.882C264.888 177.885 264.9 177.889 264.913 177.895C266.016 178.187 267.179 177.696 267.73 176.7L268.432 175.437C268.877 174.639 269.72 174.146 270.637 174.158C270.739 174.162 270.842 174.162 270.944 174.162C271.047 174.162 271.149 174.158 271.252 174.158C272.165 174.146 273.011 174.636 273.457 175.437L274.158 176.7C274.713 177.696 275.873 178.187 276.975 177.895C276.988 177.892 277.001 177.889 277.014 177.882C278.113 177.587 278.872 176.578 278.856 175.44L278.834 173.995C278.818 173.069 279.324 172.223 280.132 171.774C280.292 171.685 280.449 171.592 280.606 171.502C281.401 171.024 282.388 171.008 283.186 171.486L284.416 172.226C285.397 172.813 286.647 172.659 287.454 171.851C287.464 171.842 287.477 171.829 287.483 171.822C288.291 171.015 288.444 169.765 287.858 168.784L287.118 167.554C286.64 166.756 286.656 165.769 287.134 164.974C287.223 164.817 287.316 164.66 287.406 164.5C287.858 163.692 288.704 163.186 289.627 163.202L291.072 163.225C292.21 163.244 293.219 162.484 293.514 161.382C293.517 161.369 293.52 161.356 293.527 161.343C293.818 160.241 293.328 159.081 292.331 158.527ZM270.947 169.332C263.205 169.332 256.928 163.058 256.928 155.312C256.928 147.57 263.202 141.293 270.947 141.293C278.69 141.293 284.967 147.567 284.967 155.312C284.967 163.058 278.69 169.332 270.947 169.332Z" fill="#F4D7C9"/>
<path opacity="0.4" d="M270.947 161.76C274.443 161.76 277.276 158.926 277.276 155.431C277.276 151.935 274.443 149.102 270.947 149.102C267.452 149.102 264.618 151.935 264.618 155.431C264.618 158.926 267.452 161.76 270.947 161.76Z" fill="#F4D7C9"/>
</g>
<path d="M204.966 201.177C204.966 201.177 209.378 188.227 223.357 192.938C223.357 192.938 226.888 181.901 236.598 182.27C246.308 182.638 249.4 191.72 249.4 191.72C249.4 191.72 262.446 190.143 264.311 201.177H204.966Z" fill="#ADCCC7"/>
<path d="M234.514 201.108L233.963 201.018C235.219 193.231 230.387 187.626 230.339 187.569L230.759 187.2C230.81 187.258 235.812 193.052 234.514 201.108Z" fill="#6EAB9C"/>
<path d="M234.668 196.34L234.238 195.981C234.283 195.926 238.705 190.639 239.458 187.325L240.003 187.45C239.221 190.892 234.854 196.119 234.668 196.34Z" fill="#6EAB9C"/>
<path d="M234.431 199.134C230.957 198.945 227.881 195.365 227.753 195.215L228.179 194.853C228.208 194.888 231.23 198.4 234.463 198.576L234.431 199.134Z" fill="#6EAB9C"/>
<path d="M245.371 201.388L245.006 200.965C245.256 200.747 251.178 195.661 254.264 195.578L254.28 196.139C251.389 196.216 245.429 201.337 245.371 201.388Z" fill="#6EAB9C"/>
<path d="M256.904 200.4C256.856 200.397 252.142 200.112 248.325 199.125L248.466 198.583C252.232 199.554 256.891 199.839 256.936 199.839L256.904 200.4Z" fill="#6EAB9C"/>
<path d="M221.774 201.095C218.669 198.512 212.109 196.448 212.045 196.426L212.212 195.891C212.484 195.977 218.941 198.009 222.133 200.662L221.774 201.095Z" fill="#6EAB9C"/>
<path d="M219.416 199.067L218.855 199.051C218.932 196.436 217.794 194.382 217.781 194.363L218.268 194.087C218.323 194.177 219.499 196.292 219.416 199.067Z" fill="#6EAB9C"/>
<g opacity="0.4">
<path opacity="0.4" d="M195.02 148.946L194.283 148.536C193.815 148.276 193.53 147.783 193.536 147.251C193.536 147.19 193.539 147.132 193.539 147.071C193.539 147.011 193.539 146.953 193.536 146.892C193.526 146.36 193.815 145.867 194.283 145.607L195.02 145.197C195.603 144.873 195.888 144.197 195.718 143.553C195.715 143.546 195.715 143.537 195.712 143.53C195.539 142.89 194.949 142.444 194.286 142.457L193.443 142.47C192.902 142.479 192.408 142.185 192.145 141.713C192.091 141.621 192.039 141.528 191.985 141.438C191.706 140.973 191.697 140.396 191.975 139.932L192.408 139.214C192.751 138.643 192.661 137.913 192.19 137.442C192.184 137.435 192.177 137.429 192.171 137.423C191.7 136.951 190.969 136.862 190.399 137.205L189.681 137.637C189.216 137.916 188.639 137.906 188.175 137.628C188.082 137.573 187.992 137.522 187.899 137.467C187.428 137.205 187.133 136.711 187.143 136.17L187.156 135.327C187.165 134.663 186.723 134.074 186.082 133.901C186.076 133.898 186.066 133.898 186.06 133.894C185.416 133.724 184.739 134.01 184.416 134.593L184.006 135.33C183.746 135.798 183.253 136.083 182.721 136.077C182.66 136.077 182.602 136.073 182.541 136.073C182.48 136.073 182.423 136.073 182.362 136.077C181.83 136.086 181.336 135.798 181.077 135.33L180.667 134.593C180.343 134.01 179.667 133.724 179.023 133.894C179.016 133.898 179.007 133.898 179 133.901C178.359 134.074 177.914 134.66 177.927 135.327L177.939 136.17C177.949 136.711 177.654 137.205 177.183 137.467C177.09 137.522 176.997 137.573 176.908 137.628C176.443 137.906 175.866 137.916 175.401 137.637L174.684 137.205C174.113 136.862 173.383 136.951 172.912 137.423C172.905 137.429 172.899 137.435 172.892 137.442C172.421 137.913 172.331 138.643 172.674 139.214L173.107 139.932C173.386 140.396 173.376 140.973 173.097 141.438C173.043 141.531 172.992 141.621 172.937 141.713C172.674 142.185 172.181 142.479 171.639 142.47L170.796 142.457C170.133 142.447 169.544 142.89 169.37 143.53C169.367 143.537 169.367 143.546 169.364 143.553C169.194 144.197 169.479 144.873 170.063 145.197L170.8 145.607C171.268 145.867 171.553 146.36 171.546 146.892C171.546 146.953 171.543 147.011 171.543 147.071C171.543 147.132 171.543 147.19 171.546 147.251C171.556 147.783 171.268 148.276 170.8 148.536L170.063 148.946C169.479 149.27 169.194 149.946 169.364 150.59C169.367 150.596 169.367 150.606 169.37 150.612C169.544 151.253 170.13 151.699 170.796 151.686L171.639 151.673C172.181 151.664 172.674 151.958 172.937 152.429C172.992 152.522 173.043 152.615 173.097 152.705C173.376 153.17 173.386 153.747 173.107 154.211L172.674 154.929C172.331 155.499 172.421 156.23 172.892 156.701C172.899 156.708 172.905 156.714 172.912 156.72C173.383 157.191 174.113 157.281 174.684 156.938L175.401 156.506C175.866 156.227 176.443 156.236 176.908 156.515C177.001 156.57 177.09 156.621 177.183 156.676C177.654 156.938 177.949 157.432 177.939 157.973L177.927 158.816C177.917 159.48 178.359 160.069 179 160.242C179.007 160.245 179.016 160.245 179.023 160.249C179.667 160.418 180.343 160.133 180.667 159.55L181.077 158.813C181.336 158.345 181.83 158.06 182.362 158.066C182.423 158.066 182.48 158.069 182.541 158.069C182.602 158.069 182.66 158.069 182.721 158.066C183.253 158.057 183.746 158.345 184.006 158.813L184.416 159.55C184.739 160.133 185.416 160.418 186.06 160.249C186.066 160.245 186.076 160.245 186.082 160.242C186.723 160.069 187.169 159.483 187.156 158.816L187.143 157.973C187.133 157.432 187.428 156.938 187.899 156.676C187.992 156.621 188.085 156.57 188.175 156.515C188.639 156.236 189.216 156.227 189.681 156.506L190.399 156.938C190.969 157.281 191.7 157.191 192.171 156.72C192.177 156.714 192.184 156.708 192.19 156.701C192.661 156.23 192.751 155.499 192.408 154.929L191.975 154.211C191.697 153.747 191.706 153.17 191.985 152.705C192.039 152.612 192.091 152.522 192.145 152.429C192.408 151.958 192.902 151.664 193.443 151.673L194.286 151.686C194.949 151.696 195.539 151.253 195.712 150.612C195.715 150.606 195.715 150.596 195.718 150.59C195.888 149.946 195.603 149.267 195.02 148.946ZM182.538 155.253C178.02 155.253 174.354 151.59 174.354 147.068C174.354 142.547 178.016 138.884 182.538 138.884C187.056 138.884 190.722 142.547 190.722 147.068C190.722 151.59 187.06 155.253 182.538 155.253Z" fill="#F4D7C9"/>
</g>
<path d="M59.6817 111.749H0C0 111.749 4.10504 102.591 13.5777 106.382C13.5777 106.382 17.0515 96.909 25.2615 98.0146C33.4716 99.1201 35.0514 104.837 35.0514 104.837C35.0514 104.837 43.8928 101.328 52.4201 108.436C52.4169 108.433 59.3644 107.644 59.6817 111.749Z" fill="#EDF6F5"/>
<path d="M262.025 32.2122H311.834C311.834 32.2122 307.719 24.3931 297.077 27.2772C297.077 27.2772 294.382 19.0928 284.73 19.0928C275.081 19.0928 271.674 27.2772 271.674 27.2772C271.674 27.2772 262.878 26.8831 262.025 32.2122Z" fill="#EDF6F5"/>
<path d="M263.619 143.559L73.4291 147.068L68.9619 143.559V32.5078H263.619L268.087 36.0168L263.619 143.559Z" fill="#B6D5D0"/>
<path d="M263.619 24.5284L73.4291 28.0406L68.9619 24.5284V10.4893H263.619L268.087 13.9982L263.619 24.5284Z" fill="#B6D5D0"/>
<path d="M268.086 36.0166H73.4287V147.067H268.086V36.0166Z" fill="#DCECEB"/>
<path d="M133.483 47.291H80.6914V74.4657H133.483V47.291Z" fill="#B2E5E0"/>
<path d="M256.652 114.906H201.342V117.114H256.652V114.906Z" fill="white"/>
<path d="M256.652 123.673H201.342V125.881H256.652V123.673Z" fill="white"/>
<path d="M256.652 132.538H201.342V134.746H256.652V132.538Z" fill="white"/>
<path d="M194.686 117.809H194.561C193.568 117.809 192.764 117.005 192.764 116.012C192.764 115.018 193.568 114.214 194.561 114.214H194.686C195.68 114.214 196.484 115.018 196.484 116.012C196.484 117.005 195.68 117.809 194.686 117.809Z" fill="white"/>
<path d="M194.686 126.573H194.561C193.568 126.573 192.764 125.769 192.764 124.775C192.764 123.782 193.568 122.978 194.561 122.978H194.686C195.68 122.978 196.484 123.782 196.484 124.775C196.484 125.769 195.68 126.573 194.686 126.573Z" fill="white"/>
<path d="M194.686 135.467H194.561C193.568 135.467 192.764 134.662 192.764 133.669C192.764 132.675 193.568 131.871 194.561 131.871H194.686C195.68 131.871 196.484 132.675 196.484 133.669C196.484 134.662 195.68 135.467 194.686 135.467Z" fill="white"/>
<path d="M144.43 82.5527H89.1191V84.7607H144.43V82.5527Z" fill="white"/>
<path d="M144.43 91.3164H89.1191V93.5244H144.43V91.3164Z" fill="white"/>
<path d="M82.4677 85.4529H82.3427C81.3493 85.4529 80.5449 84.6486 80.5449 83.6552C80.5449 82.6618 81.3493 81.8574 82.3427 81.8574H82.4677C83.4611 81.8574 84.2654 82.6618 84.2654 83.6552C84.2654 84.6486 83.4611 85.4529 82.4677 85.4529Z" fill="white"/>
<path d="M82.4657 94.2166H82.3407C81.3473 94.2166 80.543 93.4123 80.543 92.4189C80.543 91.4255 81.3473 90.6211 82.3407 90.6211H82.4657C83.4591 90.6211 84.2635 91.4255 84.2635 92.4189C84.2635 93.4123 83.4591 94.2166 82.4657 94.2166Z" fill="white"/>
<path d="M268.086 13.998H73.4287V28.0404H268.086V13.998Z" fill="#C6E0DD"/>
<path d="M101.832 21.0191C101.832 22.1343 100.929 23.0412 99.8102 23.0412C98.6918 23.0412 97.7881 22.1375 97.7881 21.0191C97.7881 19.9008 98.6918 18.9971 99.8102 18.9971C100.929 18.9971 101.832 19.904 101.832 21.0191Z" fill="#67B4D2"/>
<path d="M91.5123 23.0412C92.6291 23.0412 93.5344 22.1359 93.5344 21.0191C93.5344 19.9024 92.6291 18.9971 91.5123 18.9971C90.3955 18.9971 89.4902 19.9024 89.4902 21.0191C89.4902 22.1359 90.3955 23.0412 91.5123 23.0412Z" fill="#EB908B"/>
<path d="M83.2154 23.0412C84.3322 23.0412 85.2375 22.1359 85.2375 21.0191C85.2375 19.9024 84.3322 18.9971 83.2154 18.9971C82.0987 18.9971 81.1934 19.9024 81.1934 21.0191C81.1934 22.1359 82.0987 23.0412 83.2154 23.0412Z" fill="#FFAA3F"/>
<path d="M273.156 102.617H186.972C185.12 102.617 183.617 101.114 183.617 99.262V50.777C183.617 48.9248 185.12 47.4219 186.972 47.4219H273.156C275.008 47.4219 276.511 48.9248 276.511 50.777V99.262C276.511 101.117 275.008 102.617 273.156 102.617Z" fill="#B2E5E0"/>
<path d="M276.02 105.235H189.837C187.984 105.235 186.481 103.732 186.481 101.88V53.3952C186.481 51.543 187.984 50.04 189.837 50.04H276.02C277.872 50.04 279.375 51.543 279.375 53.3952V101.88C279.372 103.732 277.872 105.235 276.02 105.235Z" fill="#3FB8A9"/>
<path d="M224.703 58.0088H222.13V97.5082H224.703V58.0088Z" fill="white"/>
<path d="M219.016 58.0088H216.442V97.5082H219.016V58.0088Z" fill="white"/>
<path d="M213.331 58.0088H210.758V97.5082H213.331V58.0088Z" fill="white"/>
<path d="M207.646 58.0088H205.073V97.5082H207.646V58.0088Z" fill="white"/>
<path d="M201.958 58.0088H199.385V97.5082H201.958V58.0088Z" fill="white"/>
<path d="M196.272 58.0078H193.699V97.5072H196.272V58.0078Z" fill="white"/>
<path d="M224.704 85.1396H222.131V97.5124H224.704V85.1396Z" fill="#C6E0DD"/>
<path d="M219.017 71.8369H216.443V97.5086H219.017V71.8369Z" fill="#C6E0DD"/>
<path d="M213.333 65.1875H210.76V97.5087H213.333V65.1875Z" fill="#C6E0DD"/>
<path d="M207.646 75.0234H205.073V97.5098H207.646V75.0234Z" fill="#C6E0DD"/>
<path d="M201.959 81.4238H199.386V97.5075H201.959V81.4238Z" fill="#C6E0DD"/>
<path d="M196.273 86.4814H193.7V97.5083H196.273V86.4814Z" fill="#C6E0DD"/>
<path d="M244.694 64.1323C245.322 61.4694 243.673 58.8011 241.011 58.1723C238.348 57.5436 235.679 59.1925 235.051 61.8553C234.422 64.5181 236.071 67.1865 238.734 67.8152C241.396 68.444 244.065 66.7951 244.694 64.1323Z" fill="white"/>
<path d="M271.688 58.1309H249.686V59.5537H271.688V58.1309Z" fill="white"/>
<path d="M271.688 62.3359H249.686V63.7588H271.688V62.3359Z" fill="white"/>
<path d="M261.863 66.498H249.686V67.9209H261.863V66.498Z" fill="white"/>
<path d="M244.693 82.187C245.321 79.5241 243.672 76.8558 241.01 76.227C238.347 75.5982 235.678 77.2472 235.05 79.91C234.421 82.5728 236.07 85.2412 238.733 85.8699C241.395 86.4987 244.064 84.8498 244.693 82.187Z" fill="white"/>
<path d="M271.688 76.1855H249.686V77.6084H271.688V76.1855Z" fill="white"/>
<path d="M271.688 80.3857H249.686V81.8085H271.688V80.3857Z" fill="white"/>
<path d="M261.863 84.5488H249.686V85.9717H261.863V84.5488Z" fill="white"/>
<path d="M324.341 200.783H0V205.288H324.341V200.783Z" fill="#AECBC7"/>
<path d="M270.376 72.9807L268.536 68.6097C268.536 68.6097 265.133 65.0206 267.065 62.1237C268.998 59.2236 277.189 58.5346 278.983 69.116C278.983 69.116 281.88 69.209 282.386 72.013C282.893 74.8201 280.361 76.6596 279.579 78.7297C278.797 80.7999 277.048 81.5369 277.048 81.5369L273.782 82.0432L270.376 72.9807Z" fill="#0C1B3C"/>
<path d="M290.204 131.823C290.204 131.823 288.272 134.906 287.81 136.563C287.349 138.22 286.936 138.726 287.304 139.046C287.673 139.37 288.592 137.713 289.236 136.883C289.881 136.053 289.973 139.091 289.973 140.197C289.973 141.302 289.442 143.28 290.041 143.324C290.64 143.369 292.181 140.793 292.733 139.735C293.284 138.678 293.037 131.823 293.037 131.823H290.204V131.823Z" fill="#E9928B"/>
<path d="M285.213 193.497L283.831 194.532C283.831 194.532 282.796 198.535 283.28 200.086H299.636C299.636 200.086 298.05 197.807 294.804 196.791C291.561 195.772 290.593 195.429 290.112 194.532C289.628 193.635 285.213 193.497 285.213 193.497Z" fill="#FFAB40"/>
<path d="M259.196 192.946L260.369 194.533C260.369 194.533 261.817 198.051 261.195 200.086H247.531C247.531 200.086 247.74 197.808 250.015 196.792C252.293 195.773 254.293 194.533 254.293 194.533L259.196 192.946Z" fill="#FFAB40"/>
<path d="M299.636 200.089H283.28V201.71H299.636V200.089Z" fill="white"/>
<path d="M261.197 200.089H247.533V201.71H261.197V200.089Z" fill="white"/>
<path d="M290.113 194.533H283.832L283.396 191.601L282.938 188.528L289.629 187.563L289.911 191.601L290.113 194.533Z" fill="#E9928B"/>
<path d="M261.197 188.668L260.783 191.6L260.367 194.532H254.294L254.675 191.6L255.053 188.668H261.197Z" fill="#E9928B"/>
<path d="M255.055 188.668H261.198L260.785 191.6H254.677L255.055 188.668Z" fill="#DE6667"/>
<path d="M289.911 191.601H283.396L282.938 188.528L289.629 187.563L289.911 191.601Z" fill="#DE6667"/>
<path d="M291.633 190.117H281.833C281.833 190.117 274.242 163.064 273.415 159.196C272.588 155.335 269.733 146.82 269.733 146.82L262.372 190.114H253.729C253.729 190.114 253.367 169.271 253.729 162.369C254.018 156.857 255.485 139.283 256.979 130.531C257.357 128.323 257.735 126.679 258.094 125.93C259.888 122.203 281.833 130.208 281.833 130.208C281.833 130.208 281.984 131.057 282.243 132.531C283.083 137.28 285.07 148.493 286.896 158.504C289.284 171.62 291.633 190.117 291.633 190.117Z" fill="#5F6386"/>
<path d="M269.732 146.823L266.441 135.184C266.441 135.184 263.06 141.625 264.024 146.823C264.992 152.02 261.067 153.933 263.851 159.474C266.636 165.018 262.627 169.248 265.329 172.712L269.732 146.823Z" fill="#4A4E73"/>
<path d="M282.242 132.537C279.649 133.095 276.461 133.095 272.596 132.021C263.828 129.589 259.194 129.948 256.974 130.534C257.352 128.326 257.73 126.682 258.089 125.933C259.883 122.206 281.828 130.211 281.828 130.211C281.828 130.211 281.982 131.063 282.242 132.537Z" fill="#4A4E73"/>
<path d="M248.223 78.7289C248.223 78.7289 247.671 75.8672 248.912 74.3899C250.152 72.9126 253.11 75.2103 253.11 75.2103C253.11 75.2103 255.026 77.2708 254.039 79.2064C253.052 81.1451 248.223 78.7289 248.223 78.7289Z" fill="#E9928B"/>
<path d="M286.001 102.52C284.799 109.487 282.828 117.242 283.075 120.69C283.533 127.131 283.812 129.525 284.181 130.72C284.546 131.919 278.752 132.928 272.494 130.72C269.478 129.653 265.646 128.996 262.492 128.599C259.099 128.176 256.484 128.054 256.484 128.054C256.484 128.054 258.233 118.758 258.785 113.88C259.339 109.003 258.753 103.392 258.753 103.392C258.753 103.392 258.749 103.395 258.743 103.402C258.474 103.61 251.629 108.843 248.107 105.452C247.598 104.962 247.213 104.28 246.928 103.456C244.617 96.7553 249.033 80.5723 249.033 80.5723L254.279 81.3093C254.279 81.3093 253.542 93.916 254.003 94.009C254.462 94.1019 259.432 89.5931 261.826 87.8434C263.165 86.8628 265.421 86.286 267.799 86.0296C269.664 85.8341 271.603 85.8374 273.234 86.0008C273.234 86.0008 275.653 86.0553 278.563 86.6801C280.883 87.1737 283.511 88.0293 285.472 89.4969C287.517 91.0351 287.049 96.4797 286.001 102.52Z" fill="#7DC4BE"/>
<g opacity="0.65">
<path opacity="0.65" d="M284.177 130.721C284.542 131.919 278.748 132.929 272.49 130.721C269.474 129.654 265.642 128.997 262.488 128.599C263.645 127.157 265.622 125.696 269.731 124.482C279.806 121.498 270.189 116.371 275.97 113.013C281.751 109.657 282.241 99.3867 282.241 99.3867L285.997 102.518C284.795 109.484 282.824 117.239 283.071 120.687C283.533 127.132 283.808 129.522 284.177 130.721Z" fill="#379690"/>
</g>
<path d="M278.557 86.6799C276.006 91.4515 268.78 95.6238 268.78 95.6238C267.533 92.0187 267.671 87.731 267.793 86.0261C269.658 85.8307 271.597 85.8339 273.228 85.9973C273.228 86.0005 275.647 86.055 278.557 86.6799Z" fill="white"/>
<path d="M281.971 89.1294C283.23 87.729 285.835 88.9468 289.056 93.6382C292.277 98.3297 295.036 108.728 295.59 112.318C296.141 115.907 295.314 128.238 293.565 133.573L288.864 133.205C288.864 133.205 287.675 115.538 287.492 114.343C287.309 113.148 283.534 103.668 281.971 98.5156C280.407 93.3626 280.314 90.9688 281.971 89.1294Z" fill="#7DC4BE"/>
<path d="M277.044 86.6905C277.044 87.3827 276.032 88.5748 273.548 89.0363C271.065 89.4945 268.027 87.7032 268.947 86.5047C269.289 86.0561 269.501 85.1652 269.626 84.223C269.837 82.6496 269.821 80.9384 269.821 80.9384C269.821 80.9384 275.202 75.9232 275.157 78.4997C275.109 81.0762 277.041 81.5376 277.041 81.5376C276.404 84.3897 277.044 86.0016 277.044 86.6905Z" fill="#E9928B"/>
<path d="M275.16 78.4985C273.725 82.1164 271.469 83.6161 269.626 84.2218C269.837 82.6484 269.821 80.9371 269.821 80.9371C269.821 80.9371 275.205 75.9252 275.16 78.4985Z" fill="#DE6667"/>
<path d="M254.272 81.3064C254.272 81.3064 254.09 77.4289 252.952 76.1118C251.811 74.7948 250.856 75.0351 251.052 76.1118C251.251 77.1886 252.119 79.0793 251.276 80.8706L254.272 81.3064Z" fill="#E9928B"/>
<path d="M252.931 186.672V190.482H262.58L263.454 186.672H252.931Z" fill="#4A4E73"/>
<path d="M281.39 190.482H292.301L291.984 186.672H280.236L281.39 190.482Z" fill="#4A4E73"/>
<path d="M288.503 196.565L288.237 196.475C288.25 196.437 288.561 195.565 290.42 194.883L290.516 195.146C288.805 195.774 288.506 196.556 288.503 196.565Z" fill="white"/>
<path d="M290.606 197.616L290.337 197.545C290.353 197.488 290.725 196.135 292.266 195.709L292.34 195.978C290.955 196.36 290.619 197.564 290.606 197.616Z" fill="white"/>
<path d="M293.166 197.593L292.888 197.567C292.891 197.535 292.965 196.75 293.474 196.218L293.676 196.41C293.237 196.871 293.166 197.586 293.166 197.593Z" fill="white"/>
<path d="M256.411 195.613C255.007 195.071 253.581 195.106 253.568 195.106L253.559 194.828C253.623 194.824 255.055 194.789 256.51 195.353L256.411 195.613Z" fill="white"/>
<path d="M254.798 196.645C253.283 195.975 252.139 195.898 252.129 195.895L252.145 195.616C252.193 195.619 253.343 195.696 254.91 196.389L254.798 196.645Z" fill="white"/>
<path d="M252.359 197.147C251.93 196.76 250.767 196.58 250.754 196.58L250.796 196.305C250.847 196.311 252.052 196.5 252.545 196.942L252.359 197.147Z" fill="white"/>
<g opacity="0.65">
<path opacity="0.65" d="M260.035 96.1846C259.064 98.7034 258.747 103.392 258.747 103.392C258.747 103.392 258.743 103.395 258.737 103.401C258.468 103.61 251.623 108.843 248.101 105.452C247.592 104.962 247.207 104.279 246.922 103.456C248.87 103.725 250.537 105.776 252.844 103.395C256.427 99.6904 260.035 96.1846 260.035 96.1846Z" fill="#379690"/>
</g>
<path d="M268.536 68.6094C268.536 68.6094 264.716 79.0979 267.617 81.2161C270.517 83.3311 275.163 78.5018 275.163 78.5018C275.163 78.5018 277.14 78.5948 278.201 76.9829C279.259 75.3742 277.419 74.666 276.592 75.1819C275.766 75.6947 274.798 74.9127 275.442 72.9355C276.086 70.9583 275.718 70.8654 274.474 71.141C273.228 71.4134 268.674 69.1606 268.536 68.6094Z" fill="#E9928B"/>
<path d="M289.699 186.726C285.636 156.373 278.903 133.245 278.836 133.014L279.64 132.777C279.708 133.008 286.46 156.199 290.529 186.614L289.699 186.726Z" fill="#4A4E73"/>
<path d="M81.0289 70.2191C81.0289 70.2191 79.7246 65.8673 79.7246 64.4734C79.7246 63.0794 81 59.1634 81.7114 59.0769C82.4229 58.9904 83.8136 66.6493 84.4257 67.6939C85.0346 68.7386 83.9033 70.2191 83.9033 70.2191H81.0289Z" fill="#91415C"/>
<path d="M16.0356 166.684L11.4082 161.585L13.1835 159.765L16.7758 156.083L21.2077 160.964L17.7468 164.79L16.0356 166.684Z" fill="#91415C"/>
<path d="M17.7469 164.79L13.1836 159.765L16.7759 156.083L21.2078 160.964L17.7469 164.79Z" fill="#75354A"/>
<path d="M11.4078 161.585L16.0352 166.68C16.0352 166.68 15.782 171.086 17.756 173.785C19.7332 176.483 20.262 178.367 19.3583 180.367L5.59473 165.206L11.4078 161.585Z" fill="#FDAB3F"/>
<path d="M15.9895 168.508C14.9191 167.732 12.4036 167.033 12.3779 167.027L12.4516 166.758C12.5574 166.787 15.0409 167.476 16.1529 168.28L15.9895 168.508Z" fill="white"/>
<path d="M16.1948 169.981C14.9226 169.446 12.939 169.661 12.9197 169.664L12.8877 169.385C12.971 169.375 14.9674 169.161 16.3037 169.725L16.1948 169.981Z" fill="white"/>
<path d="M14.0664 172.01L13.9639 171.75C14.0183 171.728 15.3194 171.225 16.5692 171.145L16.5852 171.423C15.3835 171.5 14.0792 172.007 14.0664 172.01Z" fill="white"/>
<path d="M5.6058 165.198L4.50488 166.197L18.2696 181.359L19.3705 180.359L5.6058 165.198Z" fill="#DCECEB"/>
<path d="M51.1716 121.316C51.1716 121.316 51.0851 121.793 50.9248 122.611C50.5884 124.347 49.9218 127.626 49.0662 131.138C47.9606 135.653 46.5378 140.556 45.0765 143.078C43.3845 145.994 36.421 152.147 30.3772 157.188C25.2371 161.472 20.7636 164.952 20.7636 164.952L11.4062 155.352C11.4062 155.352 30.7682 137.9 31.2905 137.204C31.8129 136.506 34.1105 126.366 34.9822 118.358C35.3603 114.891 36.421 111.196 37.5042 108.12C38.9206 104.091 40.3754 101.124 40.3754 101.124L49.4283 104.431L49.518 105.28L50.3961 113.792L51.1716 121.316Z" fill="#489DA2"/>
<path d="M50.9265 122.61C50.59 124.347 49.9235 127.625 49.0679 131.137C47.9623 135.653 46.5395 140.556 45.0782 143.077C43.3862 145.994 36.4227 152.146 30.3789 157.187C31.8274 149.307 41.1494 150.015 39.7683 144.254C38.3326 138.248 44.3379 135.896 41.9441 128.064C39.5503 120.229 43.4246 115.009 43.4246 115.009C43.4246 115.009 46.9368 118.515 50.9265 122.61Z" fill="#408C91"/>
<path d="M69.9836 60.0353C69.9836 60.0353 68.4006 61.253 67.2694 63.7814C66.8271 64.7684 66.4554 65.9541 66.2727 67.3449C65.619 72.3056 57.002 66.9539 57.002 66.9539L61.1807 58.2055L64.6032 56.3789L67.2694 58.1927L69.9836 60.0353Z" fill="#91415C"/>
<path d="M57.0049 65.7139C57.0049 65.7139 57.6875 63.5861 58.652 63.506C59.6166 63.4291 66.6666 64.4577 66.9935 66.0953C67.3203 67.736 66.9935 68.7807 66.9935 68.7807L57.0049 65.7139Z" fill="#F5911F"/>
<path d="M83.7276 73.2663L84.423 70.0457C84.423 70.0457 81.2024 69.2093 79.9847 69.3663C78.767 69.5233 77.6357 73.2663 77.6357 73.2663H83.7276Z" fill="#F5911F"/>
<path d="M65.623 90.0646C65.623 90.0646 70.1351 91.276 79.6718 82.7102C89.2086 74.1444 71.7598 77.5284 71.7598 77.5284L65.623 90.0646Z" fill="#F5911F"/>
<path d="M82.0771 169.057H53.0117V169.896H82.0771V169.057Z" fill="#040707"/>
<path d="M64.305 200.887L55.4572 160.205L46.6094 200.887L45.7891 200.708L55.047 158.142C55.0887 157.949 55.2585 157.812 55.4572 157.812C55.6559 157.812 55.8257 157.949 55.8674 158.142L65.1254 200.708L64.305 200.887Z" fill="#040707"/>
<path d="M64.5268 176.815H57.6434L57.4896 174.277L57.1787 169.144H63.7673L64.2768 174.277L64.5268 176.815Z" fill="#91415C"/>
<path d="M64.2768 174.277H57.4896L57.1787 169.144H63.7673L64.2768 174.277Z" fill="#75354A"/>
<path d="M57.6431 176.815H64.5265C64.5265 176.815 67.6189 179.966 70.9452 180.315C74.2715 180.664 76.0212 181.539 76.8961 183.551H56.4189L57.6431 176.815Z" fill="#FDAB3F"/>
<path d="M62.3254 179.754L62.1748 179.517C62.2677 179.459 64.4468 178.082 65.7896 177.803L65.8472 178.075C64.559 178.348 62.3479 179.741 62.3254 179.754Z" fill="white"/>
<path d="M64.6426 181.125L64.415 180.962C64.4631 180.895 65.6456 179.273 66.9627 178.661L67.0812 178.914C65.8283 179.494 64.6522 181.109 64.6426 181.125Z" fill="white"/>
<path d="M67.1505 181.853L66.8877 181.754C66.9101 181.699 67.41 180.395 68.1887 179.421L68.4067 179.597C67.6568 180.533 67.1537 181.84 67.1505 181.853Z" fill="white"/>
<path d="M76.8961 183.554H56.4189V185.041H76.8961V183.554Z" fill="#DCECEB"/>
<path d="M93.455 200.887L84.604 160.205L75.753 200.887L74.9326 200.708L84.1906 158.142C84.2322 157.949 84.4021 157.812 84.6008 157.812C84.7994 157.812 84.9693 157.949 85.011 158.142L94.2689 200.708L93.455 200.887Z" fill="#040707"/>
<path d="M78.7704 184.621H49.625V185.461H78.7704V184.621Z" fill="#040707"/>
<path d="M68.6572 173.182H54.5572C54.5572 173.182 54.8328 149.689 54.8328 145.51C54.8328 142.54 52.016 137.634 49.071 131.135C47.8757 128.494 46.6612 125.591 45.6037 122.444C44.1296 118.051 43.2483 114.269 42.7228 111.318C41.9473 106.963 41.9473 104.425 41.9473 104.425L49.5228 105.274L60.5754 106.514C60.5754 106.514 61.7867 110.795 63.2896 116.323C65.6866 125.152 68.8239 137.156 68.9296 139.941C69.1027 144.469 68.6572 173.182 68.6572 173.182Z" fill="#489DA2"/>
<path d="M63.288 116.327C60.2309 115.038 57.084 113.805 53.9564 113.962C52.745 114.023 51.5497 113.955 50.3929 113.789C47.5473 113.388 44.9131 112.408 42.7148 111.321C40.4139 110.187 38.5905 108.934 37.501 108.117C38.9174 104.089 40.3723 101.121 40.3723 101.121L49.4251 104.428L49.5149 105.277L60.5674 106.518C60.5738 106.518 61.7851 110.799 63.288 116.327Z" fill="#408C91"/>
<path d="M107.144 72.4399C107.144 72.4399 95.3931 83.9314 91.9994 84.7134C88.6058 85.4953 76.0696 81.4479 73.9802 81.5793C73.0349 81.6402 71.0416 88.28 69.1509 95.5351C66.8597 104.303 64.7094 113.961 64.7094 113.961C64.7094 113.961 58.8355 111.612 49.3019 110.959C47.8983 110.863 46.6293 110.654 45.4853 110.366C38.8454 108.703 36.3779 104.431 36.3779 104.431C45.7801 90.9815 45.9083 79.2304 47.8695 71.9208C49.8275 64.608 57.6626 64.0856 63.5366 65.9154C66.1387 66.7262 71.7627 67.742 74.3744 68.6585C76.9861 69.5718 90.4356 74.7953 91.3489 74.7953C92.2622 74.7953 103.36 68.5271 103.36 68.5271C106.881 68.5207 107.144 72.4399 107.144 72.4399Z" fill="#FFAB40"/>
<path d="M103.574 69.3438C103.574 69.3438 105.837 67.3441 107.753 66.5622C109.669 65.7803 112.278 64.1716 112.278 65.0176C112.278 65.8636 109.929 67.0621 109.929 67.0621L117.088 66.4116C117.088 66.4116 113.931 69.6097 111.409 70.2186C108.884 70.8275 105.664 71.9587 105.664 71.9587L103.574 69.3438Z" fill="#91415C"/>
<path d="M124.291 40.6484L81.1846 44.2432L83.2678 69.2247L126.375 65.6299L124.291 40.6484Z" fill="#3FB8A9"/>
<path d="M121.908 43.4682L84.0059 46.6289L85.655 66.4053L123.557 63.2446L121.908 43.4682Z" fill="white"/>
<path d="M89.6846 66.3595L97.0583 50.7148L106.919 64.9206L89.6846 66.3595Z" fill="#3FB8A9"/>
<path d="M106.137 65.0184L111.838 52.918L119.464 63.9064L106.137 65.0184Z" fill="#3FB8A9"/>
<path d="M104.755 52.3799C106.174 52.31 107.269 51.1026 107.199 49.6832C107.129 48.2637 105.921 47.1697 104.502 47.2396C103.082 47.3095 101.988 48.5169 102.058 49.9364C102.128 51.3559 103.336 52.4499 104.755 52.3799Z" fill="#3FB8A9"/>
<path d="M65.1353 173.287H64.2957C64.2957 173.034 64.3277 148.061 64.1835 142.043C64.0393 136.101 53.6758 111.997 53.5732 111.753L54.3423 111.42C54.7718 112.417 64.8757 135.916 65.0231 142.02C65.1705 148.051 65.1353 173.034 65.1353 173.287Z" fill="#408C91"/>
<path d="M69.151 95.5312C66.8598 104.299 64.7095 113.957 64.7095 113.957C64.7095 113.957 58.8355 111.609 49.302 110.955C47.8984 110.859 46.6294 110.65 45.4854 110.362C45.7033 110.118 45.9404 109.881 46.2 109.651C54.064 102.601 57.0057 107.302 60.8544 102.21C63.7289 98.4025 66.5201 98.191 69.151 95.5312Z" fill="#F5911F"/>
<path d="M73.454 48.0209L74.8896 46.518C74.8896 46.518 75.021 43.8422 72.3227 40.3588C69.6245 36.8755 68.0575 38.1829 69.2752 40.3588C70.4929 42.5347 66.8366 41.4035 63.5743 40.9677C60.3121 40.5319 57.6138 40.9933 59.2225 43.1147C60.8344 45.2329 59.4404 45.3195 55.4347 46.9762C51.4291 48.633 52.0411 51.0684 55.4347 51.328C58.8284 51.5876 56.5691 53.5904 53.9574 56.3752C51.3425 59.1599 53.3454 60.727 56.2199 59.1599C59.0911 57.5929 59.7032 59.333 58.745 61.7717C57.7869 64.2103 61.1837 62.121 62.7475 60.3777C64.3146 58.6376 63.8787 61.6819 66.2725 57.8525C68.6696 54.0295 73.454 48.0209 73.454 48.0209Z" fill="#0C1B3C"/>
<path d="M69.984 60.0353C69.984 60.0353 68.4009 61.253 67.2697 63.7814C65.363 61.7561 66.459 58.276 66.459 58.276L67.2697 58.1895L69.984 60.0353Z" fill="#75354A"/>
<path d="M74.8931 46.521C74.8931 46.521 74.4573 50.9401 75.2841 53.2025C76.1108 55.4649 76.9376 55.5515 75.9378 56.4231C74.938 57.2947 74.2842 57.1185 74.0663 58.1215C73.8484 59.1213 74.2842 62.5598 71.7591 62.4733C69.2339 62.3868 66.5356 58.7752 66.2761 57.8587C66.2761 57.8587 63.6227 56.9871 63.5778 54.7696C63.533 52.5488 65.7121 51.8085 66.5805 52.8532C67.4521 53.8979 68.4071 52.5488 68.452 50.8952C68.4968 49.2417 69.5415 46.8928 71.3232 47.0209C73.1082 47.1523 73.935 45.3674 74.8931 46.521Z" fill="#91415C"/>
<path d="M179.146 204.57L179.563 203.058C181.831 194.835 177.303 189.015 177.108 188.769L176.451 189.291C176.493 189.345 180.437 194.434 179.047 201.584C177.909 199.34 174.576 194.841 166.033 194.412L165.991 195.251C176.749 195.79 178.733 202.978 178.752 203.048L179.146 204.57Z" fill="#F2BAAB"/>
<path d="M161.783 194.976C161.783 196.076 162.674 196.966 163.773 196.966C164.872 196.966 165.763 196.076 165.763 194.976C165.763 193.877 164.872 192.986 163.773 192.986C162.674 192.986 161.783 193.877 161.783 194.976Z" fill="#F2BAAB"/>
<path d="M184.39 194.976C184.39 196.076 185.281 196.966 186.38 196.966C187.479 196.966 188.37 196.076 188.37 194.976C188.37 193.877 187.479 192.986 186.38 192.986C185.281 192.986 184.39 193.877 184.39 194.976Z" fill="#F2BAAB"/>
<path d="M174.084 187.465C174.084 188.564 174.975 189.455 176.074 189.455C177.173 189.455 178.064 188.564 178.064 187.465C178.064 186.365 177.173 185.475 176.074 185.475C174.975 185.475 174.084 186.365 174.084 187.465Z" fill="#F2BAAB"/>
<path d="M179.566 203.055C180.54 199.338 185.042 196.188 185.087 196.156L184.61 195.467C184.414 195.601 179.809 198.825 178.755 202.844L179.566 203.055Z" fill="#F2BAAB"/>
<path d="M125.499 182.264C129.281 176.685 133.514 172.878 140.157 168.779C146.797 164.68 154.786 165.568 158.224 164.395C161.66 163.219 161.259 167.507 159.788 171.41C158.317 175.313 159.291 194.156 140.099 197.931C120.907 201.709 122.708 186.385 125.499 182.264Z" fill="#F2D6C8"/>
<path d="M136.78 187.583C136.758 187.583 136.735 187.58 136.713 187.574C136.562 187.535 136.473 187.385 136.511 187.234C138.097 180.959 135.649 174.281 135.623 174.214C135.569 174.07 135.643 173.909 135.787 173.855C135.931 173.8 136.091 173.874 136.146 174.018C136.171 174.086 138.681 180.924 137.049 187.372C137.021 187.5 136.905 187.583 136.78 187.583Z" fill="#F5B89B"/>
<path d="M136.649 188.31C136.537 188.31 136.431 188.242 136.389 188.13C136.335 187.986 136.405 187.822 136.55 187.768C142.558 185.435 151.903 187.531 152.3 187.621C152.451 187.656 152.544 187.806 152.512 187.957C152.476 188.108 152.326 188.204 152.175 188.169C152.079 188.146 142.6 186.018 136.755 188.29C136.716 188.303 136.684 188.31 136.649 188.31Z" fill="#F5B89B"/>
<path d="M134.309 193.44C134.277 193.44 134.245 193.434 134.213 193.424C134.068 193.37 133.991 193.209 134.046 193.065C139.961 176.895 157.224 166.974 157.397 166.878C157.532 166.801 157.702 166.849 157.779 166.983C157.856 167.118 157.808 167.288 157.673 167.365C157.5 167.461 140.417 177.286 134.571 193.257C134.53 193.37 134.424 193.44 134.309 193.44Z" fill="#F5B89B"/>
<path d="M143.507 178.874C143.414 178.874 143.324 178.83 143.27 178.743C143.186 178.612 143.228 178.439 143.356 178.358C147.474 175.766 156.034 177.496 156.396 177.57C156.546 177.602 156.646 177.75 156.614 177.9C156.582 178.051 156.434 178.147 156.283 178.118C156.197 178.099 147.583 176.362 143.654 178.833C143.609 178.862 143.558 178.874 143.507 178.874Z" fill="#F5B89B"/>
<path d="M146.813 175.543C146.769 175.543 146.721 175.53 146.676 175.507C146.541 175.43 146.493 175.261 146.57 175.126C147.929 172.707 147.849 168.105 147.849 168.057C147.845 167.903 147.967 167.775 148.121 167.771C148.124 167.771 148.124 167.771 148.127 167.771C148.278 167.771 148.403 167.893 148.406 168.044C148.409 168.239 148.489 172.844 147.057 175.398C147.006 175.491 146.91 175.543 146.813 175.543Z" fill="#F5B89B"/>
<path d="M69.8232 202.433C69.8232 202.433 70.243 191.643 79.0524 186.919C87.8617 182.196 94.133 188.467 94.133 188.467C94.133 188.467 98.8149 175.005 112.008 175.453C125.201 175.902 126.134 186.919 126.134 186.919C126.134 186.919 141.16 182.683 149.53 190.851C158.08 199.193 156.362 202.99 156.362 202.99L69.8232 202.433Z" fill="#ADCCC7"/>
<path d="M92.1314 201.148C92.0769 201.1 86.5298 196.443 80.3418 194.274L80.5277 193.745C86.815 195.95 92.4358 200.673 92.4935 200.721L92.1314 201.148Z" fill="#6EAB9C"/>
<path d="M77.7105 199.517L77.4541 199.02C77.6175 198.937 81.5239 196.982 88.7117 197.979L88.6348 198.533C81.62 197.559 77.7489 199.498 77.7105 199.517Z" fill="#6EAB9C"/>
<path d="M108.381 200.886L107.907 200.588C107.914 200.578 108.596 199.482 109.433 197.438C110.91 193.826 112.845 187.763 112.576 176.852L113.134 176.839C113.403 187.859 111.445 193.996 109.949 197.652C109.093 199.745 108.41 200.841 108.381 200.886Z" fill="#6EAB9C"/>
<path d="M109.243 199.178L108.903 198.733C114.636 194.365 122.6 193.929 122.68 193.926L122.705 194.483C122.628 194.49 114.832 194.916 109.243 199.178Z" fill="#6EAB9C"/>
<path d="M112.117 190.855L111.579 190.705C112.117 188.801 117.847 181.668 118.091 181.363L118.527 181.713C118.469 181.789 112.624 189.061 112.117 190.855Z" fill="#6EAB9C"/>
<path d="M110.265 194.358C108.477 191.593 105.718 184.52 105.603 184.222L106.125 184.021C106.154 184.094 108.977 191.34 110.736 194.057L110.265 194.358Z" fill="#6EAB9C"/>
<path d="M130.044 200.495L130.797 199.957C130.868 199.906 138.017 194.839 145.673 194.483L145.698 195.041C139.706 195.32 134.011 198.563 131.941 199.87L139.369 199.611L139.388 200.168L130.044 200.495Z" fill="#6EAB9C"/>
<path d="M135.923 197.598L135.395 197.416C136.571 193.987 139.051 190.747 139.157 190.612L139.599 190.955C139.573 190.984 137.067 194.259 135.923 197.598Z" fill="#6EAB9C"/>
<path d="M249.775 18.0109C254.712 17.9383 258.656 13.877 258.583 8.93965C258.511 4.00233 254.449 0.0586807 249.512 0.131267C244.575 0.203853 240.631 4.26519 240.704 9.20251C240.776 14.1398 244.838 18.0835 249.775 18.0109Z" fill="#B2E5E0"/>
<path d="M253.22 5.99798C250.903 4.74179 249.628 7.94636 249.628 7.94636C249.628 7.94636 248.333 4.74821 246.026 6.02042C243.421 7.45606 245.754 12.0866 249.65 14.0959C253.534 12.061 255.838 7.41439 253.22 5.99798Z" fill="#B2E5E0"/>
<path d="M251.801 19.4293C256.739 19.4293 260.742 15.4264 260.742 10.4886C260.742 5.55074 256.739 1.54785 251.801 1.54785C246.863 1.54785 242.86 5.55074 242.86 10.4886C242.86 15.4264 246.863 19.4293 251.801 19.4293Z" fill="white"/>
<path d="M255.39 7.39642C253.073 6.14023 251.798 9.34479 251.798 9.34479C251.798 9.34479 250.503 6.14663 248.196 7.41884C245.591 8.85448 247.924 13.4851 251.82 15.4943C255.701 13.4626 258.005 8.81283 255.39 7.39642Z" fill="#EB908B"/>
<path d="M293.019 59.4595C296.888 59.4595 300.024 56.3232 300.024 52.4544C300.024 48.5855 296.888 45.4492 293.019 45.4492C289.15 45.4492 286.014 48.5855 286.014 52.4544C286.014 56.3232 289.15 59.4595 293.019 59.4595Z" fill="#B2E5E0"/>
<path d="M294.906 60.8707C298.774 60.8707 301.911 57.7344 301.911 53.8655C301.911 49.9967 298.774 46.8604 294.906 46.8604C291.037 46.8604 287.9 49.9967 287.9 53.8655C287.9 57.7344 291.037 60.8707 294.906 60.8707Z" fill="#EDF6F5"/>
<path d="M294.908 51.4364L297.308 50.1738L296.85 52.8464L298.789 54.7371L296.107 55.1281L294.908 57.5571L293.71 55.1281L291.027 54.7371L292.966 52.8464L292.508 50.1738L294.908 51.4364Z" fill="#FFAB40"/>
<path d="M80.6914 125.703V103.467C80.6914 103.467 88.4336 105.425 90.5102 112.417C92.5835 119.409 99.7745 122.348 103.508 120.108C107.241 117.871 107.026 111.856 111.974 109.757C116.919 107.658 119.963 112.834 125.77 118.57C131.577 124.303 139.322 125.424 145.404 120.249C151.49 115.074 157.364 113.677 161.962 118.432C166.561 123.188 168.634 123.607 173.89 122.627C179.145 121.649 182.542 125.703 182.542 125.703H80.6914V125.703Z" fill="#B2E5E0"/>
<path d="M182.537 132.581H88.4932V134.632H182.537V132.581Z" fill="white"/>
<path d="M83.3675 131.436C82.169 131.436 81.2012 132.407 81.2012 133.602C81.2012 134.8 82.1722 135.768 83.3675 135.768C84.566 135.768 85.5337 134.797 85.5337 133.602C85.5369 132.407 84.566 131.436 83.3675 131.436Z" fill="white"/>
<g opacity="0.38">
<path opacity="0.38" d="M80.6908 125.703H182.538C182.538 125.703 180.385 113.394 172.501 113.394C164.621 113.394 166.56 124.245 156.395 121.476C146.23 118.707 145.125 102.066 134.201 101.226C123.276 100.387 120.648 115.913 114.98 115.913C109.311 115.913 108.205 109.456 101.014 109.049C93.8231 108.642 94.2397 119.271 88.9842 119.829C83.7319 120.389 80.553 123.745 80.6908 125.703Z" fill="#3FB8A9"/>
</g>
<path d="M169.134 74.4201H146.859C145.516 74.4201 144.43 73.3338 144.43 71.991V49.7162C144.43 48.3735 145.516 47.2871 146.859 47.2871H169.134C170.476 47.2871 171.563 48.3735 171.563 49.7162V71.991C171.563 73.3338 170.473 74.4201 169.134 74.4201Z" fill="#B2E5E0"/>
<path d="M171.928 77.173H149.653C148.31 77.173 147.224 76.0867 147.224 74.744V52.4691C147.224 51.1264 148.31 50.04 149.653 50.04H171.928C173.27 50.04 174.357 51.1264 174.357 52.4691V74.744C174.36 76.0867 173.27 77.173 171.928 77.173Z" fill="white"/>
<path d="M155.539 71.2481L166.451 63.6084L155.539 55.9688V71.2481Z" fill="#67B4D2"/>
</svg>
