<svg width="1470" height="807" viewBox="0 0 1470 807" fill="none" xmlns="http://www.w3.org/2000/svg">
<path d="M521.119 630.408V579.748C521.119 563.955 508.317 551.152 492.524 551.152H456.372V792.094H502.714H521.119H578.3V687.589C578.3 671.796 565.497 658.993 549.704 658.993C533.922 659.004 521.119 646.201 521.119 630.408Z" fill="#B6D5D0"/>
<path d="M831.839 731.837L808.77 754.366L801.009 742.826L788.627 724.41L818.291 710.625L826.387 723.309L831.839 731.837Z" fill="#E9928B"/>
<path d="M826.387 723.309C814.491 729.376 805.359 738.163 801.009 742.826L788.627 724.41L818.291 710.625L826.387 723.309Z" fill="#DE6667"/>
<path d="M899.901 55.9502H410.181V311.303H899.901V55.9502Z" fill="#EDF6F5"/>
<path d="M515.927 78.8867H437.049V151.633H515.927V78.8867Z" fill="#DCECEB"/>
<path d="M851.28 144.748H848.322V140.311H843.886V137.354H851.28V144.748Z" fill="#B6D5D0"/>
<path d="M831.786 140.311H819.685V137.354H831.786V140.311ZM807.595 140.311H795.494V137.354H807.595V140.311ZM783.393 140.311H771.292V137.354H783.393V140.311ZM759.201 140.311H747.1V137.354H759.201V140.311ZM734.999 140.311H722.898V137.354H734.999V140.311ZM710.808 140.311H698.707V137.354H710.808V140.311ZM686.617 140.311H674.516V137.354H686.617V140.311ZM662.414 140.311H650.313V137.354H662.414V140.311ZM638.223 140.311H626.122V137.354H638.223V140.311Z" fill="#B6D5D0"/>
<path d="M609.583 144.748H606.625V137.354H614.02V140.311H609.583V144.748Z" fill="#B6D5D0"/>
<path d="M609.583 265.576H606.625V253.496H609.583V265.576ZM609.583 241.417H606.625V229.326H609.583V241.417ZM609.583 217.247H606.625V205.168H609.583V217.247ZM609.583 193.077H606.625V180.998H609.583V193.077ZM609.583 168.918H606.625V156.839H609.583V168.918Z" fill="#B6D5D0"/>
<path d="M614.02 285.049H606.625V277.665H609.583V282.091H614.02V285.049Z" fill="#B6D5D0"/>
<path d="M831.786 285.049H819.685V282.091H831.786V285.049ZM807.595 285.049H795.494V282.091H807.595V285.049ZM783.393 285.049H771.292V282.091H783.393V285.049ZM759.201 285.049H747.1V282.091H759.201V285.049ZM734.999 285.049H722.898V282.091H734.999V285.049ZM710.808 285.049H698.707V282.091H710.808V285.049ZM686.617 285.049H674.516V282.091H686.617V285.049ZM662.414 285.049H650.313V282.091H662.414V285.049ZM638.223 285.049H626.122V282.091H638.223V285.049Z" fill="#B6D5D0"/>
<path d="M851.28 285.049H843.886V282.091H848.322V277.665H851.28V285.049Z" fill="#B6D5D0"/>
<path d="M851.28 265.576H848.322V253.496H851.28V265.576ZM851.28 241.417H848.322V229.326H851.28V241.417ZM851.28 217.247H848.322V205.168H851.28V217.247ZM851.28 193.077H848.322V180.998H851.28V193.077ZM851.28 168.918H848.322V156.839H851.28V168.918Z" fill="#B6D5D0"/>
<path d="M622.948 325.097H365.026C360.978 325.097 357.696 321.815 357.696 317.767V191.111C357.696 187.063 360.978 183.781 365.026 183.781H622.948C626.996 183.781 630.278 187.063 630.278 191.111V317.778C630.267 321.815 626.996 325.097 622.948 325.097Z" fill="#B2E5E0"/>
<path d="M631.822 333.973H373.9C369.852 333.973 366.57 330.691 366.57 326.643V199.976C366.57 195.928 369.852 192.646 373.9 192.646H631.822C635.87 192.646 639.152 195.928 639.152 199.976V326.643C639.141 330.691 635.87 333.973 631.822 333.973Z" fill="#3FB8A9"/>
<path opacity="0.67" d="M386.032 323.618H617.723C617.723 323.618 610.004 269.558 597.838 253.128C585.683 236.698 575.493 259.367 562.021 286.322C548.549 313.266 520.612 325.432 500.242 298.477C479.861 271.533 470.664 262.983 447.984 277.449C425.304 291.914 407.557 279.748 400.001 261.019C392.444 242.29 386.032 242.614 386.032 242.614V323.618Z" fill="white"/>
<path opacity="0.28" d="M386.032 323.619C386.032 323.619 396.708 324.115 405.258 312.284C413.807 300.453 416.107 282.382 425.304 276.791C434.501 271.199 443.051 276.791 455.864 300.205C468.678 323.619 488.724 312.608 497.273 289.28C505.823 265.953 509.763 254.769 523.894 253.463C538.024 252.146 546.897 269.569 551.831 286.323C556.764 303.087 569.578 308.668 582.391 301.77C595.205 294.872 617.723 323.63 617.723 323.63H386.032V323.619Z" fill="white"/>
<path d="M390.469 213.037C388.018 213.037 386.032 211.05 386.032 208.6C386.032 206.149 388.018 204.163 390.469 204.163C392.919 204.163 394.906 206.149 394.906 208.6C394.906 211.05 392.919 213.037 390.469 213.037Z" fill="white"/>
<path d="M498.925 205.968H405.917V211.225H498.925V205.968Z" fill="white"/>
<path d="M390.469 229.056C388.018 229.056 386.032 227.07 386.032 224.619C386.032 222.169 388.018 220.183 390.469 220.183C392.919 220.183 394.906 222.169 394.906 224.619C394.906 227.07 392.919 229.056 390.469 229.056Z" fill="white"/>
<path d="M477.562 221.985H405.917V227.242H477.562V221.985Z" fill="white"/>
<path d="M525.167 86.3486H446.289V159.095H525.167V86.3486Z" fill="white"/>
<path d="M515.927 118.538L487.245 131.514L458.574 118.538V137.926H515.927V118.538Z" fill="#FFAB40"/>
<path d="M515.927 109.783H458.574V114.965L487.245 127.649L515.927 114.965V109.783Z" fill="#FFAB40"/>
<path d="M763.152 133.015H604.5V125.609H763.152V133.015ZM605.493 132.021H762.17V126.581H605.493V132.021Z" fill="white"/>
<path d="M763.152 102.441H604.5V95.0361H763.152V102.441ZM605.493 101.459H762.17V96.0185H605.493V101.459Z" fill="white"/>
<path d="M763.153 71.8838H604.5V64.4785H763.153V71.8838ZM605.494 70.9014H762.17V65.4608H605.494V70.9014Z" fill="white"/>
<path d="M1008.78 186.232H948.575V230.567H1008.78V186.232Z" fill="#DCECEB"/>
<path d="M968.016 219.351L954.921 209.474C954.598 209.225 954.403 208.848 954.403 208.448C954.403 208.049 954.587 207.66 954.911 207.412L967.919 197.459L969.495 199.51L957.836 208.427L969.57 217.268L968.016 219.351Z" fill="white"/>
<path d="M989.325 219.352L987.77 217.29L999.504 208.449L987.846 199.532L989.422 197.481L1002.43 207.434C1002.75 207.683 1002.94 208.06 1002.94 208.471C1002.94 208.881 1002.74 209.259 1002.42 209.496L989.325 219.352Z" fill="white"/>
<path d="M980.337 196.499L974.544 219.775L977.058 220.401L982.851 197.125L980.337 196.499Z" fill="white"/>
<path d="M909.271 729.894L883.914 753.546L877.588 725.198L875.138 714.231L905.439 706.566L907.188 717.243L909.271 729.894Z" fill="#E9928B"/>
<path d="M907.188 717.241C907.188 717.241 900.657 716.561 894.655 718.029C890.251 719.108 877.578 725.196 877.578 725.196L875.127 714.218L905.429 706.554L907.188 717.241Z" fill="#DE6667"/>
<path d="M902.697 727.304C889.862 727.11 885.263 737.635 880.945 747.415C876.628 757.195 871.403 780.005 863.922 782.315C856.441 784.614 852.415 788.641 852.415 793.25H879.402C879.402 793.25 896.339 774.629 905.05 767.364C913.762 760.099 915.878 755.382 915.878 755.382C915.878 755.382 912.531 737.387 909.271 729.917C909.271 729.895 906.972 727.369 902.697 727.304Z" fill="#0C1B3C"/>
<path d="M904.823 746.066C895.464 748.009 892.02 758.049 886.266 774.738C880.513 791.416 869.103 793.24 869.103 793.24H900.98C900.98 793.24 902.761 787.109 906.55 779.347C909.357 773.593 914.193 767.03 915.413 761.028C918.284 746.93 907.101 745.591 904.823 746.066Z" fill="#408C91"/>
<path d="M907.102 709.092C887.088 711.305 873.044 717.966 873.044 717.966C873.044 717.966 866.232 720.179 856.376 699.442C846.521 678.683 811.858 613.709 811.858 613.709L851.713 614.972L881.842 615.933C881.842 615.933 898.109 657.094 906 674.592C913.892 692.08 907.102 709.092 907.102 709.092Z" fill="#376F92"/>
<path d="M873.053 681.069C860.974 695.534 865.022 712.363 873.053 717.966C873.053 717.966 866.242 720.179 856.386 699.442C846.53 678.683 811.868 613.709 811.868 613.709L851.723 614.972L877.738 626.522C877.738 626.522 852.111 629.804 846.358 643.287C840.604 656.759 885.122 666.615 873.053 681.069Z" fill="#1B5175"/>
<path d="M1469.09 796.489C1469.09 796.489 1469.21 723.796 1389.61 759.15C1389.61 759.15 1372.11 696.572 1326.28 699.529C1280.43 702.487 1275.99 761.708 1275.99 761.708C1275.99 761.708 1213.21 729.798 1179.53 794.514L1469.09 796.489Z" fill="#ADCCC7"/>
<path d="M1335 793.908L1333.05 793.638C1338.35 755.78 1317.96 728.631 1317.75 728.361L1319.32 727.163C1319.52 727.433 1340.41 755.241 1335 793.908Z" fill="#6EAB9C"/>
<path d="M1335.71 770.681L1334.11 769.515C1334.3 769.256 1352.92 743.651 1356.09 727.556L1358.03 727.933C1354.78 744.471 1336.49 769.623 1335.71 770.681Z" fill="#6EAB9C"/>
<path d="M1334.83 784.099C1320.29 783.192 1307.43 765.985 1306.89 765.251L1308.48 764.085C1308.61 764.258 1321.33 781.281 1334.95 782.134L1334.83 784.099Z" fill="#6EAB9C"/>
<path d="M1381.46 793.652L1384.11 791.752C1384.35 791.569 1409.56 773.714 1436.54 772.451L1436.63 774.416C1415.51 775.398 1395.44 786.83 1388.14 791.439L1414.32 790.532L1414.39 792.497L1381.46 793.652Z" fill="#6EAB9C"/>
<path d="M1402.19 783.428L1400.32 782.791C1404.46 770.711 1413.21 759.29 1413.57 758.805L1415.14 760.003C1415.05 760.122 1406.22 771.661 1402.19 783.428Z" fill="#6EAB9C"/>
<path d="M1275.54 793.305C1275.35 793.143 1255.8 776.724 1233.99 769.071L1234.64 767.214C1256.8 774.986 1276.61 791.632 1276.82 791.794L1275.54 793.305Z" fill="#6EAB9C"/>
<path d="M1224.71 787.554L1223.81 785.794C1224.38 785.503 1238.16 778.605 1263.49 782.135L1263.22 784.089C1238.55 780.667 1224.84 787.489 1224.71 787.554Z" fill="#6EAB9C"/>
<g opacity="0.4">
<path opacity="0.4" d="M764.792 636.855L760.344 634.383C757.527 632.818 755.789 629.838 755.843 626.621C755.854 626.254 755.865 625.898 755.865 625.531C755.865 625.164 755.854 624.808 755.843 624.441C755.789 621.224 757.527 618.245 760.344 616.679L764.792 614.207C768.311 612.253 770.038 608.162 769.013 604.276C768.991 604.233 768.991 604.19 768.97 604.146C767.933 600.271 764.371 597.594 760.366 597.659L755.271 597.745C752.011 597.799 749.031 596.018 747.434 593.179C747.11 592.618 746.786 592.056 746.473 591.506C744.789 588.71 744.735 585.223 746.419 582.416L749.031 578.077C751.104 574.622 750.553 570.207 747.714 567.368C747.682 567.336 747.639 567.293 747.606 567.26C744.767 564.421 740.352 563.871 736.898 565.943L732.558 568.556C729.752 570.24 726.265 570.175 723.469 568.502C722.919 568.178 722.357 567.854 721.796 567.541C718.957 565.954 717.165 562.975 717.23 559.704L717.316 554.609C717.381 550.593 714.704 547.042 710.828 546.005C710.785 545.984 710.742 545.984 710.699 545.962C706.813 544.937 702.721 546.664 700.767 550.183L698.295 554.63C696.73 557.448 693.751 559.186 690.534 559.132C690.167 559.121 689.811 559.11 689.444 559.11C689.077 559.11 688.72 559.121 688.353 559.132C685.137 559.186 682.157 557.448 680.592 554.63L678.12 550.183C676.166 546.664 672.075 544.937 668.189 545.962C668.145 545.984 668.102 545.984 668.059 546.005C664.184 547.042 661.507 550.604 661.571 554.609L661.658 559.704C661.712 562.964 659.93 565.943 657.091 567.541C656.53 567.865 655.969 568.189 655.418 568.502C652.622 570.186 649.136 570.24 646.329 568.556L641.989 565.943C638.535 563.882 634.12 564.421 631.281 567.26C631.248 567.293 631.205 567.336 631.173 567.368C628.334 570.207 627.783 574.622 629.856 578.077L632.468 582.416C634.152 585.223 634.088 588.71 632.414 591.506C632.09 592.056 631.767 592.618 631.454 593.179C629.867 596.018 626.887 597.81 623.617 597.745L618.521 597.659C614.506 597.594 610.954 600.271 609.918 604.146C609.896 604.19 609.896 604.233 609.875 604.276C608.849 608.162 610.576 612.253 614.095 614.207L618.543 616.679C621.36 618.245 623.098 621.224 623.044 624.441C623.034 624.808 623.023 625.164 623.023 625.531C623.023 625.898 623.034 626.254 623.044 626.621C623.098 629.838 621.36 632.818 618.543 634.383L614.095 636.855C610.576 638.809 608.849 642.9 609.875 646.786C609.896 646.829 609.896 646.873 609.918 646.916C610.954 650.791 614.516 653.468 618.521 653.403L623.617 653.317C626.877 653.263 629.856 655.044 631.454 657.883C631.777 658.445 632.101 659.006 632.414 659.557C634.098 662.352 634.152 665.839 632.468 668.646L629.856 672.985C627.794 676.44 628.334 680.855 631.173 683.694C631.205 683.726 631.248 683.769 631.281 683.802C634.12 686.641 638.535 687.191 641.989 685.119L646.329 682.507C649.136 680.823 652.622 680.887 655.418 682.56C655.969 682.884 656.53 683.208 657.091 683.521C659.93 685.108 661.722 688.087 661.658 691.358L661.571 696.453C661.507 700.469 664.184 704.021 668.059 705.057C668.102 705.078 668.145 705.079 668.189 705.1C672.075 706.126 676.166 704.398 678.12 700.879L680.592 696.432C682.157 693.614 685.137 691.876 688.353 691.93C688.72 691.941 689.077 691.952 689.444 691.952C689.811 691.952 690.167 691.941 690.534 691.93C693.751 691.876 696.73 693.614 698.295 696.432L700.767 700.879C702.721 704.398 706.813 706.126 710.699 705.1C710.742 705.079 710.785 705.078 710.828 705.057C714.704 704.021 717.381 700.458 717.316 696.453L717.23 691.358C717.176 688.098 718.957 685.119 721.796 683.521C722.357 683.197 722.919 682.873 723.469 682.56C726.265 680.876 729.752 680.823 732.558 682.507L736.898 685.119C740.352 687.181 744.767 686.641 747.606 683.802C747.639 683.769 747.682 683.726 747.714 683.694C750.553 680.855 751.104 676.44 749.031 672.985L746.419 668.646C744.735 665.839 744.8 662.352 746.473 659.557C746.797 659.006 747.121 658.445 747.434 657.883C749.021 655.044 752 653.252 755.271 653.317L760.366 653.403C764.382 653.468 767.933 650.791 768.97 646.916C768.991 646.873 768.991 646.829 769.013 646.786C770.038 642.9 768.311 638.798 764.792 636.855ZM689.422 674.939C662.133 674.939 640.003 652.821 640.003 625.52C640.003 598.231 662.122 576.101 689.422 576.101C716.712 576.101 738.841 598.22 738.841 625.52C738.83 652.821 716.712 674.939 689.422 674.939Z" fill="#F4D7C9"/>
<path opacity="0.4" d="M710.992 631.758C714.246 619.878 707.254 607.61 695.374 604.356C683.494 601.101 671.225 608.094 667.971 619.974C664.717 631.854 671.709 644.122 683.589 647.377C695.469 650.631 707.738 643.638 710.992 631.758Z" fill="#F4D7C9"/>
</g>
<g opacity="0.4">
<path opacity="0.4" d="M1057.68 736.114L1055.09 734.667C1053.45 733.75 1052.43 732.012 1052.45 730.134C1052.45 729.918 1052.46 729.713 1052.46 729.497C1052.46 729.281 1052.46 729.076 1052.45 728.86C1052.42 726.982 1053.44 725.244 1055.09 724.326L1057.68 722.879C1059.73 721.735 1060.74 719.35 1060.14 717.083C1060.13 717.061 1060.13 717.029 1060.12 717.007C1059.51 714.74 1057.44 713.175 1055.1 713.218L1052.12 713.261C1050.22 713.294 1048.47 712.246 1047.54 710.595C1047.36 710.271 1047.16 709.936 1046.98 709.623C1046 707.993 1045.97 705.953 1046.95 704.312L1048.47 701.776C1049.68 699.757 1049.36 697.188 1047.7 695.525C1047.68 695.504 1047.66 695.482 1047.64 695.461C1045.98 693.798 1043.41 693.485 1041.39 694.694L1038.85 696.216C1037.21 697.198 1035.18 697.166 1033.54 696.184C1033.22 696 1032.89 695.806 1032.57 695.622C1030.91 694.694 1029.87 692.956 1029.9 691.045L1029.95 688.066C1029.99 685.723 1028.42 683.651 1026.16 683.046C1026.14 683.036 1026.1 683.036 1026.08 683.025C1023.82 682.42 1021.42 683.435 1020.29 685.486L1018.84 688.077C1017.92 689.718 1016.18 690.732 1014.3 690.711C1014.09 690.711 1013.88 690.7 1013.67 690.7C1013.45 690.7 1013.25 690.7 1013.03 690.711C1011.15 690.743 1009.41 689.728 1008.5 688.077L1007.05 685.486C1005.91 683.435 1003.52 682.42 1001.25 683.025C1001.23 683.036 1001.2 683.036 1001.18 683.046C998.912 683.651 997.357 685.723 997.389 688.066L997.433 691.045C997.465 692.945 996.418 694.694 994.766 695.622C994.442 695.806 994.108 696 993.795 696.184C992.165 697.166 990.125 697.198 988.484 696.216L985.947 694.694C983.928 693.485 981.359 693.809 979.697 695.461C979.675 695.482 979.653 695.504 979.632 695.525C977.969 697.188 977.656 699.757 978.865 701.776L980.388 704.312C981.37 705.953 981.337 707.983 980.355 709.623C980.172 709.947 979.977 710.271 979.794 710.595C978.865 712.257 977.127 713.294 975.217 713.261L972.237 713.218C969.895 713.175 967.822 714.74 967.218 717.007C967.207 717.029 967.207 717.061 967.196 717.083C966.592 719.35 967.606 721.746 969.657 722.879L972.248 724.326C973.889 725.244 974.904 726.982 974.882 728.86C974.882 729.076 974.871 729.281 974.871 729.497C974.871 729.713 974.871 729.918 974.882 730.134C974.915 732.012 973.9 733.75 972.248 734.667L969.657 736.114C967.606 737.258 966.592 739.644 967.196 741.911C967.207 741.932 967.207 741.965 967.218 741.986C967.822 744.253 969.895 745.808 972.237 745.775L975.217 745.732C977.117 745.7 978.865 746.747 979.794 748.399C979.977 748.722 980.172 749.057 980.355 749.37C981.337 751 981.37 753.04 980.388 754.681L978.865 757.218C977.656 759.237 977.98 761.806 979.632 763.468C979.653 763.49 979.675 763.511 979.697 763.533C981.359 765.195 983.928 765.508 985.947 764.299L988.484 762.777C990.125 761.795 992.154 761.827 993.795 762.81C994.119 762.993 994.442 763.187 994.766 763.371C996.429 764.299 997.465 766.037 997.433 767.948L997.389 770.927C997.346 773.27 998.912 775.343 1001.18 775.947C1001.2 775.958 1001.23 775.958 1001.25 775.969C1003.52 776.573 1005.92 775.558 1007.05 773.507L1008.5 770.917C1009.41 769.276 1011.15 768.261 1013.03 768.283C1013.25 768.283 1013.45 768.294 1013.67 768.294C1013.88 768.294 1014.09 768.294 1014.3 768.283C1016.18 768.25 1017.92 769.265 1018.84 770.917L1020.29 773.507C1021.43 775.558 1023.82 776.573 1026.08 775.969C1026.1 775.958 1026.14 775.958 1026.16 775.947C1028.42 775.343 1029.98 773.27 1029.95 770.927L1029.9 767.948C1029.87 766.048 1030.92 764.299 1032.57 763.371C1032.89 763.187 1033.23 762.993 1033.54 762.81C1035.17 761.827 1037.21 761.795 1038.85 762.777L1041.39 764.299C1043.41 765.508 1045.98 765.185 1047.64 763.533C1047.66 763.511 1047.68 763.49 1047.7 763.468C1049.37 761.806 1049.68 759.237 1048.47 757.218L1046.95 754.681C1045.97 753.04 1046 751.011 1046.98 749.37C1047.16 749.046 1047.36 748.722 1047.54 748.399C1048.47 746.736 1050.21 745.7 1052.12 745.732L1055.1 745.775C1057.44 745.819 1059.51 744.253 1060.12 741.986C1060.13 741.965 1060.13 741.932 1060.14 741.911C1060.73 739.644 1059.73 737.247 1057.68 736.114ZM1013.68 758.341C997.746 758.341 984.835 745.43 984.835 729.497C984.835 713.563 997.746 700.653 1013.68 700.653C1029.61 700.653 1042.52 713.563 1042.52 729.497C1042.52 745.43 1029.61 758.341 1013.68 758.341Z" fill="#F4D7C9"/>
</g>
<path d="M1065.58 109.783H1196.25V154.787H1172.96L1185.11 183.404L1141.68 154.787H1065.58V109.783Z" fill="#EB908B"/>
<path d="M1182.67 122.932H1081.08V127.897H1182.67V122.932Z" fill="white"/>
<path d="M1182.67 136.727H1081.08V141.692H1182.67V136.727Z" fill="white"/>
<path d="M1469.08 791.804H308.04V806.075H1469.08V791.804Z" fill="#AECBC7"/>
<path d="M923.833 495.505V480.015L909.886 476.409L899.199 463.671L901.984 456.05L816.855 358.777H461.251C457.764 358.777 454.936 361.606 454.936 365.092V376.092L455.022 376.157C455.238 377.927 455.961 379.709 457.278 381.274L551.614 493.713C558.469 501.874 568.584 506.602 579.249 506.602H913.966C919.439 506.602 923.282 502.457 923.833 497.772C923.919 497.038 923.919 496.272 923.833 495.505Z" fill="#B6D5D0"/>
<path d="M913.978 491.124H579.25C568.585 491.124 558.47 486.406 551.615 478.235L457.268 365.806C451.86 359.362 456.437 349.527 464.857 349.527H799.584C810.25 349.527 820.364 354.245 827.219 362.416L921.566 474.845C926.975 481.29 922.387 491.124 913.978 491.124Z" fill="white"/>
<path d="M872.276 466.39C871.617 466.39 871.002 466.099 870.581 465.602L805.531 388.322C804.311 386.875 805.337 384.673 807.226 384.673C807.884 384.673 808.499 384.964 808.92 385.461L873.97 462.741C875.19 464.177 874.165 466.39 872.276 466.39Z" fill="#B2E5E0"/>
<path d="M617.873 434.167H542.611C540.841 434.167 539.157 433.379 538.023 432.019L501.116 387.738C499.863 386.238 500.932 383.971 502.875 383.971H578.137C579.907 383.971 581.591 384.759 582.725 386.119L619.633 430.399C620.885 431.9 619.816 434.167 617.873 434.167Z" fill="#DCECEB"/>
<path d="M581.332 467.145H570.235C568.465 467.145 566.791 466.368 565.658 465.008L552.013 448.719C550.761 447.218 551.819 444.951 553.773 444.951H564.87C566.64 444.951 568.313 445.728 569.447 447.089L583.092 463.378C584.344 464.868 583.286 467.145 581.332 467.145Z" fill="#B2E5E0"/>
<path d="M613.416 467.145H602.319C600.549 467.145 598.875 466.368 597.742 465.008L584.097 448.719C582.845 447.218 583.903 444.951 585.857 444.951H596.954C598.724 444.951 600.397 445.728 601.531 447.089L615.176 463.378C616.428 464.868 615.37 467.145 613.416 467.145Z" fill="#B2E5E0"/>
<path d="M645.498 467.145H634.401C632.631 467.145 630.958 466.368 629.824 465.008L616.18 448.719C614.927 447.218 615.985 444.951 617.939 444.951H629.036C630.807 444.951 632.48 445.728 633.613 447.089L647.258 463.378C648.51 464.868 647.452 467.145 645.498 467.145Z" fill="#B2E5E0"/>
<path d="M705.129 405.052H620.108C618.349 405.052 616.675 404.275 615.542 402.925L602.815 387.759C601.563 386.258 602.621 383.98 604.574 383.98H689.595C691.354 383.98 693.028 384.758 694.161 386.107L706.888 401.274C708.141 402.774 707.083 405.052 705.129 405.052Z" fill="#DCECEB"/>
<path d="M731.155 436.069H646.134C644.375 436.069 642.701 435.291 641.568 433.942L628.841 418.775C627.589 417.286 628.646 414.997 630.6 414.997H715.621C717.38 414.997 719.054 415.774 720.187 417.124L732.914 432.29C734.166 433.791 733.098 436.069 731.155 436.069Z" fill="#DCECEB"/>
<path d="M757.235 467.146H672.215C670.455 467.146 668.782 466.369 667.648 465.019L654.921 449.852C653.669 448.363 654.727 446.074 656.681 446.074H741.701C743.461 446.074 745.134 446.851 746.268 448.201L758.995 463.368C760.247 464.868 759.189 467.146 757.235 467.146Z" fill="#DCECEB"/>
<path d="M794.704 466.39C794.046 466.39 793.43 466.099 793.009 465.602L727.96 388.322C726.74 386.875 727.765 384.673 729.654 384.673C730.313 384.673 730.928 384.964 731.349 385.461L796.399 462.741C797.619 464.177 796.593 466.39 794.704 466.39Z" fill="#B2E5E0"/>
<path d="M746.634 401.331H737.373C736.034 401.331 734.048 400.252 732.925 398.913L729.557 394.908C728.434 393.57 728.607 392.49 729.946 392.49H739.208C740.546 392.49 742.532 393.57 743.655 394.908L747.023 398.913C748.146 400.252 747.973 401.331 746.634 401.331Z" fill="#B2E5E0"/>
<path d="M747.271 399.183H738.009C736.67 399.183 734.684 398.103 733.561 396.765L730.193 392.76C729.071 391.421 729.243 390.342 730.582 390.342H739.844C741.182 390.342 743.169 391.421 744.291 392.76L747.659 396.765C748.782 398.103 748.598 399.183 747.271 399.183Z" fill="#DCECEB"/>
<path d="M840.81 421.4H831.548C830.21 421.4 828.223 420.32 827.101 418.981L823.733 414.977C822.61 413.638 822.783 412.559 824.121 412.559H833.383C834.722 412.559 836.708 413.638 837.831 414.977L841.199 418.981C842.311 420.32 842.138 421.4 840.81 421.4Z" fill="#B2E5E0"/>
<path d="M841.437 419.261H832.175C830.837 419.261 828.85 418.181 827.728 416.843L824.36 412.838C823.237 411.499 823.41 410.42 824.748 410.42H834.01C835.349 410.42 837.335 411.499 838.458 412.838L841.826 416.843C842.949 418.171 842.776 419.261 841.437 419.261Z" fill="#DCECEB"/>
<path d="M833.836 466.39C833.178 466.39 832.562 466.099 832.141 465.602L767.091 388.322C765.872 386.875 766.897 384.673 768.786 384.673C769.445 384.673 770.06 384.964 770.481 385.461L835.531 462.741C836.751 464.177 835.725 466.39 833.836 466.39Z" fill="#B2E5E0"/>
<path d="M824.573 447.59H815.311C813.973 447.59 811.987 446.51 810.864 445.172L807.496 441.167C806.373 439.829 806.546 438.749 807.885 438.749H817.147C818.485 438.749 820.472 439.829 821.594 441.167L824.962 445.172C826.085 446.5 825.912 447.59 824.573 447.59Z" fill="#B2E5E0"/>
<path d="M825.21 445.442H815.948C814.61 445.442 812.623 444.362 811.501 443.023L808.133 439.019C807.01 437.68 807.183 436.601 808.521 436.601H817.783C819.122 436.601 821.108 437.68 822.231 439.019L825.599 443.023C826.722 444.362 826.549 445.442 825.21 445.442Z" fill="#DCECEB"/>
<path d="M934.672 564.451C934.672 564.451 929.307 581.075 910.178 595.67C900.927 602.74 888.459 609.336 871.813 613.352C820.775 625.69 779.906 621.232 776.948 621.718C774.314 622.149 799.768 662.382 814.093 686.53C815.874 689.531 817.483 692.273 818.843 694.669C819.015 694.961 819.167 695.252 819.328 695.533C830.998 716.507 824.758 721.775 824.758 721.775C812.927 723.254 796.659 736.564 796.659 736.564C772.015 742.977 757.226 704.525 743.419 688.257C729.612 671.989 694.119 623.682 709.901 597.559C725.672 571.435 865.93 537.906 865.93 537.906L879.909 543.304L906.281 553.483L934.672 564.451Z" fill="#376F92"/>
<path d="M818.854 694.694C819.026 694.986 819.177 695.277 819.339 695.558C819.145 695.32 818.983 695.029 818.854 694.694Z" fill="#1B5175"/>
<path d="M919.882 582.158C919.806 582.342 916.114 587.566 910.177 595.684C900.926 602.755 888.458 609.35 871.812 613.366C820.774 625.705 779.905 621.246 776.947 621.732C774.313 622.164 799.767 662.397 814.092 686.545C805.499 676.203 791.919 674.843 781.761 654.16C769.434 629.062 740.352 655.11 735.041 634.405C729.73 613.701 750.219 615.18 780.283 601.87C810.357 588.56 815.28 593.979 842.547 588.549C869.826 583.119 865.541 549.666 865.541 549.666L879.898 543.329L899.879 540.749C899.879 540.749 902.718 546.384 906.27 553.509C912.228 565.448 920.141 581.532 919.882 582.158Z" fill="#1B5175"/>
<path d="M831.828 731.828C831.828 731.828 846.024 743.681 846.348 752.684C846.671 761.687 816.467 792.193 816.467 792.193H778.156C778.156 792.193 774.054 785.91 784.655 781.398C795.255 776.897 796.313 776.627 800.297 772.384C804.269 768.142 807.723 756.743 814.082 744.814C820.44 732.886 831.828 731.828 831.828 731.828Z" fill="#0C1B3C"/>
<path d="M845.884 267.345C845.884 267.345 836.913 261.829 833.923 255.621C830.933 249.414 823.344 235.845 822.89 232.628C822.437 229.412 828.871 232.855 832.552 239.3C832.552 239.3 830.026 232.402 825.427 223.431C820.829 214.461 813.467 208.944 815.312 204.572C817.148 200.201 830.49 216.76 832.099 219.523C833.707 222.287 836.924 219.297 841.069 221.359C845.203 223.431 845.203 221.132 849.349 223.658C853.483 226.184 857.045 231.322 861.363 253.938L845.884 267.345Z" fill="#E9928B"/>
<path d="M740.179 439.557C740.179 439.557 735.321 437.883 727.107 429.982C718.902 422.08 714.034 419.197 711.303 417.978C708.572 416.758 704.157 415.398 699.601 415.7C695.046 416.002 692.606 413.876 693.675 412.354C694.744 410.831 698.997 409.774 698.997 409.774C698.997 409.774 690.641 410.529 692.768 406.729C694.895 402.93 706.899 404.452 706.899 404.452C706.899 404.452 709.176 401.569 712.371 401.569C715.567 401.569 715.254 398.989 721.644 399.745C728.024 400.501 731.371 404.301 738.053 405.823C744.735 407.345 750.261 421.249 750.261 421.249L740.179 439.557Z" fill="#E9928B"/>
<path d="M750.23 419.704C750.23 419.704 739.489 429.193 736.208 439.221L735.053 442.179L741.292 450.891L755.757 423.288L750.23 419.704Z" fill="#93405E"/>
<path d="M844.74 275.928L839.569 267.799C839.569 267.799 849.673 255.968 862.735 252.514L865.952 258.181L844.74 275.928Z" fill="#93405E"/>
<path d="M999.591 380.887L960.287 401.743L954.447 404.841C954.447 404.841 952.364 403.794 948.953 402.013C937.812 396.162 912.509 382.388 899.696 371.323C893.737 366.184 883.859 353.857 873.594 340.093C854.994 315.168 835.121 285.557 835.121 285.557C849.413 263.374 865.94 255.979 865.94 255.979C865.94 255.979 910.458 318.59 917.356 324.505C921.393 327.971 948.812 346.657 970.899 361.586C986.594 372.186 999.591 380.887 999.591 380.887Z" fill="#67A4C3"/>
<path d="M999.592 380.886L960.288 401.741C956.801 401.817 952.947 401.914 948.964 402.011C937.824 396.16 912.521 382.386 899.707 371.321C893.748 366.183 883.871 353.855 873.605 340.092C881.766 344.345 889.819 348.08 894.504 352.117C904.694 360.937 901.736 350.142 947.096 356.381C956.056 357.612 963.98 359.436 970.921 361.563C986.595 372.185 999.592 380.886 999.592 380.886Z" fill="#4F91B3"/>
<path d="M968.221 374.603C968.221 374.603 934.207 395.47 934.131 382.332C934.109 377.928 933.31 374.118 932.263 371.019C930.191 364.866 927.136 361.455 927.136 361.455C927.136 361.455 927.125 361.466 927.114 361.488C914.97 374.431 909.551 370.329 908.072 367.867C906.593 365.406 896.565 344.702 898.044 337.793C899.523 330.895 899.199 326.782 897.061 322.507C894.935 318.243 898.044 307.891 898.044 307.891L926.974 301.803C926.974 301.803 953.756 329.081 956.055 338.279C958.355 347.487 968.221 374.603 968.221 374.603Z" fill="#E9928B"/>
<path d="M1006.67 463.994C997.799 490.615 949.535 579.51 924.275 582.047C913.977 583.083 900.688 576.358 888.576 568.025C870.981 555.924 855.836 540.444 855.836 540.444C878.019 524.716 875.061 475.124 875.061 475.124C875.061 475.124 875.061 475.135 875.05 475.145C874.565 475.545 843.346 501.474 822.415 503.914C801.311 506.375 733.087 459.05 733.087 459.05C733.087 459.05 748.372 420.599 755.767 422.078C763.161 423.557 811.965 455.11 820.32 455.596C828.676 456.093 876.044 413.69 887.832 401.859C899.63 390.028 946.037 371.785 978.573 371.299C978.573 371.299 999.774 374.753 1007.17 390.524C1014.55 406.317 1015.55 437.374 1006.67 463.994Z" fill="#67A4C3"/>
<path d="M912.163 278.626C896.716 280.483 882.046 291.926 886.784 303.401C891.523 314.865 900.775 316.246 906.701 316.322C912.627 316.398 914.592 319.917 916.665 323.123C918.737 326.329 919.655 324.343 922.257 319.15C924.858 313.947 930.817 317.671 930.968 324.677C931.119 331.683 929.899 348.664 942.432 348.966C954.965 349.268 957.415 344.076 957.88 344.076C958.344 344.076 968.577 323.134 967.822 304.782C967.822 304.782 980.819 298.057 978.368 287.349C975.918 276.651 961.852 274.503 953.443 283.139C953.443 283.139 946.405 283.516 939.831 279.091C933.256 274.654 924.383 272.517 920.259 275.118C916.136 277.709 915.985 278.162 912.163 278.626Z" fill="#0C1B3C"/>
<path d="M923.186 631.133H909.984V781.138H923.186V631.133Z" fill="#F0D1AA"/>
<path d="M923.186 781.138H916.58V631.133L923.186 630.723V781.138Z" fill="#EDBF84"/>
<path d="M968.837 792.235H864.321C864.321 789.169 865.562 786.406 867.57 784.398C869.578 782.39 872.352 781.148 875.418 781.148H957.74C963.871 781.138 968.837 786.103 968.837 792.235Z" fill="#EDBF84"/>
<path d="M935.492 792.235H864.332C864.332 789.169 865.573 786.406 867.581 784.398C869.589 782.39 872.363 781.148 875.429 781.148H916.59L935.492 792.235Z" fill="#F0D1AA"/>
<path d="M1046.28 473.742C1045.34 474.174 1044.42 474.638 1043.53 475.134C1043.24 475.296 1042.94 475.458 1042.66 475.62C1042.37 475.782 1042.09 475.944 1041.81 476.117C1041.53 476.279 1041.25 476.451 1040.97 476.635C1040.71 476.797 1040.45 476.959 1040.2 477.121C1039.9 477.315 1039.61 477.509 1039.33 477.714C1039.06 477.898 1038.79 478.081 1038.52 478.276C1038.25 478.47 1037.98 478.664 1037.72 478.859C1036.83 479.517 1035.96 480.208 1035.11 480.92C1034.79 481.18 1034.49 481.439 1034.19 481.709C1033.11 482.659 1032.06 483.652 1031.06 484.688L1031.03 484.72C1030.62 485.141 1030.21 485.573 1029.8 486.016C1029.74 486.081 1029.68 486.156 1029.61 486.221C1029.21 486.653 1028.82 487.095 1028.44 487.549C1028 488.045 1027.59 488.542 1027.18 489.049C1027.16 489.081 1027.13 489.114 1027.11 489.146C1026.72 489.621 1026.34 490.107 1025.97 490.593C1025.58 491.1 1025.19 491.618 1024.81 492.147C1024.79 492.18 1024.77 492.201 1024.74 492.234C1024.37 492.752 1024 493.27 1023.64 493.799C1023.25 494.349 1022.89 494.9 1022.52 495.461C1022.52 495.461 1022.52 495.472 1022.51 495.472C1022.19 495.969 1021.87 496.465 1021.56 496.972C1021.47 497.113 1021.39 497.253 1021.3 497.393C1021.22 497.512 1021.14 497.642 1021.06 497.771C1020.48 498.721 1019.92 499.682 1019.37 500.664C1018.7 501.852 1018.04 503.072 1017.42 504.302C1017.1 504.918 1016.79 505.544 1016.49 506.17C1016.17 506.796 1015.87 507.422 1015.58 508.059C1014.99 509.333 1014.4 510.617 1013.84 511.923C1013.56 512.571 1013.28 513.23 1013.01 513.888C1012.73 514.547 1012.46 515.216 1012.2 515.874C1011.96 516.446 1011.75 517.019 1011.52 517.602C1011.23 518.368 1010.94 519.134 1010.65 519.912C1010.39 520.592 1010.15 521.261 1009.9 521.952C1009.87 522.027 1009.85 522.114 1009.81 522.189C1009.6 522.794 1009.38 523.398 1009.18 524.003C1008.69 525.406 1008.21 526.82 1007.74 528.245C1007.53 528.904 1007.31 529.573 1007.11 530.232C1006.89 530.933 1006.67 531.624 1006.45 532.326C1006.04 533.653 1005.64 534.97 1005.25 536.298C1005.23 536.374 1005.21 536.46 1005.18 536.536C1004.97 537.237 1004.77 537.95 1004.57 538.652C1004.56 538.662 1004.56 538.673 1004.56 538.684C1004.36 539.375 1004.16 540.076 1003.96 540.767C1003.7 541.663 1003.47 542.559 1003.22 543.455C1003.08 543.963 1002.94 544.481 1002.81 544.988C1002.73 545.269 1002.66 545.56 1002.57 545.841C1002.07 547.665 1001.6 549.49 1001.12 551.303C1000.66 553.073 1000.21 554.833 999.754 556.571C999.559 557.316 999.365 558.05 999.182 558.795C998.588 561.116 997.994 563.415 997.411 565.671C997.228 566.33 997.066 566.999 996.893 567.657C996.58 568.856 996.256 570.043 995.943 571.209C995.749 571.932 995.555 572.666 995.349 573.379C994.637 575.959 993.924 578.463 993.18 580.892C993.018 581.442 992.845 581.993 992.683 582.533C992.564 582.921 992.435 583.299 992.316 583.688C992.219 584.012 992.111 584.346 992.003 584.659C991.658 585.717 991.312 586.764 990.945 587.779C990.567 588.88 990.179 589.949 989.779 590.996C989.758 591.05 989.736 591.104 989.725 591.158C989.542 591.633 989.358 592.086 989.175 592.55C989.013 592.95 988.851 593.349 988.689 593.738C988.646 593.835 988.603 593.954 988.559 594.051C988.376 594.504 988.171 594.947 987.977 595.4C987.966 595.433 987.944 595.476 987.923 595.508C987.707 595.983 987.491 596.458 987.275 596.922C987.059 597.386 986.843 597.84 986.616 598.282C986.454 598.617 986.292 598.941 986.12 599.265C986.044 599.416 985.969 599.567 985.882 599.707C985.666 600.096 985.461 600.474 985.245 600.852C985.148 601.035 985.04 601.208 984.943 601.381C984.814 601.607 984.673 601.834 984.533 602.061C965.998 632.222 913.298 631.131 913.298 631.131H835.888C817.72 631.131 817.353 612.596 838.068 611.139C858.783 609.682 899.124 585.696 917.292 533.006C926.1 507.465 936.355 492.255 944.592 483.36C951.587 475.793 961.497 471.583 971.795 471.583H1045.79C1047.02 471.583 1047.38 473.235 1046.28 473.742Z" fill="#F4C8AF"/>
<path d="M1043.53 475.135C1043.24 475.297 1042.94 475.459 1042.66 475.621C1042.37 475.783 1042.09 475.944 1041.81 476.117C1041.53 476.279 1041.25 476.452 1040.97 476.635C1040.71 476.797 1040.46 476.959 1040.2 477.121C1039.9 477.315 1039.61 477.51 1039.33 477.715C1039.05 477.898 1038.78 478.082 1038.52 478.276C1038.25 478.47 1037.98 478.665 1037.72 478.859C1036.83 479.518 1035.96 480.208 1035.11 480.921C1034.79 481.18 1034.49 481.439 1034.19 481.709C1033.11 482.659 1032.06 483.652 1031.06 484.688L1031.03 484.721C1030.62 485.142 1030.21 485.573 1029.8 486.016C1029.74 486.081 1029.68 486.156 1029.61 486.221C1029.21 486.653 1028.82 487.095 1028.44 487.549C1028 488.045 1027.59 488.542 1027.18 489.049C1027.16 489.082 1027.13 489.114 1027.11 489.146C1026.73 489.621 1026.34 490.107 1025.97 490.593C1025.59 491.111 1025.19 491.629 1024.81 492.148C1024.79 492.18 1024.77 492.202 1024.74 492.234C1024.38 492.752 1024 493.27 1023.64 493.799C1023.26 494.35 1022.9 494.9 1022.52 495.462C1022.52 495.462 1022.52 495.472 1022.51 495.472C1022.2 495.969 1021.87 496.465 1021.56 496.973C1021.47 497.113 1021.39 497.253 1021.3 497.394C1021.22 497.513 1021.15 497.642 1021.07 497.772H1021.06C1020.48 498.722 1019.92 499.682 1019.37 500.665C1018.7 501.852 1018.04 503.072 1017.42 504.303C1017.1 504.918 1016.79 505.533 1016.49 506.17C1016.18 506.796 1015.87 507.422 1015.58 508.059C1014.99 509.333 1014.4 510.618 1013.84 511.924C1013.56 512.571 1013.28 513.23 1013.01 513.888C1012.73 514.547 1012.46 515.216 1012.2 515.875C1011.96 516.447 1011.75 517.019 1011.52 517.602C1011.23 518.368 1010.94 519.135 1010.65 519.912C1010.4 520.592 1010.15 521.261 1009.9 521.952C1009.87 522.028 1009.85 522.114 1009.81 522.19C1009.6 522.794 1009.38 523.399 1009.18 524.003C1008.69 525.407 1008.21 526.821 1007.74 528.246C1007.53 528.904 1007.32 529.573 1007.1 530.232C1006.89 530.934 1006.67 531.624 1006.45 532.326C1006.04 533.654 1005.64 534.982 1005.25 536.299C1005.23 536.374 1005.21 536.46 1005.18 536.536C1004.98 537.238 1004.77 537.95 1004.57 538.652C1004.56 538.663 1004.56 538.673 1004.56 538.684C1004.36 539.375 1004.17 540.066 1003.96 540.768C1003.7 541.664 1003.47 542.56 1003.22 543.456C1003.08 543.974 1002.94 544.481 1002.81 544.988C1002.73 545.269 1002.66 545.561 1002.57 545.841C1002.09 547.666 1001.6 549.49 1001.12 551.303C1000.66 553.074 1000.21 554.833 999.754 556.571C999.559 557.316 999.376 558.061 999.181 558.795C998.588 561.116 997.994 563.415 997.411 565.671C997.238 566.341 997.066 566.999 996.893 567.658C996.58 568.856 996.256 570.043 995.943 571.209C995.749 571.932 995.554 572.666 995.349 573.379C994.637 575.959 993.924 578.463 993.18 580.892C993.018 581.443 992.845 581.993 992.683 582.533C992.564 582.922 992.435 583.299 992.316 583.688C992.219 584.012 992.111 584.347 992.003 584.66C991.658 585.718 991.312 586.765 990.945 587.779C990.567 588.88 990.179 589.949 989.779 590.996C989.758 591.05 989.736 591.104 989.725 591.158C989.542 591.633 989.358 592.086 989.175 592.551C989.013 592.95 988.851 593.349 988.689 593.738C988.646 593.835 988.602 593.954 988.559 594.051C988.376 594.505 988.171 594.947 987.976 595.401C987.966 595.433 987.944 595.476 987.922 595.508C987.707 595.983 987.491 596.458 987.275 596.923C987.059 597.387 986.843 597.84 986.616 598.283C986.454 598.617 986.292 598.941 986.12 599.265C986.044 599.416 985.969 599.567 985.882 599.708C985.666 600.096 985.461 600.474 985.245 600.852C985.008 601.262 984.77 601.662 984.533 602.061C965.998 632.222 913.297 631.132 913.297 631.132H840.788C835.618 627.094 838.133 620.93 851.885 619.959C872.601 618.502 917.356 589.258 935.535 536.558C944.344 511.017 954.599 495.807 962.835 486.912C969.83 479.345 979.729 475.135 990.038 475.135H1043.53V475.135Z" fill="#F7DFD3"/>
<path d="M1021.05 497.782C1020.47 498.732 1019.91 499.693 1019.36 500.675C1018.69 501.863 1018.03 503.083 1017.42 504.313C1017.09 504.928 1016.78 505.544 1016.48 506.181C1016.17 506.807 1015.86 507.433 1015.57 508.07C1014.98 509.344 1014.39 510.628 1013.83 511.934C1013.55 512.582 1013.27 513.241 1013 513.899C1012.72 514.558 1012.45 515.227 1012.19 515.885C1011.95 516.457 1011.74 517.03 1011.51 517.613C1011.22 518.379 1010.93 519.145 1010.64 519.923C1010.39 520.603 1010.14 521.272 1009.89 521.963C1009.86 522.038 1009.84 522.125 1009.8 522.2C1009.59 522.805 1009.37 523.409 1009.17 524.014C1008.68 525.417 1008.2 526.831 1007.73 528.256C1007.52 528.915 1007.31 529.584 1007.1 530.242C1006.88 530.944 1006.66 531.635 1006.44 532.337C1006.03 533.664 1005.63 534.992 1005.24 536.309C1005.22 536.385 1005.2 536.471 1005.17 536.547C1004.97 537.248 1004.76 537.961 1004.56 538.663C1004.55 538.673 1004.55 538.684 1004.55 538.695C1004.35 539.386 1004.16 540.077 1003.95 540.778C1003.69 541.674 1003.46 542.57 1003.21 543.466C1003.07 543.984 1002.93 544.492 1002.8 544.999C1002.72 545.28 1002.65 545.571 1002.56 545.852C1002.08 547.676 1001.59 549.501 1001.11 551.314C1000.65 553.084 1000.2 554.844 999.744 556.582C999.55 557.327 999.366 558.072 999.172 558.806C998.578 561.127 997.985 563.426 997.402 565.682C997.229 566.351 997.056 567.01 996.883 567.668C996.57 568.867 996.247 570.054 995.934 571.22C995.739 571.943 995.545 572.677 995.34 573.39C994.627 575.97 993.915 578.474 993.17 580.903C993.008 581.453 992.835 582.004 992.673 582.544C992.555 582.932 992.425 583.31 992.306 583.699C992.209 584.023 992.101 584.357 991.993 584.67C991.648 585.728 991.303 586.775 990.935 587.79C990.558 588.891 990.169 589.96 989.77 591.007C989.748 591.061 989.726 591.115 989.716 591.169C989.532 591.644 989.349 592.097 989.165 592.561C989.003 592.961 988.841 593.36 988.679 593.749C988.636 593.846 988.593 593.965 988.55 594.062C988.366 594.515 988.161 594.958 987.967 595.411C987.956 595.444 987.934 595.487 987.913 595.519C987.697 595.994 987.481 596.469 987.265 596.933C987.049 597.397 986.833 597.851 986.607 598.293C986.445 598.628 986.283 598.952 986.11 599.276C986.035 599.427 985.959 599.578 985.873 599.718C985.657 600.107 985.452 600.485 985.236 600.863C985.139 601.046 985.031 601.219 984.933 601.392C984.804 601.618 984.664 601.845 984.523 602.072C965.988 632.233 913.288 631.142 913.288 631.142H887.812C890.489 630.98 939.984 628.605 957.633 554.617C969.572 504.648 1001.96 501.679 1021.05 497.782Z" fill="#F4C8AF"/>
<path d="M487.591 630.408V579.748C487.591 563.955 474.788 551.152 458.995 551.152H422.843V792.094H469.186H487.591H544.771V687.589C544.771 671.796 531.969 658.993 516.176 658.993C500.394 659.004 487.591 646.201 487.591 630.408Z" fill="#DCECEB"/>
<path d="M479.883 730.912C468.851 709.862 455.551 694.846 433.918 677.855C412.296 660.864 383.96 660.788 372.398 655.315C360.826 649.831 360.535 665.009 364.129 679.258C367.724 693.507 356.81 759.119 422.53 779.974C488.238 800.841 488.033 746.446 479.883 730.912Z" fill="#F2D6C8"/>
<path d="M438.376 745.065C437.891 745.065 437.47 744.709 437.405 744.213C434.253 720.982 445.771 698.032 445.89 697.806C446.138 697.32 446.732 697.125 447.217 697.374C447.703 697.622 447.898 698.216 447.649 698.702C447.531 698.928 436.304 721.349 439.359 743.943C439.434 744.483 439.057 744.979 438.517 745.055C438.463 745.065 438.42 745.065 438.376 745.065Z" fill="#F5B89B"/>
<path d="M438.549 747.665C438.398 747.665 438.236 747.633 438.096 747.557C418.514 737.27 384.477 740.951 384.132 740.994C383.592 741.048 383.106 740.67 383.042 740.12C382.977 739.58 383.366 739.094 383.916 739.03C385.341 738.868 418.902 735.24 439.013 745.809C439.499 746.057 439.682 746.662 439.423 747.137C439.24 747.471 438.905 747.665 438.549 747.665Z" fill="#F5B89B"/>
<path d="M444.691 766.556C444.249 766.556 443.838 766.253 443.73 765.8C429.621 707.518 373.693 666.336 373.132 665.926C372.689 665.602 372.592 664.987 372.916 664.544C373.24 664.101 373.855 664.004 374.298 664.328C374.87 664.738 431.37 706.353 445.652 765.336C445.781 765.865 445.458 766.394 444.929 766.523C444.853 766.545 444.767 766.556 444.691 766.556Z" fill="#F5B89B"/>
<path d="M418.276 711.892C418.06 711.892 417.845 711.816 417.661 711.676C404.891 701.453 374.028 704.12 373.726 704.152C373.175 704.217 372.7 703.796 372.657 703.256C372.603 702.716 373.003 702.231 373.553 702.187C374.849 702.069 405.506 699.424 418.903 710.132C419.324 710.478 419.399 711.093 419.054 711.514C418.859 711.763 418.568 711.892 418.276 711.892Z" fill="#F5B89B"/>
<path d="M408.032 698.905C407.643 698.905 407.287 698.678 407.125 698.3C403.12 688.779 405.236 672.684 405.322 672.004C405.398 671.464 405.873 671.086 406.434 671.162C406.974 671.238 407.351 671.734 407.276 672.274C407.254 672.436 405.149 688.52 408.938 697.534C409.154 698.03 408.917 698.613 408.409 698.829C408.291 698.872 408.161 698.905 408.032 698.905Z" fill="#F5B89B"/>
<path d="M1420.16 376.522C1419.16 377.828 1417.99 378.81 1416.71 379.512C1406.05 385.374 1386.91 372.614 1378.17 373.024C1368.37 373.499 1363.7 386.324 1340.6 377.224C1317.51 368.124 1322.88 332.209 1324.28 318.672C1325.68 305.146 1317.28 298.378 1302.82 298.842C1288.36 299.317 1273.1 291.383 1279.68 268.519C1286.26 245.667 1267.72 233.673 1256.64 237.732C1245.55 241.791 1251.5 222.339 1251.5 222.339C1251.5 222.339 1260.97 208.856 1279.68 210.81C1285.54 211.425 1289.77 213.357 1293 216.034C1293 216.034 1293.01 216.034 1293.02 216.056C1293.76 216.682 1294.46 217.352 1295.11 218.042C1295.12 218.064 1295.14 218.075 1295.15 218.096C1300.56 223.958 1302.68 232.151 1306.1 238.423C1311.7 248.689 1321.03 247.987 1335.5 243.561C1349.96 239.125 1379.11 241.176 1385.41 265.346C1391.71 289.515 1374.92 317.744 1405.01 324.75C1435.09 331.723 1429.49 364.388 1420.16 376.522Z" fill="#0C1B3C"/>
<path d="M1252.63 220.408C1252.63 220.408 1261.36 226.162 1260.36 237.831C1260.36 237.831 1260.37 241.199 1256.54 239.472C1252.7 237.745 1249.59 225.104 1249.92 222.384C1250.26 219.653 1251.67 220.085 1252.63 220.408Z" fill="#3FB8A9"/>
<path d="M1248.95 272.481C1235.58 284.139 1229.01 283.33 1225.12 277.609C1223.66 275.482 1219.62 270.203 1215.12 264.428C1207.56 254.702 1198.72 243.561 1198.72 243.561C1198.72 243.561 1184.72 242.676 1184.42 231.849C1184.37 229.776 1184.76 227.704 1185.59 225.696C1189.04 217.19 1199.99 209.828 1215.22 208.575C1234.04 207.021 1251.14 216.358 1256.12 229.42C1261.07 242.471 1262.33 260.822 1248.95 272.481Z" fill="#0C1B3C"/>
<g opacity="0.52">
<path opacity="0.52" d="M1215.12 264.427C1207.56 254.7 1198.72 243.56 1198.72 243.56C1198.72 243.56 1184.72 242.675 1184.42 231.848C1184.37 229.775 1184.76 227.702 1185.59 225.695C1188.37 221.344 1193.6 217.598 1203.39 218.829C1224.38 221.474 1214.64 256.546 1219.82 260.238C1221.72 261.598 1219.15 263.088 1215.12 264.427Z" fill="#1B5175"/>
</g>
<path d="M1140.73 480.325C1140.73 480.325 1133.31 482.506 1129.66 485.258C1126.01 488.011 1117.14 492.286 1116.96 493.722C1116.79 495.157 1124.41 492.923 1127.41 491.757C1130.41 490.591 1129.94 493.463 1126.2 497.003C1122.47 500.544 1120.95 502.098 1116.65 505.369C1112.34 508.651 1111.84 510.119 1113.5 510.713C1115.15 511.307 1116.68 510.227 1116.68 510.227C1116.68 510.227 1112.82 513.163 1114.35 514.804C1115.88 516.445 1120.61 512.958 1120.61 512.958C1120.61 512.958 1119.27 515.322 1122.53 515.247C1125.79 515.171 1126.91 513.703 1130.76 512.569C1134.61 511.436 1146.23 499.184 1148.93 494.92C1151.63 490.656 1152.99 486.964 1152.99 486.964L1140.73 480.325Z" fill="#FFAC95"/>
<path d="M1220.76 379.512C1220.76 379.512 1227.87 415.048 1210.49 434.943C1193.11 454.838 1153.47 491.228 1153.47 491.228L1138.89 479.796C1138.89 479.796 1174.59 432.558 1179.49 414.422C1180.54 410.558 1181.51 403.131 1181.51 403.131L1220.76 379.512Z" fill="#F5911F"/>
<path d="M1170.4 475.133C1170.4 475.133 1169.3 471.031 1170.94 467.436C1172.58 463.841 1180.38 474.604 1180.38 474.604L1182.43 483.564L1170.4 475.133Z" fill="#FFAC95"/>
<path d="M1362.98 719.084C1369.64 726.252 1383.78 753.239 1383.78 753.239L1373.31 760.849C1373.31 760.849 1361.32 742.832 1358.83 743.912C1356.34 744.991 1358.79 771.396 1355.46 773.814C1352.12 776.232 1329.98 792.316 1329.98 792.316C1329.98 792.316 1329.04 783.011 1333.35 774.418C1337.17 766.819 1341.1 751.145 1331.11 727.515C1329.82 724.449 1328.3 721.254 1326.5 717.929L1349.5 696.501C1349.5 696.501 1352.34 702.892 1356.12 709.347C1358.21 712.931 1360.59 716.536 1362.98 719.084Z" fill="#1B5175"/>
<path d="M1326.5 717.94L1349.5 696.513C1349.5 696.513 1352.34 702.903 1356.12 709.358L1331.11 727.516C1329.82 724.461 1328.28 721.265 1326.5 717.94Z" fill="#E9928B"/>
<path d="M1368.12 691.353L1317.11 726.199C1317.11 726.199 1290.43 693.393 1266.76 663.243C1250.98 643.111 1236.54 624.176 1232.31 616.944C1223.77 602.371 1211.57 544.769 1207.2 523.169C1206.16 518.03 1205.56 514.922 1205.56 514.922L1211.81 497.38L1223.94 463.322L1224.84 460.796C1224.84 460.796 1233.59 456.284 1243.34 453.866C1245.93 453.218 1248.61 452.721 1251.19 452.495C1259.14 451.815 1266.39 453.704 1268.65 461.789C1268.78 462.264 1268.9 462.761 1269 463.279C1269.45 465.697 1269.95 468.795 1270.47 472.39C1274.86 503.004 1281.05 570.537 1282.99 578.126C1285.18 586.61 1368.12 691.353 1368.12 691.353Z" fill="#5F6386"/>
<path d="M1266.76 663.245C1250.98 643.112 1236.54 624.178 1232.31 616.946C1223.77 602.373 1211.57 544.771 1207.2 523.171C1208.41 518.335 1209.34 515.139 1209.8 514.448C1212.42 510.508 1270.48 472.413 1270.48 472.413C1270.48 472.413 1272.9 506.471 1261.39 528.201C1249.88 549.942 1240.03 565.875 1249.23 589.289C1258.43 612.714 1238.72 626.197 1254.49 639.334C1263.61 646.934 1266.2 656.52 1266.76 663.245Z" fill="#4A4E73"/>
<path d="M1168.05 752.465C1169.22 762.18 1164.81 792.33 1164.81 792.33H1151.86C1151.86 792.33 1152.75 770.708 1150.09 770.114C1147.45 769.521 1133.91 792.33 1129.79 792.33C1125.66 792.33 1098.3 792.33 1098.3 792.33C1098.3 792.33 1103.01 784.245 1111.55 779.83C1119.1 775.922 1131.49 765.548 1137.3 740.569C1138.06 737.33 1138.71 733.844 1139.21 730.109L1170.4 726.287C1170.4 726.287 1168.94 733.12 1168.21 740.58C1167.81 744.682 1167.62 749 1168.05 752.465Z" fill="#1B5175"/>
<path d="M1139.21 730.098L1170.4 726.276C1170.4 726.276 1168.94 733.11 1168.21 740.569H1137.3C1138.06 737.32 1138.7 733.844 1139.21 730.098Z" fill="#E9928B"/>
<path d="M1197.48 446.507C1197.48 446.507 1152.7 551.638 1139.63 595.174C1126.57 638.72 1106.67 732.646 1106.67 732.646H1175.1C1175.1 732.646 1201.84 605.127 1213.67 584.595C1225.49 564.063 1269.65 489.416 1262.8 462.667C1255.95 435.928 1197.48 446.507 1197.48 446.507Z" fill="#5F6386"/>
<path d="M1270.49 472.412L1249.73 526.289L1182.45 483.563L1223.95 463.344L1243.35 453.888L1248.78 451.232L1251.2 452.517L1268.66 461.811C1268.79 462.286 1268.91 462.783 1269.01 463.301C1269.47 465.708 1269.96 468.806 1270.49 472.412Z" fill="#4A4E73"/>
<path d="M1235.43 304.716C1235.43 304.716 1219.26 311.517 1205.57 330.181C1191.88 348.845 1175.71 383.54 1174.47 390.136C1173.23 396.731 1185.13 449.151 1185.09 462.677C1185.05 476.203 1248.74 471.205 1266.78 462.494C1266.78 462.494 1259.69 412.913 1259.69 406.069C1259.69 399.225 1260.32 353.196 1256.58 332.049C1252.84 310.901 1235.43 304.716 1235.43 304.716Z" fill="#FFAB40"/>
<path d="M1231.56 353.486C1231.56 353.486 1229 370.51 1231.56 383.323C1234.12 396.137 1214.13 388.343 1207.2 414.423C1200.27 440.504 1259.6 427.852 1259.6 427.852C1259.6 427.852 1275.95 402.711 1276.07 398.436C1276.19 394.172 1231.56 353.486 1231.56 353.486Z" fill="#F5911F"/>
<path d="M1235.43 304.716C1235.43 304.716 1204.17 336.863 1206.92 328.4C1208.43 323.737 1205.8 312.586 1203.12 303.507C1200.93 296.091 1198.72 290.057 1198.72 290.057C1198.72 290.057 1204.73 283.947 1211.02 278.733C1217.68 273.206 1224.66 268.694 1225.12 273.573C1226 283.062 1235.43 304.716 1235.43 304.716Z" fill="#FFAC95"/>
<path d="M1154.51 369.406L1119.29 445.257L1250.18 506.024L1285.39 430.173L1154.51 369.406Z" fill="#3FB8A9"/>
<path d="M1158.74 380.976L1130.86 441.023L1245.94 494.454L1273.82 434.406L1158.74 380.976Z" fill="white"/>
<path d="M1142.66 447.596L1189.86 414.424L1194.98 471.885L1142.66 447.596Z" fill="#3FB8A9"/>
<path d="M1192.55 470.871L1229.06 445.212L1233.02 489.665L1192.55 470.871Z" fill="#3FB8A9"/>
<path d="M1220.95 428.237C1223.09 424.011 1221.41 418.846 1217.18 416.702C1212.95 414.557 1207.79 416.246 1205.64 420.473C1203.5 424.699 1205.19 429.864 1209.41 432.008C1213.64 434.153 1218.81 432.464 1220.95 428.237Z" fill="#3FB8A9"/>
<path d="M1194.74 458.562C1194.74 458.562 1188.65 459.426 1184.36 460.527C1180.05 461.628 1171.58 461.024 1170.59 462.988C1169.61 464.953 1180.11 466.68 1182.67 466.918C1185.23 467.155 1178.71 470.761 1175.02 471.786C1171.33 472.812 1168.38 474.291 1172.19 477.734C1176 481.178 1181.91 486.338 1184.36 486.705C1186.82 487.072 1198.86 477.972 1205.5 471.214C1212.14 464.456 1194.74 458.562 1194.74 458.562Z" fill="#FFAC95"/>
<path d="M1236.04 316.178C1224.31 325.16 1228.88 348.218 1234.8 363.147C1240.71 378.076 1257.5 405.452 1256.26 407.935C1255.02 410.429 1192.77 457.656 1192.77 457.656L1205.56 473.719C1205.56 473.719 1264.65 444.011 1279.28 433.443C1293.89 422.864 1295.13 411.357 1290.78 396.428C1286.43 381.498 1261.24 296.899 1236.04 316.178Z" fill="#FFAB40"/>
<path d="M1150.78 732.904L1147.87 732.397C1148.81 727.021 1170.94 600.721 1174.82 588.836C1178.7 577.015 1209.14 500.113 1210.43 496.853L1213.18 497.943C1212.87 498.742 1181.47 578.019 1177.63 589.764C1173.82 601.433 1151.02 731.587 1150.78 732.904Z" fill="#4A4E73"/>
<path d="M1345.64 706.845C1345.18 706.263 1299.07 648.456 1274.91 618.565C1250.54 588.404 1241.52 546.056 1241.43 545.635L1244.32 545.03C1244.41 545.451 1253.29 587.109 1277.21 616.697C1301.37 646.588 1347.49 704.406 1347.95 704.989L1345.64 706.845Z" fill="#4A4E73"/>
<g opacity="0.52">
<path opacity="0.52" d="M1420.16 376.521C1419.16 377.827 1417.99 378.81 1416.71 379.511C1427.08 367.162 1419.47 350.797 1392.85 351.132C1366.23 351.456 1359.01 328.452 1374.78 290.335C1390.55 252.218 1350.79 249.25 1334.03 257.799C1317.26 266.349 1300.17 258.458 1300.83 239.966C1301.28 227.595 1297.62 221.075 1295.14 218.106C1300.55 223.968 1302.67 232.161 1306.09 238.433C1311.69 248.699 1321.02 247.997 1335.48 243.572C1349.95 239.135 1379.1 241.186 1385.4 265.356C1391.7 289.525 1374.91 317.754 1405 324.76C1435.09 331.723 1429.49 364.388 1420.16 376.521Z" fill="#1B5175"/>
</g>
<path d="M1219.87 277.307C1219.87 277.307 1215.19 294.471 1203.12 303.506C1200.93 296.09 1198.72 290.055 1198.72 290.055C1198.72 290.055 1204.73 283.946 1211.02 278.732L1219.87 277.307Z" fill="#E9928B"/>
<path d="M1199.65 232.834C1199.65 232.834 1191.25 253.668 1183.32 257.716C1175.39 261.764 1180.68 262.692 1183.32 267.204C1185.97 271.717 1175.85 285.707 1184.56 292.087C1193.27 298.466 1213.49 288.038 1219.86 277.308C1219.86 277.308 1230.9 277.773 1233.55 269.374C1236.19 260.976 1227.64 255.686 1222.67 259.421C1217.69 263.156 1217.07 255.373 1214.9 243.715C1212.71 232.056 1200.72 230.351 1199.65 232.834Z" fill="#FFAC95"/>
<path d="M308.04 791.805C306.162 772.115 323.995 742.472 381.24 761.752C381.24 761.752 395.705 716.564 435.473 718.065C475.242 719.576 487.893 756.764 487.893 756.764C487.893 756.764 541.317 750.309 548.949 795.497C548.949 795.497 310.749 820.249 308.04 791.805Z" fill="#ADCCC7"/>
<path d="M426.774 795.195L424.83 794.882C429.99 762.875 410.149 739.904 409.944 739.677L411.423 738.371C411.628 738.619 432.074 762.282 426.774 795.195Z" fill="#6EAB9C"/>
<path d="M427.431 775.592L425.92 774.318C426.103 774.102 444.239 752.415 447.326 738.803L449.248 739.235C446.052 753.322 428.187 774.696 427.431 775.592Z" fill="#6EAB9C"/>
<path d="M426.589 786.981C412.427 786.214 399.872 771.609 399.354 770.983L400.854 769.709C400.973 769.86 413.387 784.293 426.697 785.016L426.589 786.981Z" fill="#6EAB9C"/>
<path d="M471.28 796.244L469.995 794.754C471.021 793.869 495.223 773.078 507.81 772.722L507.864 774.697C495.968 775.021 471.517 796.028 471.28 796.244Z" fill="#6EAB9C"/>
<path d="M518.616 792.173C518.422 792.162 499.131 790.986 483.522 786.96L484.019 785.049C499.444 789.032 518.551 790.187 518.735 790.209L518.616 792.173Z" fill="#6EAB9C"/>
<path d="M374.85 795.057C362.101 784.456 335.222 775.993 334.952 775.907L335.535 774.028C336.657 774.374 363.062 782.697 376.113 793.545L374.85 795.057Z" fill="#6EAB9C"/>
<path d="M364.93 786.863L362.954 786.809C363.267 776.057 358.582 767.605 358.539 767.518L360.255 766.547C360.471 766.914 365.264 775.539 364.93 786.863Z" fill="#6EAB9C"/>
<path d="M941.072 150.264L594.027 156.179L587.129 150.264V36.2266H941.072L947.97 42.1421L941.072 150.264Z" fill="#B6D5D0"/>
<path d="M941.073 25.627L594.028 31.5426L587.13 25.627V0H941.073L947.971 5.91557L941.073 25.627Z" fill="#B6D5D0"/>
<path d="M947.971 42.1426H594.028V156.18H947.971V42.1426Z" fill="#DCECEB"/>
<path d="M947.971 5.91602H594.028V31.5538H947.971V5.91602Z" fill="#EDF6F5"/>
<path d="M661.776 23.5214C664.423 23.5214 666.569 21.3756 666.569 18.7285C666.569 16.0815 664.423 13.9355 661.776 13.9355C659.129 13.9355 656.983 16.0815 656.983 18.7285C656.983 21.3756 659.129 23.5214 661.776 23.5214Z" fill="#67A4C3"/>
<path d="M644.008 18.7285C644.008 21.3733 641.86 23.5214 639.215 23.5214C636.571 23.5214 634.422 21.3733 634.422 18.7285C634.422 16.0838 636.571 13.9355 639.215 13.9355C641.871 13.9355 644.008 16.0838 644.008 18.7285Z" fill="#EB908B"/>
<path d="M616.654 23.5214C619.301 23.5214 621.447 21.3756 621.447 18.7285C621.447 16.0815 619.301 13.9355 616.654 13.9355C614.007 13.9355 611.861 16.0815 611.861 18.7285C611.861 21.3756 614.007 23.5214 616.654 23.5214Z" fill="#FFAA3F"/>
<path d="M876.818 47.7012C851.644 47.7012 831.252 68.1034 831.252 93.2663C831.252 118.429 851.655 138.832 876.818 138.832C901.991 138.832 922.383 118.429 922.383 93.2663C922.383 68.1034 901.991 47.7012 876.818 47.7012ZM876.818 122.596C860.614 122.596 847.488 109.459 847.488 93.2663C847.488 77.0632 860.625 63.9367 876.818 63.9367C893.01 63.9367 906.147 77.074 906.147 93.2663C906.147 109.459 893.021 122.596 876.818 122.596Z" fill="#B2E5E0"/>
<path d="M919.857 64.9723C911.61 56.725 900.232 51.6406 887.656 51.6406C862.482 51.6406 842.091 72.0429 842.091 97.2058C842.091 100.11 842.371 102.959 842.89 105.723C846.873 126.816 865.397 142.771 887.656 142.771C895.99 142.771 903.784 140.547 910.498 136.65C924.089 128.759 933.221 114.057 933.221 97.2058C933.232 84.6081 928.126 73.2088 919.857 64.9723ZM902.359 122.585C898.03 125.1 893.01 126.535 887.656 126.535C873.331 126.535 861.392 116.259 858.834 102.668C858.499 100.908 858.326 99.0733 858.326 97.2058C858.326 81.0026 871.464 67.876 887.656 67.876C895.741 67.876 903.071 71.1469 908.382 76.4472C913.693 81.7583 916.986 89.1096 916.986 97.2058C916.996 108.055 911.102 117.522 902.359 122.585Z" fill="#3FB8A9"/>
<path d="M933.233 97.2052C933.233 114.056 924.089 128.769 910.509 136.65L902.37 122.584C911.114 117.521 916.997 108.054 916.997 97.2052C916.997 89.0982 913.705 81.7577 908.394 76.4466L919.869 64.9717C928.127 73.2082 933.233 84.6075 933.233 97.2052Z" fill="white"/>
<path d="M910.509 136.649C903.794 140.546 896 142.77 887.667 142.77C865.408 142.77 846.884 126.815 842.9 105.722L858.855 102.667C861.414 116.258 873.353 126.534 887.678 126.534C893.032 126.534 898.051 125.099 902.38 122.583L910.509 136.649Z" fill="#FFC945"/>
<path d="M771.496 64.4785H612.843V71.8838H771.496V64.4785Z" fill="white"/>
<path d="M771.496 95.0361H612.843V102.441H771.496V95.0361Z" fill="white"/>
<path d="M771.496 125.609H612.843V133.015H771.496V125.609Z" fill="white"/>
<path d="M1234.06 300.659C1234.06 300.659 1223.34 312.76 1206.64 319.41L1204.41 331.792C1204.41 331.792 1220.03 327.009 1235.43 304.729L1234.06 300.659Z" fill="#F5911F"/>
<path d="M825.211 792.192H806.482C806.482 792.192 821.584 784.624 826.528 769.112C830.09 757.929 835.92 747.199 843.163 749.854C850.406 752.51 844.437 764.827 840.594 771.768C835.099 781.667 825.211 792.192 825.211 792.192Z" fill="#408C91"/>
<path d="M461.521 551.154H458.563V431.406C458.563 421.227 466.843 412.947 477.023 412.947H489.232V415.905H477.023C468.473 415.905 461.521 422.857 461.521 431.406V551.154Z" fill="#3FB8A9"/>
<path d="M473.46 552.397H470.502V432.649C470.502 427.9 474.367 424.046 479.106 424.046H500.577V427.004H479.106C475.986 427.004 473.46 429.54 473.46 432.649V552.397Z" fill="#3FB8A9"/>
<path d="M887.832 564.454C888.275 565.652 888.512 566.85 888.577 568.027C870.981 555.926 855.836 540.446 855.836 540.446C878.019 524.718 875.062 475.126 875.062 475.126C875.062 475.126 900.095 453.267 903.549 458.556C907.004 463.845 894.676 494.158 903.549 506.604C912.412 519.05 880.513 544.3 887.832 564.454Z" fill="#4F91B3"/>
<path d="M932.264 371.019C930.192 364.866 927.137 361.455 927.137 361.455C927.137 361.455 931.627 355.895 932.275 348.976C932.275 348.976 938.255 362.782 932.264 371.019Z" fill="#DE6667"/>
<path d="M683.636 215.256C694.061 206.221 695.189 190.446 686.154 180.02C677.119 169.595 661.343 168.468 650.918 177.502C640.492 186.537 639.365 202.313 648.4 212.738C657.435 223.164 673.21 224.291 683.636 215.256Z" fill="white"/>
<path d="M827.791 172.016H716.853V179.183H827.791V172.016Z" fill="white"/>
<path d="M827.791 193.195H716.852V200.363H827.791V193.195Z" fill="white"/>
<path d="M778.243 214.181H716.852V221.348H778.243V214.181Z" fill="white"/>
<path d="M413.527 480.696H352.536V522.138H413.527V480.696Z" fill="#EB908B"/>
<path d="M374.244 510.287C372.906 510.934 371.168 511.258 369.02 511.258C366.213 511.258 364.011 510.438 362.413 508.786C360.805 507.135 360.006 504.943 360.006 502.201C360.006 499.276 360.913 496.912 362.715 495.098C364.518 493.285 366.861 492.367 369.743 492.367C371.524 492.367 373.024 492.594 374.255 493.047V497.009C373.035 496.275 371.643 495.908 370.077 495.908C368.361 495.908 366.979 496.448 365.921 497.527C364.864 498.607 364.345 500.064 364.345 501.91C364.345 503.68 364.842 505.084 365.835 506.131C366.828 507.178 368.167 507.707 369.851 507.707C371.459 507.707 372.927 507.318 374.255 506.53V510.287H374.244Z" fill="white"/>
<path d="M377.236 510.242V506.161C377.97 506.776 378.779 507.241 379.643 507.554C380.506 507.867 381.381 508.018 382.266 508.018C382.784 508.018 383.238 507.975 383.626 507.878C384.015 507.78 384.339 507.651 384.598 507.489C384.857 507.327 385.051 507.133 385.181 506.906C385.31 506.679 385.375 506.442 385.375 506.172C385.375 505.816 385.278 505.492 385.073 505.211C384.868 504.93 384.587 504.671 384.242 504.434C383.885 504.196 383.475 503.97 382.989 503.743C382.504 503.527 381.985 503.3 381.424 503.063C379.999 502.469 378.93 501.746 378.229 500.882C377.527 500.03 377.182 498.993 377.182 497.774C377.182 496.824 377.376 496.003 377.754 495.323C378.132 494.643 378.661 494.082 379.319 493.639C379.977 493.196 380.744 492.873 381.608 492.667C382.471 492.462 383.389 492.354 384.36 492.354C385.31 492.354 386.152 492.408 386.886 492.527C387.62 492.646 388.3 492.819 388.916 493.056V496.867C388.613 496.651 388.279 496.467 387.912 496.305C387.556 496.143 387.178 496.014 386.8 495.906C386.422 495.798 386.033 495.722 385.656 495.668C385.278 495.614 384.922 495.593 384.576 495.593C384.112 495.593 383.68 495.636 383.302 495.722C382.924 495.809 382.601 495.938 382.331 496.1C382.072 496.262 381.867 496.457 381.716 496.683C381.575 496.91 381.5 497.158 381.5 497.439C381.5 497.741 381.575 498.022 381.737 498.259C381.899 498.497 382.126 498.734 382.428 498.95C382.73 499.166 383.086 499.382 383.507 499.587C383.928 499.792 384.414 500.008 384.943 500.235C385.677 500.537 386.325 500.861 386.908 501.206C387.491 501.552 387.987 501.94 388.408 502.372C388.829 502.804 389.142 503.3 389.369 503.862C389.585 504.423 389.704 505.06 389.704 505.805C389.704 506.82 389.509 507.683 389.121 508.374C388.732 509.065 388.214 509.626 387.545 510.058C386.886 510.49 386.109 510.792 385.235 510.986C384.36 511.17 383.432 511.267 382.45 511.267C381.446 511.267 380.496 511.181 379.589 511.008C378.682 510.835 377.905 510.576 377.236 510.242Z" fill="white"/>
<path d="M392.51 510.242V506.161C393.244 506.776 394.053 507.241 394.917 507.554C395.78 507.867 396.655 508.018 397.54 508.018C398.058 508.018 398.511 507.975 398.9 507.878C399.289 507.78 399.613 507.651 399.872 507.489C400.131 507.327 400.325 507.133 400.455 506.906C400.584 506.679 400.649 506.442 400.649 506.172C400.649 505.816 400.552 505.492 400.347 505.211C400.142 504.93 399.861 504.671 399.515 504.434C399.159 504.196 398.749 503.97 398.263 503.743C397.777 503.527 397.259 503.3 396.698 503.063C395.273 502.469 394.204 501.746 393.503 500.882C392.801 500.03 392.456 498.993 392.456 497.774C392.456 496.824 392.65 496.003 393.028 495.323C393.405 494.643 393.934 494.082 394.593 493.639C395.251 493.196 396.018 492.873 396.881 492.667C397.745 492.462 398.663 492.354 399.634 492.354C400.584 492.354 401.426 492.408 402.16 492.527C402.894 492.646 403.574 492.819 404.19 493.056V496.867C403.887 496.651 403.553 496.467 403.186 496.305C402.829 496.143 402.452 496.014 402.074 495.906C401.696 495.798 401.307 495.722 400.93 495.668C400.552 495.614 400.195 495.593 399.85 495.593C399.386 495.593 398.954 495.636 398.576 495.722C398.198 495.809 397.875 495.938 397.605 496.1C397.346 496.262 397.141 496.457 396.989 496.683C396.849 496.91 396.774 497.158 396.774 497.439C396.774 497.741 396.849 498.022 397.011 498.259C397.173 498.497 397.4 498.734 397.702 498.95C398.004 499.166 398.36 499.382 398.781 499.587C399.202 499.792 399.688 500.008 400.217 500.235C400.951 500.537 401.599 500.861 402.182 501.206C402.765 501.552 403.261 501.94 403.682 502.372C404.103 502.804 404.416 503.3 404.643 503.862C404.859 504.423 404.978 505.06 404.978 505.805C404.978 506.82 404.783 507.683 404.395 508.374C404.006 509.065 403.488 509.626 402.819 510.058C402.16 510.49 401.383 510.792 400.509 510.986C399.634 511.17 398.706 511.267 397.723 511.267C396.72 511.267 395.77 511.181 394.863 511.008C393.956 510.835 393.179 510.576 392.51 510.242Z" fill="white"/>
<path d="M319.148 566.784H221.185V611.81H319.148V566.784Z" fill="#B2D3E4"/>
<path d="M247.708 598.791H243.228V590.706H235.003V598.791H230.534V578.95H235.003V586.863H243.228V578.95H247.708V598.791Z" fill="white"/>
<path d="M266.892 582.587H261.236V598.79H256.756V582.587H251.121V578.949H266.892V582.587Z" fill="white"/>
<path d="M292.884 598.789H288.469V586.915C288.469 585.63 288.523 584.216 288.631 582.662H288.523C288.296 583.881 288.081 584.756 287.897 585.296L283.244 598.789H279.596L274.868 585.436C274.738 585.08 274.533 584.151 274.242 582.672H274.112C274.231 584.626 274.296 586.343 274.296 587.822V598.8H270.269V578.959H276.811L280.87 590.725C281.193 591.665 281.431 592.615 281.571 593.564H281.658C281.906 592.463 282.165 591.513 282.446 590.704L286.505 578.97H292.884V598.789V598.789Z" fill="white"/>
<path d="M309.93 598.79H298.109V578.949H302.578V595.174H309.93V598.79V598.79Z" fill="white"/>
<path d="M473.061 619.753C473.061 622.343 470.956 624.448 468.365 624.448C465.774 624.448 463.669 622.343 463.669 619.753C463.669 617.162 465.774 615.057 468.365 615.057C470.966 615.057 473.061 617.162 473.061 619.753Z" fill="#B6D5D0"/>
<path d="M468.376 602.365C470.969 602.365 473.072 600.263 473.072 597.669C473.072 595.076 470.969 592.974 468.376 592.974C465.783 592.974 463.68 595.076 463.68 597.669C463.68 600.263 465.783 602.365 468.376 602.365Z" fill="#B6D5D0"/>
<path d="M468.376 580.279C470.97 580.279 473.072 578.177 473.072 575.583C473.072 572.99 470.97 570.888 468.376 570.888C465.783 570.888 463.681 572.99 463.681 575.583C463.681 578.177 465.783 580.279 468.376 580.279Z" fill="#B6D5D0"/>
<path d="M201.991 689.49H0.946777C0.946777 689.49 14.775 658.638 46.6847 671.409C46.6847 671.409 58.3863 639.499 86.0428 643.223C113.699 646.947 119.021 666.205 119.021 666.205C119.021 666.205 148.804 654.385 177.529 678.328C177.529 678.328 200.933 675.662 201.991 689.49Z" fill="#EDF6F5"/>
<path d="M932.274 380.033C932.274 380.033 932.954 375.952 936.592 373.437C940.23 370.922 963.558 360.677 969.883 371.828L932.274 380.033Z" fill="#93405E"/>
</svg>
