<svg width="1443" height="314" viewBox="0 0 1443 314" fill="none" xmlns="http://www.w3.org/2000/svg">
<path d="M304.026 93.3693L300.874 85.8778C300.874 85.8778 295.043 79.7265 298.354 74.7614C301.665 69.7909 315.698 68.6101 318.773 86.7456C318.773 86.7456 323.736 86.9049 324.604 91.7106C325.471 96.5219 321.134 99.6745 319.794 103.223C318.454 106.771 315.457 108.034 315.457 108.034L309.862 108.902L304.026 93.3693Z" fill="#0C1B3C"/>
<path d="M338 194.218C338 194.218 334.689 199.501 333.899 202.341C333.108 205.18 332.4 206.048 333.031 206.597C333.663 207.152 335.238 204.313 336.342 202.89C337.446 201.468 337.605 206.674 337.605 208.569C337.605 210.464 336.693 213.853 337.72 213.93C338.747 214.007 341.388 209.591 342.332 207.778C343.276 205.966 342.854 194.218 342.854 194.218H338V194.218Z" fill="#E9928B"/>
<path d="M329.446 299.924L327.08 301.698C327.08 301.698 325.306 308.558 326.135 311.216H354.158C354.158 311.216 351.44 307.311 345.879 305.57C340.322 303.823 338.664 303.236 337.841 301.698C337.012 300.16 329.446 299.924 329.446 299.924Z" fill="#FFAB40"/>
<path d="M284.87 298.979L286.879 301.697C286.879 301.697 289.361 307.728 288.296 311.215H264.885C264.885 311.215 265.242 307.31 269.14 305.569C273.043 303.823 276.469 301.697 276.469 301.697L284.87 298.979Z" fill="#FFAB40"/>
<path d="M354.158 311.222H326.135V314.001H354.158V311.222Z" fill="white"/>
<path d="M288.301 311.222H264.89V314.001H288.301V311.222Z" fill="white"/>
<path d="M337.841 301.698H327.08L326.333 296.672L325.548 291.405L337.012 289.752L337.495 296.672L337.841 301.698Z" fill="#E9928B"/>
<path d="M288.301 291.646L287.593 296.671L286.879 301.696H276.475L277.128 296.671L277.776 291.646H288.301Z" fill="#E9928B"/>
<path d="M277.776 291.646H288.301L287.593 296.671H277.128L277.776 291.646Z" fill="#DE6667"/>
<path d="M337.495 296.672H326.333L325.548 291.405L337.012 289.752L337.495 296.672Z" fill="#DE6667"/>
<path d="M340.443 294.129H323.654C323.654 294.129 310.647 247.763 309.231 241.134C307.814 234.516 302.922 219.923 302.922 219.923L290.311 294.123H275.503C275.503 294.123 274.883 258.402 275.503 246.571C275.997 237.124 278.512 207.005 281.071 192.005C281.718 188.221 282.366 185.403 282.981 184.118C286.056 177.731 323.654 191.45 323.654 191.45C323.654 191.45 323.912 192.906 324.357 195.432C325.795 203.572 329.199 222.79 332.329 239.947C336.419 262.427 340.443 294.129 340.443 294.129Z" fill="#5F6386"/>
<path d="M302.922 219.928L297.283 199.979C297.283 199.979 291.491 211.019 293.144 219.928C294.802 228.836 288.076 232.115 292.847 241.611C297.618 251.113 290.75 258.363 295.378 264.3L302.922 219.928Z" fill="#4A4E73"/>
<path d="M324.356 195.444C319.915 196.399 314.452 196.399 307.83 194.559C292.809 190.391 284.87 191.006 281.065 192.011C281.713 188.227 282.361 185.409 282.976 184.124C286.05 177.737 323.648 191.456 323.648 191.456C323.648 191.456 323.912 192.917 324.356 195.444Z" fill="#4A4E73"/>
<path d="M266.07 103.221C266.07 103.221 265.126 98.3165 267.251 95.7846C269.376 93.2526 274.443 97.1906 274.443 97.1906C274.443 97.1906 277.726 100.722 276.035 104.039C274.344 107.362 266.07 103.221 266.07 103.221Z" fill="#E9928B"/>
<path d="M330.797 143.998C328.738 155.938 325.361 169.229 325.784 175.139C326.569 186.179 327.047 190.281 327.678 192.33C328.304 194.384 318.378 196.114 307.655 192.33C302.488 190.501 295.922 189.375 290.519 188.694C284.705 187.969 280.225 187.76 280.225 187.76C280.225 187.76 283.223 171.827 284.167 163.468C285.117 155.109 284.112 145.492 284.112 145.492C284.112 145.492 284.107 145.497 284.096 145.508C283.635 145.865 271.907 154.834 265.873 149.023C265 148.183 264.341 147.013 263.853 145.601C259.894 134.117 267.46 106.381 267.46 106.381L276.448 107.644C276.448 107.644 275.185 129.251 275.975 129.41C276.761 129.569 285.276 121.842 289.377 118.843C291.672 117.162 295.538 116.174 299.611 115.734C302.807 115.399 306.129 115.405 308.923 115.685C308.923 115.685 313.068 115.778 318.054 116.849C322.029 117.695 326.531 119.161 329.891 121.677C333.394 124.313 332.592 133.645 330.797 143.998Z" fill="#7DC4BE"/>
<g opacity="0.65">
<path opacity="0.65" d="M327.673 192.329C328.299 194.383 318.372 196.113 307.65 192.329C302.483 190.5 295.917 189.374 290.514 188.693C292.496 186.221 295.884 183.717 302.922 181.635C320.184 176.522 303.707 167.734 313.612 161.978C323.517 156.228 324.357 138.625 324.357 138.625L330.792 143.991C328.733 155.931 325.356 169.223 325.779 175.132C326.569 186.177 327.042 190.275 327.673 192.329Z" fill="#379690"/>
</g>
<path d="M318.042 116.848C313.672 125.026 301.291 132.177 301.291 132.177C299.156 125.998 299.392 118.649 299.6 115.727C302.796 115.392 306.117 115.398 308.912 115.678C308.912 115.683 313.057 115.777 318.042 116.848Z" fill="white"/>
<path d="M323.89 121.045C326.048 118.645 330.511 120.732 336.029 128.773C341.547 136.813 346.274 154.636 347.224 160.787C348.168 166.939 346.752 188.073 343.754 197.218L335.7 196.586C335.7 196.586 333.663 166.307 333.35 164.258C333.037 162.21 326.569 145.963 323.89 137.132C321.211 128.3 321.051 124.197 323.89 121.045Z" fill="#7DC4BE"/>
<path d="M315.451 116.864C315.451 118.051 313.717 120.094 309.461 120.885C305.206 121.67 300.001 118.6 301.577 116.546C302.165 115.777 302.527 114.25 302.741 112.635C303.104 109.938 303.076 107.006 303.076 107.006C303.076 107.006 312.294 98.4101 312.218 102.826C312.135 107.242 315.446 108.033 315.446 108.033C314.353 112.921 315.451 115.683 315.451 116.864Z" fill="#E9928B"/>
<path d="M312.223 102.826C309.763 109.027 305.898 111.597 302.741 112.635C303.104 109.938 303.076 107.005 303.076 107.005C303.076 107.005 312.3 98.4154 312.223 102.826Z" fill="#DE6667"/>
<path d="M278.061 98.186L261.64 119.331C261.415 119.622 261.085 119.798 260.745 119.842C260.404 119.886 260.042 119.798 259.751 119.568C257.324 117.678 256.885 114.18 258.768 111.752L272.599 93.9404L278.061 98.186Z" fill="#8FB9CF"/>
<path d="M278.062 98.1856L261.64 119.331C261.415 119.622 261.085 119.798 260.745 119.842C259.619 117.936 259.707 115.453 261.146 113.603L274.976 95.791L278.062 98.1856Z" fill="#7A9DB0"/>
<path d="M285.413 96.6913C282.998 99.7999 280.379 101.805 279.561 101.173C278.743 100.536 280.038 97.5041 282.454 94.39C284.87 91.2813 287.489 89.2767 288.307 89.9083C289.125 90.5399 287.829 93.5826 285.413 96.6913Z" fill="#8FB9CF"/>
<path d="M278.147 81.9785L269.386 93.2598L279.566 101.171L288.327 89.8902L278.147 81.9785Z" fill="#8FB9CF"/>
<path d="M282.871 95.6645L276.92 91.04C276.585 90.7819 276.524 90.304 276.788 89.969C277.046 89.634 277.524 89.5736 277.858 89.8372L283.81 94.4617C284.145 94.7198 284.205 95.1977 283.942 95.5327C283.684 95.8622 283.201 95.9226 282.871 95.6645Z" fill="#7A9DB0"/>
<path d="M285.078 92.3364L279.127 87.7119C278.792 87.4538 278.731 86.9759 278.995 86.6409C279.253 86.3059 279.731 86.2454 280.066 86.5091L286.017 91.1336C286.352 91.3917 286.412 91.8696 286.149 92.2046C285.891 92.5341 285.408 92.5945 285.078 92.3364Z" fill="#7A9DB0"/>
<path d="M280.231 98.5757L274.279 93.9512C273.944 93.693 273.884 93.2152 274.147 92.8801C274.405 92.5451 274.883 92.4847 275.218 92.7483L281.169 97.3729C281.504 97.631 281.565 98.1088 281.301 98.4439C281.043 98.7734 280.56 98.8338 280.231 98.5757Z" fill="#7A9DB0"/>
<path d="M275.234 88.7779L275.223 88.7944C274.877 89.2448 274.526 89.6677 274.175 90.0631C273.768 90.519 273.373 90.9364 272.983 91.3154C271.363 92.8807 269.941 93.6936 269.381 93.2597L269.365 93.2816L225.733 77.1233L251.702 43.6807L278.144 81.9785L278.128 82.0005C278.616 82.3794 278.347 83.6262 277.535 85.2299C277.364 85.565 277.172 85.9165 276.953 86.2789C276.728 86.6579 276.48 87.0479 276.206 87.4433C275.904 87.8827 275.58 88.3331 275.234 88.7779Z" fill="#B2D3E4"/>
<path opacity="0.15" d="M275.235 88.7774L275.224 88.7939L239.629 62.0573L244.038 56.3838L276.206 87.4537C275.904 87.8821 275.58 88.3325 275.235 88.7774Z" fill="white"/>
<path opacity="0.15" d="M274.168 90.063C273.762 90.5189 273.367 90.9363 272.977 91.3153L231.173 70.2029L237.69 65.5234L274.168 90.063Z" fill="white"/>
<path opacity="0.15" d="M276.952 86.2787L245.663 52.523L247.749 50.6172L277.534 85.2242C277.364 85.5592 277.166 85.9162 276.952 86.2787Z" fill="white"/>
<path d="M243.11 63.8144C241.089 66.4178 239.02 68.7575 237.038 70.7347H237.032C231.975 75.7821 227.468 78.4733 225.727 77.1167C223.301 75.2274 227.144 66.2145 234.314 56.982C241.485 47.7494 249.27 41.7903 251.697 43.6796C253.443 45.0362 251.949 50.0672 248.309 56.2185C246.887 58.6297 245.13 61.2165 243.11 63.8144Z" fill="#8FB9CF"/>
<path d="M242.824 84.8327C242.512 84.5911 242.457 84.1352 242.698 83.8222C242.94 83.5091 243.396 83.4542 243.708 83.6958C244.323 84.1737 246.931 83.3004 251.318 78.923L251.67 78.5715C253.086 77.1271 254.492 75.5123 255.859 73.7548C257.341 71.8489 258.648 69.9376 259.746 68.0758C262.903 62.7427 263.1 59.9966 262.486 59.5187C262.173 59.2771 262.118 58.8212 262.359 58.5082C262.601 58.1951 263.057 58.1402 263.37 58.3818C265.708 60.1998 262.48 66.2743 260.987 68.8007C259.856 70.712 258.516 72.6728 257.001 74.6281C255.485 76.5778 253.921 78.3628 252.345 79.9336L251.889 80.3785C249.589 82.6029 245.01 86.5244 242.824 84.8327Z" fill="#8FB9CF"/>
<path d="M243.11 63.8144C241.089 66.4177 239.019 68.7575 237.037 70.7347H237.032C234.446 67.3899 234.336 62.6006 237.048 59.1075C239.761 55.6144 244.427 54.5379 248.309 56.213C246.887 58.6297 245.13 61.2165 243.11 63.8144Z" fill="#7A9DB0"/>
<path opacity="0.15" d="M242.347 61.4796C241.628 62.4078 240.535 62.7648 239.909 62.276C239.284 61.7872 239.36 60.6448 240.08 59.7166C240.799 58.7884 241.891 58.4314 242.517 58.9202C243.143 59.4035 243.066 60.5514 242.347 61.4796Z" fill="white"/>
<path d="M276.437 107.638C276.437 107.638 276.124 100.992 274.175 98.7348C272.22 96.4774 270.584 96.8894 270.919 98.7348C271.259 100.58 272.747 103.821 271.303 106.891L276.437 107.638Z" fill="#E9928B"/>
<path d="M274.136 288.226V294.756H290.668L292.167 288.226H274.136Z" fill="#4A4E73"/>
<path d="M322.896 294.756H341.591L341.047 288.226H320.919L322.896 294.756Z" fill="#4A4E73"/>
<path d="M335.085 305.179L334.629 305.026C334.651 304.96 335.183 303.466 338.368 302.296L338.533 302.746C335.601 303.823 335.09 305.163 335.085 305.179Z" fill="white"/>
<path d="M338.687 306.981L338.226 306.86C338.253 306.761 338.89 304.443 341.531 303.713L341.657 304.174C339.285 304.828 338.709 306.893 338.687 306.981Z" fill="white"/>
<path d="M343.073 306.943L342.596 306.899C342.601 306.844 342.727 305.499 343.6 304.587L343.946 304.916C343.194 305.707 343.073 306.932 343.073 306.943Z" fill="white"/>
<path d="M280.098 303.548C277.694 302.62 275.25 302.681 275.228 302.681L275.212 302.203C275.322 302.197 277.776 302.137 280.269 303.104L280.098 303.548Z" fill="white"/>
<path d="M277.337 305.317C274.74 304.169 272.78 304.037 272.764 304.032L272.791 303.554C272.874 303.559 274.845 303.691 277.529 304.877L277.337 305.317Z" fill="white"/>
<path d="M273.159 306.179C272.423 305.514 270.43 305.207 270.408 305.207L270.48 304.734C270.567 304.745 272.632 305.069 273.477 305.827L273.159 306.179Z" fill="white"/>
<g opacity="0.65">
<path opacity="0.65" d="M286.308 133.14C284.644 137.457 284.101 145.492 284.101 145.492C284.101 145.492 284.095 145.497 284.084 145.508C283.623 145.865 271.896 154.834 265.862 149.023C264.989 148.183 264.33 147.013 263.841 145.602C267.179 146.063 270.034 149.578 273.988 145.497C280.126 139.148 286.308 133.14 286.308 133.14Z" fill="#379690"/>
</g>
<path d="M300.874 85.8779C300.874 85.8779 294.329 103.854 299.298 107.485C304.267 111.11 312.228 102.833 312.228 102.833C312.228 102.833 315.616 102.992 317.433 100.229C319.245 97.4722 316.093 96.2584 314.677 97.1426C313.26 98.0214 311.602 96.6813 312.706 93.2925C313.809 89.9038 313.178 89.7445 311.048 90.2169C308.912 90.6837 301.11 86.8226 300.874 85.8779Z" fill="#E9928B"/>
<path d="M337.132 288.318C330.17 236.295 318.635 196.657 318.52 196.262L319.898 195.855C320.013 196.251 331.582 235.999 338.554 288.126L337.132 288.318Z" fill="#4A4E73"/>
<path d="M560.542 101.439C560.542 101.439 558.487 94.5821 558.487 92.3855C558.487 90.1889 560.496 84.0183 561.617 83.882C562.738 83.7457 564.928 95.8141 565.892 97.4603C566.852 99.1065 565.07 101.439 565.07 101.439H560.542Z" fill="#91415C"/>
<path d="M458.162 253.441L450.873 245.407L453.669 242.539L459.328 236.737L466.309 244.428L460.857 250.457L458.162 253.441Z" fill="#91415C"/>
<path d="M460.857 250.457L453.669 242.539L459.328 236.737L466.309 244.428L460.857 250.457Z" fill="#75354A"/>
<path d="M450.873 245.407L458.162 253.436C458.162 253.436 457.763 260.379 460.872 264.631C463.987 268.883 464.82 271.852 463.396 275.003L441.716 251.113L450.873 245.407Z" fill="#FDAB3F"/>
<path d="M458.091 256.315C456.405 255.093 452.443 253.992 452.402 253.982L452.518 253.558C452.685 253.603 456.597 254.689 458.349 255.956L458.091 256.315Z" fill="white"/>
<path d="M458.414 258.638C456.41 257.795 453.286 258.133 453.256 258.138L453.205 257.699C453.336 257.684 456.481 257.345 458.586 258.234L458.414 258.638Z" fill="white"/>
<path d="M455.062 261.834L454.9 261.425C454.986 261.39 457.036 260.597 459.004 260.471L459.029 260.91C457.137 261.031 455.082 261.829 455.062 261.834Z" fill="white"/>
<path d="M441.734 251.102L440 252.677L461.682 276.567L463.416 274.992L441.734 251.102Z" fill="#DCECEB"/>
<path d="M513.512 181.955C513.512 181.955 513.376 182.707 513.123 183.995C512.593 186.732 511.543 191.898 510.195 197.432C508.454 204.547 506.213 212.273 503.911 216.247C501.246 220.842 490.277 230.537 480.757 238.48C472.66 245.231 465.613 250.715 465.613 250.715L450.874 235.587C450.874 235.587 481.372 208.087 482.195 206.991C483.018 205.89 486.637 189.913 488.01 177.294C488.606 171.831 490.277 166.009 491.983 161.161C494.214 154.814 496.506 150.138 496.506 150.138L510.766 155.349L510.907 156.687L512.29 170.099L513.512 181.955Z" fill="#489DA2"/>
<path d="M513.122 183.995C512.592 186.732 511.542 191.898 510.195 197.432C508.453 204.547 506.212 212.273 503.91 216.247C501.245 220.842 490.276 230.537 480.756 238.48C483.037 226.063 497.722 227.179 495.546 218.1C493.285 208.637 502.744 204.931 498.973 192.59C495.203 180.243 501.305 172.018 501.305 172.018C501.305 172.018 506.838 177.542 513.122 183.995Z" fill="#408C91"/>
<path d="M543.142 85.3924C543.142 85.3924 540.648 87.3113 538.866 91.2954C538.169 92.8507 537.584 94.719 537.296 96.9105C536.266 104.727 522.693 96.2945 522.693 96.2945L529.275 82.5091L534.666 79.6309L538.866 82.4889L543.142 85.3924Z" fill="#91415C"/>
<path d="M522.698 94.34C522.698 94.34 523.773 90.9871 525.293 90.8608C526.812 90.7397 537.917 92.3606 538.432 94.9409C538.947 97.5263 538.432 99.1725 538.432 99.1725L522.698 94.34Z" fill="#F5911F"/>
<path d="M564.792 106.242L565.888 101.167C565.888 101.167 560.815 99.8489 558.896 100.096C556.978 100.344 555.196 106.242 555.196 106.242H564.792Z" fill="#F5911F"/>
<path d="M536.272 132.712C536.272 132.712 543.379 134.62 558.402 121.123C573.424 107.625 545.939 112.958 545.939 112.958L536.272 132.712Z" fill="#F5911F"/>
<path d="M562.192 257.184H516.409V258.507H562.192V257.184Z" fill="#040707"/>
<path d="M534.198 307.341L520.26 243.237L506.323 307.341L505.031 307.059L519.614 239.985C519.68 239.682 519.948 239.465 520.26 239.465C520.573 239.465 520.841 239.682 520.907 239.985L535.49 307.059L534.198 307.341Z" fill="#040707"/>
<path d="M534.546 269.409H523.703L523.461 265.41L522.971 257.32H533.35L534.152 265.41L534.546 269.409Z" fill="#91415C"/>
<path d="M534.152 265.41H523.461L522.971 257.32H533.35L534.152 265.41Z" fill="#75354A"/>
<path d="M523.703 269.409H534.546C534.546 269.409 539.417 274.373 544.657 274.923C549.896 275.474 552.652 276.852 554.03 280.023H521.775L523.703 269.409Z" fill="#FDAB3F"/>
<path d="M531.078 274.039L530.841 273.665C530.987 273.574 534.42 271.403 536.535 270.964L536.626 271.393C534.596 271.822 531.113 274.019 531.078 274.039Z" fill="white"/>
<path d="M534.728 276.201L534.369 275.944C534.445 275.838 536.307 273.283 538.382 272.318L538.569 272.717C536.595 273.631 534.743 276.176 534.728 276.201Z" fill="white"/>
<path d="M538.68 277.346L538.266 277.19C538.301 277.104 539.089 275.049 540.316 273.514L540.659 273.791C539.478 275.266 538.685 277.326 538.68 277.346Z" fill="white"/>
<path d="M554.03 280.028H521.775V282.371H554.03V280.028Z" fill="#DCECEB"/>
<path d="M580.112 307.341L566.17 243.237L552.228 307.341L550.936 307.059L565.519 239.985C565.585 239.682 565.852 239.465 566.165 239.465C566.478 239.465 566.746 239.682 566.811 239.985L581.395 307.059L580.112 307.341Z" fill="#040707"/>
<path d="M556.983 281.71H511.073V283.033H556.983V281.71Z" fill="#040707"/>
<path d="M541.053 263.683H518.842C518.842 263.683 519.276 226.664 519.276 220.08C519.276 215.399 514.839 207.668 510.2 197.427C508.317 193.266 506.404 188.691 504.739 183.733C502.417 176.81 501.028 170.851 500.201 166.201C498.979 159.338 498.979 155.339 498.979 155.339L510.912 156.677L528.322 158.631C528.322 158.631 530.23 165.377 532.597 174.088C536.373 188 541.315 206.915 541.482 211.303C541.754 218.438 541.053 263.683 541.053 263.683Z" fill="#489DA2"/>
<path d="M532.597 174.093C527.782 172.063 522.825 170.119 517.898 170.366C515.99 170.462 514.107 170.356 512.285 170.094C507.802 169.463 503.653 167.917 500.19 166.206C496.566 164.418 493.694 162.444 491.978 161.156C494.209 154.809 496.5 150.133 496.5 150.133L510.76 155.344L510.902 156.682L528.312 158.636C528.322 158.636 530.23 165.383 532.597 174.093Z" fill="#408C91"/>
<path d="M601.676 104.939C601.676 104.939 583.166 123.047 577.82 124.279C572.475 125.511 552.728 119.134 549.437 119.341C547.947 119.437 544.808 129.9 541.83 141.332C538.22 155.147 534.833 170.367 534.833 170.367C534.833 170.367 525.581 166.666 510.563 165.635C508.352 165.484 506.354 165.156 504.551 164.701C494.092 162.081 490.206 155.349 490.206 155.349C505.016 134.156 505.218 115.639 508.307 104.121C511.391 92.5982 523.733 91.7752 532.986 94.6585C537.085 95.936 545.944 97.5367 550.057 98.9809C554.171 100.42 575.357 108.651 576.796 108.651C578.234 108.651 595.715 98.7739 595.715 98.7739C601.262 98.7638 601.676 104.939 601.676 104.939Z" fill="#FFAB40"/>
<path d="M596.053 100.06C596.053 100.06 599.617 96.9093 602.636 95.6772C605.654 94.4451 609.763 91.9102 609.763 93.2433C609.763 94.5764 606.063 96.4649 606.063 96.4649L617.34 95.4398C617.34 95.4398 612.368 100.479 608.395 101.439C604.417 102.398 599.344 104.181 599.344 104.181L596.053 100.06Z" fill="#91415C"/>
<path d="M628.689 54.8424L560.788 60.5068L564.069 99.8714L631.971 94.207L628.689 54.8424Z" fill="#3FB8A9"/>
<path d="M624.931 59.2852L565.229 64.2656L567.826 95.4282L627.529 90.4477L624.931 59.2852Z" fill="white"/>
<path d="M574.176 95.3601L585.791 70.708L601.323 93.0928L574.176 95.3601Z" fill="#3FB8A9"/>
<path d="M600.092 93.244L609.072 74.1768L621.086 91.4918L600.092 93.244Z" fill="#3FB8A9"/>
<path d="M597.915 73.3291C600.151 73.2189 601.874 71.3164 601.764 69.0797C601.654 66.843 599.752 65.119 597.516 65.2292C595.28 65.3394 593.557 67.2419 593.667 69.4787C593.777 71.7154 595.679 73.4393 597.915 73.3291Z" fill="#3FB8A9"/>
<path d="M535.505 263.849H534.182C534.182 263.45 534.233 224.098 534.006 214.615C533.779 205.253 517.454 167.27 517.292 166.886L518.504 166.361C519.18 167.932 535.096 204.96 535.328 214.58C535.561 224.083 535.505 263.45 535.505 263.849Z" fill="#408C91"/>
<path d="M541.829 141.325C538.22 155.141 534.833 170.36 534.833 170.36C534.833 170.36 525.58 166.659 510.563 165.629C508.352 165.477 506.353 165.149 504.551 164.695C504.895 164.311 505.268 163.937 505.677 163.574C518.064 152.465 522.698 159.872 528.761 151.849C533.288 145.85 537.685 145.516 541.829 141.325Z" fill="#F5911F"/>
<path d="M548.609 66.4611L550.87 64.0929C550.87 64.0929 551.077 59.8765 546.827 54.3876C542.577 48.8987 540.108 50.9589 542.026 54.3876C543.945 57.8162 538.185 56.0337 533.046 55.347C527.908 54.6603 523.657 55.3874 526.191 58.7302C528.73 62.068 526.535 62.2043 520.225 64.815C513.915 67.4256 514.879 71.2633 520.225 71.6723C525.571 72.0813 522.012 75.2373 517.898 79.6254C513.779 84.0135 516.934 86.4827 521.462 84.0135C525.984 81.5442 526.949 84.2862 525.439 88.1289C523.93 91.9716 529.281 88.6793 531.744 85.9323C534.212 83.1904 533.526 87.9875 537.297 81.9533C541.072 75.9291 548.609 66.4611 548.609 66.4611Z" fill="#0C1B3C"/>
<path d="M543.142 85.392C543.142 85.392 540.648 87.3108 538.867 91.2949C535.863 88.1036 537.589 82.6197 537.589 82.6197L538.867 82.4834L543.142 85.392Z" fill="#75354A"/>
<path d="M550.876 64.0982C550.876 64.0982 550.189 71.0616 551.491 74.6266C552.794 78.1916 554.096 78.3279 552.521 79.7014C550.946 81.0749 549.917 80.7971 549.573 82.3777C549.23 83.9531 549.917 89.3713 545.939 89.235C541.961 89.0987 537.711 83.4078 537.302 81.9636C537.302 81.9636 533.123 80.5901 533.052 77.0958C532.981 73.5965 536.414 72.43 537.782 74.0762C539.155 75.7223 540.659 73.5965 540.73 70.9909C540.8 68.3853 542.446 64.684 545.252 64.8859C548.064 65.093 549.366 62.2804 550.876 64.0982Z" fill="#91415C"/>
<path d="M1212.48 309.944C1212.48 309.944 1212.53 279.185 1178.86 294.144C1178.86 294.144 1171.46 267.665 1152.07 268.917C1132.68 270.169 1130.8 295.227 1130.8 295.227C1130.8 295.227 1104.25 281.725 1090 309.108L1212.48 309.944Z" fill="#ADCCC7"/>
<path d="M1155.76 308.852L1154.93 308.738C1157.18 292.719 1148.55 281.232 1148.46 281.117L1149.13 280.61C1149.21 280.725 1158.05 292.491 1155.76 308.852Z" fill="#6EAB9C"/>
<path d="M1156.06 299.022L1155.39 298.529C1155.46 298.419 1163.34 287.585 1164.68 280.774L1165.5 280.934C1164.13 287.932 1156.39 298.575 1156.06 299.022Z" fill="#6EAB9C"/>
<path d="M1155.69 304.7C1149.54 304.316 1144.1 297.035 1143.87 296.725L1144.54 296.231C1144.6 296.305 1149.98 303.508 1155.74 303.869L1155.69 304.7Z" fill="#6EAB9C"/>
<path d="M1175.41 308.742L1176.53 307.938C1176.64 307.861 1187.3 300.306 1198.71 299.771L1198.75 300.603C1189.81 301.018 1181.33 305.856 1178.24 307.806L1189.31 307.422L1189.34 308.254L1175.41 308.742Z" fill="#6EAB9C"/>
<path d="M1184.18 304.417L1183.39 304.147C1185.14 299.036 1188.84 294.204 1189 293.998L1189.66 294.505C1189.62 294.555 1185.89 299.438 1184.18 304.417Z" fill="#6EAB9C"/>
<path d="M1130.61 308.596C1130.53 308.527 1122.26 301.58 1113.04 298.341L1113.31 297.556C1122.68 300.844 1131.06 307.888 1131.15 307.956L1130.61 308.596Z" fill="#6EAB9C"/>
<path d="M1109.11 306.162L1108.73 305.417C1108.97 305.294 1114.8 302.375 1125.51 303.869L1125.4 304.695C1114.96 303.247 1109.16 306.134 1109.11 306.162Z" fill="#6EAB9C"/>
<path d="M231.479 309.944C231.479 309.944 231.53 279.185 197.86 294.144C197.86 294.144 190.458 267.665 171.071 268.917C151.679 270.169 149.802 295.227 149.802 295.227C149.802 295.227 123.246 281.725 109 309.108L231.479 309.944Z" fill="#ADCCC7"/>
<path d="M174.76 308.852L173.933 308.738C176.175 292.719 167.55 281.232 167.463 281.117L168.125 280.61C168.212 280.725 177.047 292.491 174.76 308.852Z" fill="#6EAB9C"/>
<path d="M175.062 299.022L174.386 298.529C174.463 298.419 182.34 287.585 183.682 280.774L184.5 280.934C183.125 287.932 175.39 298.575 175.062 299.022Z" fill="#6EAB9C"/>
<path d="M174.687 304.7C168.537 304.316 163.098 297.035 162.87 296.725L163.541 296.231C163.596 296.305 168.979 303.508 174.737 303.869L174.687 304.7Z" fill="#6EAB9C"/>
<path d="M194.413 308.742L195.531 307.938C195.636 307.861 206.298 300.306 217.709 299.771L217.75 300.603C208.814 301.018 200.326 305.856 197.239 307.806L208.312 307.422L208.339 308.254L194.413 308.742Z" fill="#6EAB9C"/>
<path d="M203.179 304.417L202.389 304.147C204.143 299.036 207.841 294.204 207.996 293.998L208.658 294.505C208.622 294.555 204.887 299.438 203.179 304.417Z" fill="#6EAB9C"/>
<path d="M149.61 308.596C149.528 308.527 141.259 301.58 132.036 298.341L132.31 297.556C141.684 300.844 150.062 307.888 150.149 307.956L149.61 308.596Z" fill="#6EAB9C"/>
<path d="M128.109 306.162L127.73 305.417C127.972 305.294 133.798 302.375 144.515 303.869L144.401 304.695C133.963 303.247 128.164 306.134 128.109 306.162Z" fill="#6EAB9C"/>
<path d="M1190 42H1245.27V61.0425H1235.42L1240.56 73.1513L1222.19 61.0425H1190V42Z" fill="#EB908B"/>
<path d="M1239.53 47.5635H1196.56V49.6646H1239.53V47.5635Z" fill="white"/>
<path d="M1239.53 53.4004H1196.56V55.5015H1239.53V53.4004Z" fill="white"/>
<path d="M1443 308H0V314H1443V308Z" fill="#AECBC7"/>
<path d="M1371.14 132.245C1370.72 132.797 1370.22 133.213 1369.68 133.51C1365.17 135.99 1357.08 130.591 1353.38 130.765C1349.23 130.966 1347.26 136.392 1337.49 132.542C1327.72 128.691 1329.99 113.495 1330.59 107.767C1331.18 102.043 1327.63 99.1796 1321.51 99.376C1315.39 99.5769 1308.94 96.2197 1311.72 86.5455C1314.5 76.8758 1306.66 71.8011 1301.97 73.5185C1297.29 75.236 1299.8 67.0051 1299.8 67.0051C1299.8 67.0051 1303.81 61.3001 1311.72 62.1268C1314.2 62.3872 1315.99 63.2048 1317.35 64.3375C1317.35 64.3375 1317.36 64.3376 1317.36 64.3467C1317.68 64.6116 1317.97 64.8948 1318.25 65.1872C1318.25 65.1963 1318.26 65.2008 1318.27 65.21C1320.55 67.6902 1321.45 71.1571 1322.9 73.8109C1325.27 78.1547 1329.21 77.8578 1335.33 75.985C1341.45 74.1077 1353.78 74.9756 1356.44 85.2026C1359.11 95.4295 1352.01 107.374 1364.74 110.338C1377.46 113.289 1375.09 127.111 1371.14 132.245Z" fill="#0C1B3C"/>
<path d="M1300.28 66.1873C1300.28 66.1873 1303.97 68.6218 1303.55 73.5595C1303.55 73.5595 1303.55 74.9846 1301.93 74.2538C1300.31 73.523 1298.99 68.1742 1299.13 67.0231C1299.28 65.8675 1299.87 66.0502 1300.28 66.1873Z" fill="#3FB8A9"/>
<path d="M1298.72 88.2214C1293.07 93.1544 1290.29 92.8118 1288.64 90.391C1288.03 89.4912 1286.32 87.2576 1284.41 84.8139C1281.22 80.6985 1277.48 75.9846 1277.48 75.9846C1277.48 75.9846 1271.56 75.6101 1271.43 71.0287C1271.41 70.1517 1271.57 69.2748 1271.92 68.4252C1273.38 64.8259 1278.01 61.7108 1284.45 61.1809C1292.42 60.5232 1299.65 64.4742 1301.76 70.001C1303.85 75.5233 1304.38 83.2883 1298.72 88.2214Z" fill="#0C1B3C"/>
<g opacity="0.52">
<path opacity="0.52" d="M1284.41 84.814C1281.22 80.6986 1277.48 75.9847 1277.48 75.9847C1277.48 75.9847 1271.56 75.6102 1271.43 71.0289C1271.41 70.1519 1271.57 69.2749 1271.92 68.4253C1273.1 66.5846 1275.31 64.9996 1279.45 65.5203C1288.33 66.6394 1284.21 81.4797 1286.4 83.0418C1287.2 83.6173 1286.12 84.2477 1284.41 84.814Z" fill="#1B5175"/>
</g>
<path d="M1252.95 176.167C1252.95 176.167 1249.81 177.09 1248.26 178.254C1246.72 179.419 1242.97 181.228 1242.89 181.835C1242.82 182.443 1246.05 181.497 1247.31 181.004C1248.58 180.511 1248.38 181.726 1246.8 183.224C1245.22 184.722 1244.58 185.38 1242.76 186.764C1240.94 188.152 1240.73 188.774 1241.43 189.025C1242.13 189.276 1242.78 188.819 1242.78 188.819C1242.78 188.819 1241.14 190.062 1241.79 190.756C1242.44 191.45 1244.44 189.975 1244.44 189.975C1244.44 189.975 1243.87 190.975 1245.25 190.943C1246.63 190.911 1247.1 190.29 1248.73 189.81C1250.36 189.331 1255.27 184.147 1256.41 182.342C1257.56 180.538 1258.13 178.976 1258.13 178.976L1252.95 176.167Z" fill="#FFAC95"/>
<path d="M1286.8 133.51C1286.8 133.51 1289.81 148.546 1282.46 156.965C1275.1 165.383 1258.34 180.78 1258.34 180.78L1252.17 175.943C1252.17 175.943 1267.27 155.955 1269.34 148.282C1269.78 146.646 1270.2 143.504 1270.2 143.504L1286.8 133.51Z" fill="#F5911F"/>
<path d="M1265.5 173.97C1265.5 173.97 1265.03 172.234 1265.72 170.713C1266.42 169.192 1269.72 173.746 1269.72 173.746L1270.59 177.537L1265.5 173.97Z" fill="#FFAC95"/>
<path d="M1346.95 277.194C1349.77 280.227 1355.75 291.646 1355.75 291.646L1351.32 294.866C1351.32 294.866 1346.25 287.243 1345.2 287.7C1344.15 288.156 1345.18 299.329 1343.77 300.352C1342.36 301.375 1333 308.181 1333 308.181C1333 308.181 1332.6 304.244 1334.42 300.608C1336.04 297.392 1337.7 290.76 1333.48 280.761C1332.93 279.464 1332.28 278.112 1331.53 276.705L1341.25 267.639C1341.25 267.639 1342.45 270.343 1344.06 273.074C1344.94 274.591 1345.95 276.116 1346.95 277.194Z" fill="#1B5175"/>
<path d="M1331.53 276.71L1341.25 267.644C1341.25 267.644 1342.45 270.348 1344.06 273.079L1333.48 280.762C1332.93 279.469 1332.28 278.117 1331.53 276.71Z" fill="#E9928B"/>
<path d="M1349.13 265.459L1327.55 280.204C1327.55 280.204 1316.27 266.322 1306.26 253.565C1299.58 245.046 1293.47 237.035 1291.68 233.974C1288.07 227.808 1282.91 203.435 1281.06 194.295C1280.62 192.121 1280.37 190.806 1280.37 190.806L1283.01 183.383L1288.14 168.972L1288.52 167.903C1288.52 167.903 1292.23 165.994 1296.35 164.971C1297.45 164.697 1298.58 164.487 1299.67 164.391C1303.03 164.103 1306.1 164.902 1307.06 168.324C1307.11 168.525 1307.16 168.735 1307.2 168.954C1307.39 169.977 1307.6 171.288 1307.82 172.809C1309.68 185.763 1312.3 214.338 1313.12 217.549C1314.05 221.139 1349.13 265.459 1349.13 265.459Z" fill="#5F6386"/>
<path d="M1306.26 253.565C1299.58 245.046 1293.47 237.035 1291.68 233.975C1288.07 227.808 1282.91 203.435 1281.06 194.295C1281.57 192.249 1281.97 190.897 1282.16 190.605C1283.27 188.938 1307.83 172.818 1307.83 172.818C1307.83 172.818 1308.85 187.229 1303.98 196.424C1299.12 205.623 1294.95 212.365 1298.84 222.272C1302.73 232.184 1294.39 237.889 1301.07 243.448C1304.92 246.663 1306.02 250.72 1306.26 253.565Z" fill="#4A4E73"/>
<path d="M1264.5 291.318C1265 295.429 1263.13 308.186 1263.13 308.186H1257.66C1257.66 308.186 1258.03 299.037 1256.91 298.786C1255.79 298.535 1250.06 308.186 1248.32 308.186C1246.57 308.186 1235 308.186 1235 308.186C1235 308.186 1236.99 304.765 1240.6 302.897C1243.8 301.243 1249.04 296.854 1251.5 286.284C1251.82 284.914 1252.09 283.439 1252.31 281.858L1265.5 280.241C1265.5 280.241 1264.88 283.133 1264.57 286.289C1264.4 288.024 1264.32 289.852 1264.5 291.318Z" fill="#1B5175"/>
<path d="M1252.31 281.853L1265.5 280.236C1265.5 280.236 1264.88 283.128 1264.57 286.284H1251.5C1251.82 284.909 1252.09 283.438 1252.31 281.853Z" fill="#E9928B"/>
<path d="M1276.95 161.856C1276.95 161.856 1258.01 206.34 1252.48 224.761C1246.96 243.187 1238.54 282.93 1238.54 282.93H1267.48C1267.48 282.93 1278.8 228.973 1283.8 220.285C1288.8 211.598 1307.48 180.012 1304.58 168.694C1301.68 157.38 1276.95 161.856 1276.95 161.856Z" fill="#5F6386"/>
<path d="M1307.83 172.818L1299.05 195.615L1270.59 177.537L1288.15 168.981L1296.35 164.98L1298.65 163.856L1299.67 164.4L1307.06 168.333C1307.12 168.534 1307.17 168.744 1307.21 168.963C1307.4 169.982 1307.61 171.293 1307.83 172.818Z" fill="#4A4E73"/>
<path d="M1293 101.86C1293 101.86 1286.16 104.738 1280.37 112.635C1274.58 120.533 1267.74 135.213 1267.22 138.004C1266.69 140.795 1271.73 162.975 1271.71 168.699C1271.69 174.422 1298.63 172.307 1306.26 168.621C1306.26 168.621 1303.27 147.642 1303.27 144.746C1303.27 141.85 1303.53 122.374 1301.95 113.426C1300.37 104.478 1293 101.86 1293 101.86Z" fill="#FFAB40"/>
<path d="M1291.37 122.497C1291.37 122.497 1290.29 129.7 1291.37 135.122C1292.45 140.544 1283.99 137.246 1281.06 148.281C1278.13 159.317 1303.23 153.964 1303.23 153.964C1303.23 153.964 1310.14 143.326 1310.19 141.517C1310.24 139.713 1291.37 122.497 1291.37 122.497Z" fill="#F5911F"/>
<path d="M1293 101.86C1293 101.86 1279.78 115.463 1280.94 111.882C1281.58 109.908 1280.47 105.19 1279.34 101.349C1278.41 98.2107 1277.48 95.6574 1277.48 95.6574C1277.48 95.6574 1280.02 93.0722 1282.68 90.866C1285.5 88.5273 1288.45 86.6181 1288.64 88.6826C1289.02 92.6976 1293 101.86 1293 101.86Z" fill="#FFAC95"/>
<path d="M1258.77 129.232L1243.88 161.327L1299.24 187.04L1314.14 154.945L1258.77 129.232Z" fill="#3FB8A9"/>
<path d="M1260.56 134.128L1248.77 159.536L1297.45 182.144L1309.24 156.736L1260.56 134.128Z" fill="white"/>
<path d="M1253.76 162.317L1273.73 148.28L1275.89 172.594L1253.76 162.317Z" fill="#3FB8A9"/>
<path d="M1274.87 172.165L1290.31 161.308L1291.98 180.117L1274.87 172.165Z" fill="#3FB8A9"/>
<path d="M1286.88 154.125C1287.79 152.337 1287.07 150.151 1285.28 149.244C1283.5 148.337 1281.31 149.051 1280.4 150.84C1279.5 152.628 1280.21 154.814 1282 155.721C1283.79 156.628 1285.97 155.914 1286.88 154.125Z" fill="#3FB8A9"/>
<path d="M1275.79 166.959C1275.79 166.959 1273.22 167.324 1271.4 167.79C1269.58 168.256 1265.99 168 1265.58 168.832C1265.16 169.663 1269.61 170.394 1270.69 170.494C1271.77 170.595 1269.01 172.12 1267.45 172.554C1265.89 172.988 1264.64 173.614 1266.25 175.071C1267.87 176.528 1270.36 178.712 1271.4 178.867C1272.44 179.022 1277.54 175.172 1280.35 172.312C1283.15 169.453 1275.79 166.959 1275.79 166.959Z" fill="#FFAC95"/>
<path d="M1293.26 106.711C1288.3 110.511 1290.24 120.268 1292.74 126.585C1295.24 132.902 1302.34 144.485 1301.81 145.536C1301.29 146.591 1274.96 166.575 1274.96 166.575L1280.37 173.371C1280.37 173.371 1305.36 160.801 1311.55 156.329C1317.73 151.853 1318.26 146.984 1316.42 140.667C1314.58 134.35 1303.92 98.5533 1293.26 106.711Z" fill="#FFAB40"/>
<path d="M1257.2 283.04L1255.97 282.825C1256.36 280.551 1265.72 227.109 1267.37 222.08C1269.01 217.079 1281.88 184.539 1282.43 183.159L1283.59 183.621C1283.46 183.959 1270.18 217.503 1268.56 222.473C1266.94 227.411 1257.3 282.483 1257.2 283.04Z" fill="#4A4E73"/>
<path d="M1339.62 272.014C1339.43 271.767 1319.92 247.307 1309.7 234.66C1299.39 221.898 1295.58 203.979 1295.54 203.801L1296.76 203.545C1296.8 203.723 1300.56 221.35 1310.68 233.869C1320.9 246.517 1340.4 270.982 1340.6 271.228L1339.62 272.014Z" fill="#4A4E73"/>
<g opacity="0.52">
<path opacity="0.52" d="M1371.14 132.244C1370.72 132.797 1370.22 133.212 1369.68 133.509C1374.07 128.284 1370.85 121.359 1359.59 121.501C1348.33 121.638 1345.27 111.904 1351.95 95.776C1358.62 79.6476 1341.8 78.3915 1334.71 82.0091C1327.62 85.6267 1320.39 82.2877 1320.67 74.4633C1320.86 69.2288 1319.31 66.47 1318.26 65.2139C1320.55 67.6941 1321.44 71.1609 1322.89 73.8147C1325.26 78.1585 1329.21 77.8617 1335.33 75.9889C1341.44 74.1116 1353.77 74.9795 1356.44 85.2064C1359.1 95.4334 1352 107.378 1364.73 110.342C1377.46 113.288 1375.09 127.11 1371.14 132.244Z" fill="#1B5175"/>
</g>
<path d="M1286.42 90.2637C1286.42 90.2637 1284.44 97.5263 1279.34 101.349C1278.41 98.2114 1277.48 95.6581 1277.48 95.6581C1277.48 95.6581 1280.02 93.0728 1282.68 90.8666L1286.42 90.2637Z" fill="#E9928B"/>
<path d="M1277.87 71.4439C1277.87 71.4439 1274.32 80.2595 1270.96 81.9724C1267.61 83.6852 1269.84 84.078 1270.96 85.9873C1272.08 87.8965 1267.8 93.8162 1271.49 96.5157C1275.17 99.2152 1283.72 94.8028 1286.42 90.2626C1286.42 90.2626 1291.09 90.459 1292.21 86.9054C1293.33 83.3518 1289.71 81.1136 1287.61 82.694C1285.5 84.2744 1285.24 80.9811 1284.32 76.0481C1283.4 71.115 1278.32 70.3934 1277.87 71.4439Z" fill="#FFAC95"/>
<path d="M1196.71 149.581L1049.92 152.084L1047 149.581V101.328H1196.71L1199.63 103.831L1196.71 149.581Z" fill="#B6D5D0"/>
<path d="M1196.71 96.8436L1049.92 99.3467L1047 96.8436V86H1196.71L1199.63 88.5031L1196.71 96.8436Z" fill="#B6D5D0"/>
<path d="M1199.63 103.831H1049.92V152.084H1199.63V103.831Z" fill="#DCECEB"/>
<path d="M1199.63 88.5029H1049.92V99.3511H1199.63V88.5029Z" fill="#EDF6F5"/>
<path d="M1078.57 95.9526C1079.69 95.9526 1080.6 95.0446 1080.6 93.9245C1080.6 92.8045 1079.69 91.8965 1078.57 91.8965C1077.45 91.8965 1076.55 92.8045 1076.55 93.9245C1076.55 95.0446 1077.45 95.9526 1078.57 95.9526Z" fill="#67A4C3"/>
<path d="M1071.06 93.9245C1071.06 95.0436 1070.15 95.9526 1069.03 95.9526C1067.91 95.9526 1067 95.0436 1067 93.9245C1067 92.8055 1067.91 91.8965 1069.03 91.8965C1070.15 91.8965 1071.06 92.8055 1071.06 93.9245Z" fill="#EB908B"/>
<path d="M1059.49 95.9526C1060.61 95.9526 1061.52 95.0446 1061.52 93.9245C1061.52 92.8045 1060.61 91.8965 1059.49 91.8965C1058.37 91.8965 1057.46 92.8045 1057.46 93.9245C1057.46 95.0446 1058.37 95.9526 1059.49 95.9526Z" fill="#FFAA3F"/>
<path d="M1169.53 106.184C1158.89 106.184 1150.26 114.816 1150.26 125.464C1150.26 136.111 1158.89 144.744 1169.53 144.744C1180.18 144.744 1188.81 136.111 1188.81 125.464C1188.81 114.816 1180.18 106.184 1169.53 106.184ZM1169.53 137.874C1162.68 137.874 1157.13 132.315 1157.13 125.464C1157.13 118.608 1162.69 113.053 1169.53 113.053C1176.38 113.053 1181.94 118.612 1181.94 125.464C1181.94 132.315 1176.39 137.874 1169.53 137.874Z" fill="#B2E5E0"/>
<path d="M1187.74 113.492C1184.25 110.002 1179.44 107.851 1174.12 107.851C1163.47 107.851 1154.85 116.483 1154.85 127.131C1154.85 128.359 1154.96 129.565 1155.18 130.735C1156.87 139.66 1164.7 146.411 1174.12 146.411C1177.64 146.411 1180.94 145.47 1183.78 143.821C1189.53 140.482 1193.39 134.261 1193.39 127.131C1193.4 121.8 1191.24 116.977 1187.74 113.492ZM1180.34 137.869C1178.51 138.933 1176.38 139.541 1174.12 139.541C1168.06 139.541 1163.01 135.193 1161.93 129.442C1161.79 128.697 1161.71 127.921 1161.71 127.131C1161.71 120.275 1167.27 114.72 1174.12 114.72C1177.54 114.72 1180.64 116.104 1182.89 118.347C1185.13 120.594 1186.52 123.705 1186.52 127.131C1186.53 131.721 1184.04 135.727 1180.34 137.869Z" fill="#3FB8A9"/>
<path d="M1193.4 127.131C1193.4 134.261 1189.53 140.487 1183.79 143.821L1180.34 137.87C1184.04 135.727 1186.53 131.722 1186.53 127.131C1186.53 123.701 1185.14 120.595 1182.89 118.348L1187.74 113.492C1191.24 116.977 1193.4 121.801 1193.4 127.131Z" fill="white"/>
<path d="M1183.79 143.821C1180.95 145.47 1177.65 146.411 1174.12 146.411C1164.71 146.411 1156.87 139.66 1155.19 130.735L1161.94 129.442C1163.02 135.193 1168.07 139.541 1174.13 139.541C1176.39 139.541 1178.52 138.934 1180.35 137.87L1183.79 143.821Z" fill="#FFC945"/>
<path d="M1124.98 113.282H1057.88V116.416H1124.98V113.282Z" fill="white"/>
<path d="M1124.98 126.213H1057.88V129.346H1124.98V126.213Z" fill="white"/>
<path d="M1124.98 139.148H1057.88V142.282H1124.98V139.148Z" fill="white"/>
<path d="M691.038 153.705H606C606 153.705 611.849 140.651 625.346 146.054C625.346 146.054 630.296 132.552 641.994 134.128C653.692 135.704 655.943 143.852 655.943 143.852C655.943 143.852 668.541 138.851 680.691 148.982C680.691 148.982 690.59 147.854 691.038 153.705Z" fill="#EDF6F5"/>
<path d="M1144.04 19.7049H1059C1059 19.7049 1064.85 6.65056 1078.35 12.0541C1078.35 12.0541 1083.3 -1.44791 1094.99 0.127939C1106.69 1.70378 1108.94 9.85246 1108.94 9.85246C1108.94 9.85246 1121.54 4.85086 1133.69 14.9819C1133.69 14.9819 1143.59 13.8538 1144.04 19.7049Z" fill="#EDF6F5"/>
<path d="M169.038 99.7049H84C84 99.7049 89.8491 86.6506 103.346 92.0541C103.346 92.0541 108.296 78.5521 119.994 80.1279C131.692 81.7038 133.943 89.8525 133.943 89.8525C133.943 89.8525 146.541 84.8509 158.691 94.9819C158.691 94.9819 168.59 93.8538 169.038 99.7049Z" fill="#EDF6F5"/>
<path d="M449.038 192.705H364C364 192.705 369.849 179.651 383.346 185.054C383.346 185.054 388.296 171.552 399.994 173.128C411.692 174.704 413.943 182.852 413.943 182.852C413.943 182.852 426.541 177.851 438.691 187.982C438.691 187.982 448.59 186.854 449.038 192.705Z" fill="#EDF6F5"/>
<path d="M753.374 242.8V222.27C753.374 215.87 748.188 210.682 741.79 210.682H727.145V308.324H745.918H753.374H776.539V265.973C776.539 259.573 771.352 254.384 764.954 254.384C758.561 254.389 753.374 249.2 753.374 242.8Z" fill="#B6D5D0"/>
<path d="M879.25 283.906L869.905 293.036L866.761 288.359L861.745 280.896L873.762 275.31L877.042 280.45L879.25 283.906Z" fill="#E9928B"/>
<path d="M877.042 280.45C872.223 282.908 868.523 286.469 866.761 288.359L861.745 280.896L873.762 275.31L877.042 280.45Z" fill="#DE6667"/>
<path d="M906.823 10H708.432V113.482H906.823V10Z" fill="#EDF6F5"/>
<path d="M751.271 19.2959H719.317V48.7766H751.271V19.2959Z" fill="#DCECEB"/>
<path d="M887.126 45.9849H885.928V44.1869H884.13V42.9883H887.126V45.9849Z" fill="#B6D5D0"/>
<path d="M879.228 44.1869H874.325V42.9883H879.228V44.1869ZM869.428 44.1869H864.525V42.9883H869.428V44.1869ZM859.623 44.1869H854.721V42.9883H859.623V44.1869ZM849.823 44.1869H844.921V42.9883H849.823V44.1869ZM840.018 44.1869H835.116V42.9883H840.018V44.1869ZM830.218 44.1869H825.316V42.9883H830.218V44.1869ZM820.418 44.1869H815.516V42.9883H820.418V44.1869ZM810.614 44.1869H805.711V42.9883H810.614V44.1869ZM800.813 44.1869H795.911V42.9883H800.813V44.1869Z" fill="#B6D5D0"/>
<path d="M789.212 45.9849H788.014V42.9883H791.01V44.1869H789.212V45.9849Z" fill="#B6D5D0"/>
<path d="M789.212 94.9496H788.014V90.0544H789.212V94.9496ZM789.212 85.1591H788.014V80.2595H789.212V85.1591ZM789.212 75.3643H788.014V70.4691H789.212V75.3643ZM789.212 65.5695H788.014V60.6742H789.212V65.5695ZM789.212 55.779H788.014V50.8838H789.212V55.779Z" fill="#B6D5D0"/>
<path d="M791.009 102.842H788.014V99.8496H789.212V101.643H791.009V102.842Z" fill="#B6D5D0"/>
<path d="M879.228 102.842H874.325V101.644H879.228V102.842ZM869.428 102.842H864.525V101.644H869.428V102.842ZM859.623 102.842H854.721V101.644H859.623V102.842ZM849.823 102.842H844.921V101.644H849.823V102.842ZM840.018 102.842H835.116V101.644H840.018V102.842ZM830.218 102.842H825.316V101.644H830.218V102.842ZM820.418 102.842H815.516V101.644H820.418V102.842ZM810.614 102.842H805.711V101.644H810.614V102.842ZM800.813 102.842H795.911V101.644H800.813V102.842Z" fill="#B6D5D0"/>
<path d="M887.126 102.842H884.13V101.643H885.928V99.8496H887.126V102.842Z" fill="#B6D5D0"/>
<path d="M887.126 94.9496H885.927V90.0544H887.126V94.9496ZM887.126 85.1591H885.927V80.2595H887.126V85.1591ZM887.126 75.3643H885.927V70.4691H887.126V75.3643ZM887.126 65.5695H885.927V60.6742H887.126V65.5695ZM887.126 55.779H885.927V50.8838H887.126V55.779Z" fill="#B6D5D0"/>
<path d="M794.626 119.073H690.139C688.499 119.073 687.17 117.743 687.17 116.103V64.775C687.17 63.1345 688.499 61.8047 690.139 61.8047H794.626C796.266 61.8047 797.595 63.1345 797.595 64.775V116.107C797.591 117.743 796.266 119.073 794.626 119.073Z" fill="#B2E5E0"/>
<path d="M798.221 122.668H693.734C692.094 122.668 690.765 121.339 690.765 119.698V68.3659C690.765 66.7254 692.094 65.3955 693.734 65.3955H798.221C799.861 65.3955 801.19 66.7254 801.19 68.3659V119.698C801.186 121.339 799.861 122.668 798.221 122.668Z" fill="#3FB8A9"/>
<path opacity="0.67" d="M698.649 118.474H792.509C792.509 118.474 789.382 96.5657 784.454 89.9075C779.53 83.2493 775.401 92.4361 769.944 103.36C764.486 114.279 753.169 119.209 744.916 108.285C736.66 97.3663 732.934 93.9015 723.746 99.7636C714.558 105.626 707.369 100.695 704.308 93.1054C701.247 85.5154 698.649 85.6466 698.649 85.6466V118.474Z" fill="white"/>
<path opacity="0.28" d="M698.649 118.473C698.649 118.473 702.974 118.674 706.437 113.88C709.901 109.085 710.832 101.762 714.558 99.4958C718.284 97.2297 721.748 99.4958 726.939 108.984C732.129 118.473 740.25 114.011 743.714 104.557C747.177 95.1036 748.774 90.5715 754.498 90.0422C760.222 89.5084 763.817 96.5692 765.816 103.359C767.814 110.152 773.005 112.414 778.196 109.619C783.387 106.823 792.509 118.477 792.509 118.477H698.649V118.473Z" fill="white"/>
<path d="M700.446 73.6604C699.454 73.6604 698.649 72.8555 698.649 71.8625C698.649 70.8694 699.454 70.0645 700.446 70.0645C701.439 70.0645 702.244 70.8694 702.244 71.8625C702.244 72.8555 701.439 73.6604 700.446 73.6604Z" fill="white"/>
<path d="M744.383 70.7949H706.705V72.9255H744.383V70.7949Z" fill="white"/>
<path d="M700.446 80.1516C699.454 80.1516 698.649 79.3467 698.649 78.3536C698.649 77.3606 699.454 76.5557 700.446 76.5557C701.439 76.5557 702.244 77.3606 702.244 78.3536C702.244 79.3467 701.439 80.1516 700.446 80.1516Z" fill="white"/>
<path d="M735.729 77.2861H706.705V79.4166H735.729V77.2861Z" fill="white"/>
<path d="M755.014 22.3184H723.06V51.799H755.014V22.3184Z" fill="white"/>
<path d="M751.271 35.3643L739.652 40.6226L728.037 35.3643V43.2211H751.271V35.3643Z" fill="#FFAB40"/>
<path d="M751.272 31.8164H728.038V33.9163L739.653 39.0565L751.272 33.9163V31.8164Z" fill="#FFAB40"/>
<path d="M851.424 41.2304H787.152V38.2295H851.424V41.2304ZM787.555 40.8279H851.026V38.6232H787.555V40.8279Z" fill="white"/>
<path d="M851.424 28.8409H787.152V25.8398H851.424V28.8409ZM787.555 28.4428H851.026V26.238H787.555V28.4428Z" fill="white"/>
<path d="M851.425 16.4571H787.153V13.4561H851.425V16.4571ZM787.555 16.0589H851.027V13.8541H787.555V16.0589Z" fill="white"/>
<path d="M910.618 283.118L900.346 292.703L897.783 281.215L896.791 276.77L909.066 273.664L909.774 277.991L910.618 283.118Z" fill="#E9928B"/>
<path d="M909.775 277.99C909.775 277.99 907.129 277.714 904.698 278.309C902.913 278.747 897.779 281.214 897.779 281.214L896.787 276.765L909.062 273.659L909.775 277.99Z" fill="#DE6667"/>
<path d="M907.955 282.067C902.755 281.989 900.892 286.254 899.143 290.217C897.394 294.181 895.277 303.424 892.247 304.361C889.216 305.292 887.585 306.924 887.585 308.792H898.518C898.518 308.792 905.379 301.246 908.908 298.302C912.437 295.358 913.295 293.446 913.295 293.446C913.295 293.446 911.939 286.153 910.618 283.126C910.618 283.117 909.687 282.094 907.955 282.067Z" fill="#0C1B3C"/>
<path d="M908.817 289.671C905.025 290.458 903.63 294.527 901.299 301.29C898.969 308.049 894.346 308.788 894.346 308.788H907.26C907.26 308.788 907.982 306.303 909.517 303.158C910.654 300.826 912.613 298.167 913.107 295.734C914.27 290.021 909.74 289.478 908.817 289.671Z" fill="#408C91"/>
<path d="M909.739 274.688C901.631 275.584 895.942 278.284 895.942 278.284C895.942 278.284 893.183 279.18 889.19 270.777C885.197 262.364 871.155 236.033 871.155 236.033L887.301 236.545L899.506 236.934C899.506 236.934 906.096 253.615 909.293 260.706C912.49 267.793 909.739 274.688 909.739 274.688Z" fill="#376F92"/>
<path d="M895.946 263.331C891.053 269.193 892.693 276.013 895.946 278.284C895.946 278.284 893.187 279.18 889.194 270.777C885.202 262.364 871.16 236.033 871.16 236.033L887.305 236.545L897.844 241.226C897.844 241.226 887.463 242.556 885.132 248.02C882.801 253.479 900.836 257.473 895.946 263.331Z" fill="#1B5175"/>
<g opacity="0.4">
<path opacity="0.4" d="M852.089 245.412L850.287 244.41C849.146 243.776 848.442 242.569 848.463 241.265C848.468 241.116 848.472 240.972 848.472 240.823C848.472 240.675 848.468 240.53 848.463 240.381C848.442 239.078 849.146 237.87 850.287 237.236L852.089 236.234C853.514 235.442 854.214 233.784 853.799 232.21C853.79 232.192 853.79 232.175 853.781 232.157C853.361 230.587 851.918 229.502 850.296 229.528L848.232 229.563C846.911 229.585 845.704 228.863 845.057 227.712C844.926 227.485 844.794 227.258 844.668 227.034C843.985 225.901 843.963 224.488 844.646 223.351L845.704 221.592C846.544 220.192 846.321 218.403 845.17 217.253C845.157 217.24 845.14 217.222 845.127 217.209C843.977 216.058 842.188 215.835 840.789 216.675L839.031 217.734C837.894 218.416 836.481 218.39 835.348 217.712C835.125 217.581 834.898 217.45 834.671 217.323C833.52 216.68 832.795 215.472 832.821 214.147L832.856 212.082C832.882 210.454 831.797 209.015 830.228 208.595C830.21 208.587 830.193 208.587 830.175 208.578C828.601 208.162 826.943 208.862 826.152 210.288L825.15 212.091C824.516 213.232 823.309 213.937 822.006 213.915C821.857 213.91 821.713 213.906 821.564 213.906C821.416 213.906 821.271 213.91 821.123 213.915C819.82 213.937 818.613 213.232 817.978 212.091L816.977 210.288C816.185 208.862 814.528 208.162 812.954 208.578C812.936 208.587 812.919 208.587 812.901 208.595C811.331 209.015 810.247 210.459 810.273 212.082L810.308 214.147C810.33 215.468 809.608 216.675 808.458 217.323C808.231 217.454 808.003 217.585 807.78 217.712C806.648 218.394 805.235 218.416 804.098 217.734L802.34 216.675C800.941 215.84 799.152 216.058 798.002 217.209C797.989 217.222 797.971 217.24 797.958 217.253C796.808 218.403 796.585 220.192 797.425 221.592L798.483 223.351C799.165 224.488 799.139 225.901 798.461 227.034C798.33 227.258 798.199 227.485 798.072 227.712C797.429 228.863 796.222 229.589 794.897 229.563L792.833 229.528C791.206 229.502 789.767 230.587 789.348 232.157C789.339 232.175 789.339 232.192 789.33 232.21C788.915 233.784 789.614 235.442 791.04 236.234L792.842 237.236C793.983 237.87 794.687 239.078 794.665 240.381C794.661 240.53 794.657 240.675 794.657 240.823C794.657 240.972 794.661 241.116 794.665 241.265C794.687 242.569 793.983 243.776 792.842 244.41L791.04 245.412C789.614 246.204 788.915 247.862 789.33 249.437C789.339 249.454 789.339 249.472 789.348 249.489C789.767 251.06 791.211 252.145 792.833 252.119L794.897 252.084C796.218 252.062 797.425 252.784 798.072 253.934C798.203 254.162 798.334 254.389 798.461 254.612C799.143 255.745 799.165 257.158 798.483 258.296L797.425 260.054C796.59 261.454 796.808 263.243 797.958 264.394C797.971 264.407 797.989 264.424 798.002 264.438C799.152 265.588 800.941 265.811 802.34 264.971L804.098 263.913C805.235 263.23 806.648 263.256 807.78 263.935C808.003 264.066 808.231 264.197 808.458 264.324C809.608 264.967 810.334 266.174 810.308 267.5L810.273 269.565C810.247 271.192 811.331 272.631 812.901 273.051C812.919 273.06 812.936 273.06 812.954 273.069C814.528 273.484 816.185 272.784 816.977 271.358L817.978 269.556C818.613 268.414 819.82 267.71 821.123 267.732C821.271 267.736 821.416 267.74 821.564 267.74C821.713 267.74 821.857 267.736 822.006 267.732C823.309 267.71 824.516 268.414 825.15 269.556L826.152 271.358C826.943 272.784 828.601 273.484 830.175 273.069C830.193 273.06 830.21 273.06 830.228 273.051C831.797 272.631 832.882 271.188 832.856 269.565L832.821 267.5C832.799 266.179 833.52 264.971 834.671 264.324C834.898 264.193 835.125 264.061 835.348 263.935C836.481 263.252 837.894 263.23 839.031 263.913L840.789 264.971C842.188 265.807 843.977 265.588 845.127 264.438C845.14 264.424 845.157 264.407 845.17 264.394C846.321 263.243 846.544 261.454 845.704 260.054L844.646 258.296C843.963 257.158 843.99 255.745 844.668 254.612C844.799 254.389 844.93 254.162 845.057 253.934C845.7 252.784 846.907 252.057 848.232 252.084L850.296 252.119C851.923 252.145 853.361 251.06 853.781 249.489C853.79 249.472 853.79 249.454 853.799 249.437C854.214 247.862 853.514 246.2 852.089 245.412ZM821.556 260.846C810.5 260.846 801.536 251.882 801.536 240.819C801.536 229.76 810.496 220.792 821.556 220.792C832.611 220.792 841.576 229.755 841.576 240.819C841.571 251.882 832.611 260.846 821.556 260.846Z" fill="#F4D7C9"/>
<path opacity="0.4" d="M830.294 243.348C831.612 238.533 828.779 233.561 823.967 232.243C819.154 230.924 814.184 233.758 812.866 238.572C811.547 243.386 814.38 248.358 819.193 249.677C824.005 250.996 828.975 248.162 830.294 243.348Z" fill="#F4D7C9"/>
</g>
<g opacity="0.4">
<path opacity="0.4" d="M1022.81 247.462L1021.76 246.875C1021.1 246.504 1020.68 245.799 1020.69 245.038C1020.69 244.951 1020.7 244.867 1020.7 244.78C1020.7 244.693 1020.7 244.609 1020.69 244.522C1020.68 243.761 1021.09 243.056 1021.76 242.685L1022.81 242.098C1023.64 241.635 1024.05 240.668 1023.81 239.749C1023.8 239.74 1023.8 239.727 1023.8 239.719C1023.55 238.8 1022.71 238.166 1021.76 238.183L1020.56 238.201C1019.79 238.214 1019.08 237.789 1018.7 237.12C1018.63 236.989 1018.55 236.853 1018.48 236.726C1018.08 236.066 1018.06 235.239 1018.46 234.574L1019.08 233.546C1019.57 232.728 1019.44 231.687 1018.77 231.013C1018.76 231.004 1018.75 230.996 1018.74 230.987C1018.07 230.313 1017.03 230.186 1016.21 230.676L1015.18 231.293C1014.52 231.691 1013.7 231.678 1013.03 231.28C1012.9 231.205 1012.77 231.127 1012.64 231.052C1011.96 230.676 1011.54 229.972 1011.56 229.198L1011.58 227.99C1011.59 227.041 1010.96 226.201 1010.04 225.956C1010.03 225.952 1010.02 225.952 1010.01 225.947C1009.09 225.702 1008.12 226.113 1007.66 226.945L1007.08 227.994C1006.7 228.659 1006 229.071 1005.24 229.062C1005.15 229.062 1005.07 229.058 1004.98 229.058C1004.89 229.058 1004.81 229.058 1004.72 229.062C1003.96 229.075 1003.26 228.664 1002.89 227.994L1002.3 226.945C1001.84 226.113 1000.87 225.702 999.951 225.947C999.943 225.952 999.929 225.952 999.921 225.956C999.002 226.201 998.373 227.041 998.386 227.99L998.403 229.198C998.416 229.967 997.992 230.676 997.323 231.052C997.192 231.127 997.056 231.205 996.929 231.28C996.269 231.678 995.443 231.691 994.778 231.293L993.75 230.676C992.932 230.186 991.892 230.317 991.218 230.987C991.209 230.996 991.201 231.004 991.192 231.013C990.518 231.687 990.392 232.728 990.881 233.546L991.498 234.574C991.896 235.239 991.883 236.061 991.485 236.726C991.411 236.858 991.332 236.989 991.258 237.12C990.881 237.794 990.177 238.214 989.403 238.201L988.196 238.183C987.247 238.166 986.408 238.8 986.163 239.719C986.159 239.727 986.159 239.74 986.154 239.749C985.909 240.668 986.32 241.639 987.151 242.098L988.201 242.685C988.865 243.056 989.277 243.761 989.268 244.522C989.268 244.609 989.263 244.693 989.263 244.78C989.263 244.867 989.263 244.951 989.268 245.038C989.281 245.799 988.87 246.504 988.201 246.875L987.151 247.462C986.32 247.925 985.909 248.892 986.154 249.811C986.159 249.82 986.159 249.833 986.163 249.842C986.408 250.76 987.247 251.39 988.196 251.377L989.403 251.359C990.173 251.346 990.881 251.771 991.258 252.44C991.332 252.571 991.411 252.707 991.485 252.834C991.883 253.494 991.896 254.321 991.498 254.986L990.881 256.014C990.392 256.832 990.523 257.873 991.192 258.547C991.201 258.556 991.209 258.565 991.218 258.573C991.892 259.247 992.932 259.374 993.75 258.884L994.778 258.267C995.443 257.869 996.265 257.882 996.929 258.28C997.061 258.355 997.192 258.433 997.323 258.508C997.997 258.884 998.416 259.588 998.403 260.363L998.386 261.57C998.368 262.519 999.002 263.359 999.921 263.604C999.929 263.609 999.943 263.608 999.951 263.613C1000.87 263.858 1001.84 263.447 1002.3 262.615L1002.89 261.566C1003.26 260.901 1003.96 260.489 1004.72 260.498C1004.81 260.498 1004.89 260.503 1004.98 260.503C1005.07 260.503 1005.15 260.503 1005.24 260.498C1006 260.485 1006.7 260.896 1007.08 261.566L1007.66 262.615C1008.12 263.447 1009.09 263.858 1010.01 263.613C1010.02 263.608 1010.03 263.609 1010.04 263.604C1010.96 263.359 1011.59 262.519 1011.58 261.57L1011.56 260.363C1011.54 259.593 1011.97 258.884 1012.64 258.508C1012.77 258.433 1012.9 258.355 1013.03 258.28C1013.69 257.882 1014.52 257.869 1015.18 258.267L1016.21 258.884C1017.03 259.374 1018.07 259.243 1018.74 258.573C1018.75 258.565 1018.76 258.556 1018.77 258.547C1019.44 257.873 1019.57 256.832 1019.08 256.014L1018.46 254.986C1018.06 254.321 1018.08 253.499 1018.48 252.834C1018.55 252.703 1018.63 252.571 1018.7 252.44C1019.08 251.766 1019.78 251.346 1020.56 251.359L1021.76 251.377C1022.71 251.395 1023.55 250.76 1023.8 249.842C1023.8 249.833 1023.8 249.82 1023.81 249.811C1024.05 248.892 1023.64 247.921 1022.81 247.462ZM1004.98 256.469C998.53 256.469 993.3 251.237 993.3 244.78C993.3 238.323 998.53 233.091 1004.98 233.091C1011.44 233.091 1016.67 238.323 1016.67 244.78C1016.67 251.237 1011.44 256.469 1004.98 256.469Z" fill="#F4D7C9"/>
</g>
<path d="M916.517 188.131V181.853L910.867 180.392L906.538 175.23L907.666 172.142L873.18 132.722H729.121C727.708 132.722 726.562 133.868 726.562 135.281V139.739L726.597 139.765C726.685 140.482 726.978 141.204 727.511 141.838L765.728 187.405C768.505 190.712 772.603 192.628 776.923 192.628H912.52C914.738 192.628 916.294 190.948 916.517 189.05C916.552 188.752 916.552 188.442 916.517 188.131Z" fill="#B6D5D0"/>
<path d="M912.525 186.355H776.924C772.603 186.355 768.505 184.443 765.728 181.132L727.507 135.57C725.316 132.958 727.171 128.973 730.582 128.973H866.183C870.504 128.973 874.601 130.884 877.378 134.196L915.599 179.758C917.79 182.37 915.932 186.355 912.525 186.355Z" fill="white"/>
<path d="M895.632 176.333C895.365 176.333 895.116 176.215 894.945 176.013L868.593 144.695C868.099 144.109 868.514 143.217 869.279 143.217C869.546 143.217 869.795 143.335 869.966 143.536L896.318 174.854C896.812 175.436 896.397 176.333 895.632 176.333Z" fill="#B2E5E0"/>
<path d="M792.57 163.275H762.081C761.364 163.275 760.682 162.955 760.222 162.404L745.271 144.459C744.763 143.851 745.196 142.933 745.984 142.933H776.473C777.19 142.933 777.872 143.252 778.332 143.803L793.283 161.748C793.791 162.356 793.358 163.275 792.57 163.275Z" fill="#DCECEB"/>
<path d="M777.768 176.639H773.272C772.555 176.639 771.877 176.324 771.418 175.773L765.89 169.171C765.383 168.563 765.812 167.645 766.603 167.645H771.099C771.816 167.645 772.494 167.959 772.953 168.511L778.48 175.112C778.988 175.716 778.559 176.639 777.768 176.639Z" fill="#B2E5E0"/>
<path d="M790.765 176.639H786.269C785.552 176.639 784.874 176.324 784.415 175.773L778.887 169.171C778.38 168.563 778.809 167.645 779.6 167.645H784.096C784.813 167.645 785.491 167.959 785.95 168.511L791.478 175.112C791.985 175.716 791.556 176.639 790.765 176.639Z" fill="#B2E5E0"/>
<path d="M803.761 176.639H799.266C798.549 176.639 797.871 176.324 797.412 175.773L791.884 169.171C791.377 168.563 791.805 167.645 792.597 167.645H797.092C797.809 167.645 798.487 167.959 798.946 168.511L804.474 175.112C804.981 175.716 804.553 176.639 803.761 176.639Z" fill="#B2E5E0"/>
<path d="M827.919 151.477H793.476C792.763 151.477 792.085 151.162 791.626 150.615L786.47 144.469C785.963 143.861 786.392 142.938 787.183 142.938H821.626C822.339 142.938 823.016 143.252 823.476 143.799L828.632 149.946C829.139 150.554 828.71 151.477 827.919 151.477Z" fill="#DCECEB"/>
<path d="M838.462 164.044H804.019C803.306 164.044 802.628 163.729 802.169 163.182L797.013 157.036C796.506 156.432 796.935 155.505 797.726 155.505H832.169C832.882 155.505 833.559 155.82 834.019 156.367L839.175 162.513C839.682 163.121 839.249 164.044 838.462 164.044Z" fill="#DCECEB"/>
<path d="M849.027 176.639H814.584C813.872 176.639 813.194 176.324 812.735 175.777L807.579 169.631C807.071 169.027 807.5 168.1 808.292 168.1H842.734C843.447 168.1 844.125 168.415 844.584 168.961L849.74 175.108C850.247 175.716 849.819 176.639 849.027 176.639Z" fill="#DCECEB"/>
<path d="M864.207 176.333C863.94 176.333 863.691 176.215 863.52 176.013L837.168 144.695C836.674 144.109 837.089 143.217 837.854 143.217C838.121 143.217 838.37 143.335 838.541 143.536L864.893 174.854C865.388 175.436 864.972 176.333 864.207 176.333Z" fill="#B2E5E0"/>
<path d="M844.733 149.968H840.981C840.439 149.968 839.634 149.53 839.179 148.988L837.815 147.365C837.36 146.822 837.43 146.385 837.972 146.385H841.724C842.266 146.385 843.071 146.822 843.526 147.365L844.89 148.988C845.345 149.53 845.275 149.968 844.733 149.968Z" fill="#B2E5E0"/>
<path d="M844.991 149.097H841.239C840.696 149.097 839.892 148.659 839.437 148.117L838.073 146.494C837.618 145.951 837.688 145.514 838.23 145.514H841.982C842.524 145.514 843.329 145.951 843.784 146.494L845.148 148.117C845.603 148.659 845.529 149.097 844.991 149.097Z" fill="#DCECEB"/>
<path d="M882.884 158.099H879.132C878.589 158.099 877.785 157.662 877.33 157.119L875.966 155.497C875.511 154.954 875.581 154.517 876.123 154.517H879.875C880.417 154.517 881.222 154.954 881.677 155.497L883.041 157.119C883.492 157.662 883.422 158.099 882.884 158.099Z" fill="#B2E5E0"/>
<path d="M883.137 157.233H879.385C878.843 157.233 878.038 156.796 877.583 156.253L876.219 154.63C875.764 154.088 875.834 153.65 876.376 153.65H880.129C880.671 153.65 881.475 154.088 881.93 154.63L883.295 156.253C883.75 156.791 883.68 157.233 883.137 157.233Z" fill="#DCECEB"/>
<path d="M880.059 176.333C879.792 176.333 879.543 176.215 879.372 176.013L853.02 144.695C852.526 144.109 852.941 143.217 853.707 143.217C853.973 143.217 854.223 143.335 854.393 143.536L880.745 174.854C881.24 175.436 880.824 176.333 880.059 176.333Z" fill="#B2E5E0"/>
<path d="M876.307 168.714H872.555C872.012 168.714 871.208 168.276 870.753 167.734L869.388 166.111C868.934 165.568 869.004 165.131 869.546 165.131H873.298C873.84 165.131 874.645 165.568 875.1 166.111L876.464 167.734C876.919 168.272 876.849 168.714 876.307 168.714Z" fill="#B2E5E0"/>
<path d="M876.565 167.843H872.812C872.27 167.843 871.465 167.405 871.011 166.863L869.646 165.24C869.191 164.697 869.261 164.26 869.804 164.26H873.556C874.098 164.26 874.903 164.697 875.358 165.24L876.722 166.863C877.177 167.405 877.107 167.843 876.565 167.843Z" fill="#DCECEB"/>
<path d="M920.908 216.073C920.908 216.073 918.735 222.81 910.986 228.724C907.238 231.59 902.187 234.263 895.443 235.89C874.767 240.89 858.211 239.083 857.013 239.28C855.946 239.455 866.257 255.76 872.06 265.546C872.782 266.762 873.434 267.873 873.985 268.844C874.055 268.962 874.116 269.08 874.181 269.194C878.909 277.694 876.381 279.829 876.381 279.829C871.588 280.428 864.998 285.822 864.998 285.822C855.014 288.421 849.023 272.838 843.43 266.246C837.837 259.653 823.458 240.076 829.851 229.49C836.24 218.903 893.06 205.315 893.06 205.315L898.723 207.503L909.407 211.628L920.908 216.073Z" fill="#376F92"/>
<path d="M873.989 268.852C874.059 268.97 874.12 269.088 874.186 269.202C874.107 269.105 874.041 268.987 873.989 268.852Z" fill="#1B5175"/>
<path d="M914.917 223.247C914.887 223.321 913.391 225.439 910.986 228.728C907.238 231.594 902.187 234.267 895.444 235.894C874.768 240.894 858.211 239.088 857.013 239.284C855.946 239.459 866.258 255.764 872.061 265.55C868.58 261.359 863.078 260.808 858.963 252.426C853.969 242.255 842.188 252.811 840.037 244.42C837.885 236.03 846.185 236.629 858.364 231.235C870.548 225.841 872.542 228.037 883.588 225.837C894.639 223.636 892.903 210.079 892.903 210.079L898.719 207.511L906.814 206.466C906.814 206.466 907.964 208.749 909.403 211.637C911.817 216.475 915.022 222.993 914.917 223.247Z" fill="#1B5175"/>
<path d="M879.246 283.9C879.246 283.9 884.996 288.704 885.127 292.352C885.259 296.001 873.023 308.363 873.023 308.363H857.502C857.502 308.363 855.841 305.817 860.135 303.989C864.429 302.164 864.858 302.055 866.472 300.336C868.081 298.617 869.48 293.997 872.056 289.163C874.632 284.329 879.246 283.9 879.246 283.9Z" fill="#0C1B3C"/>
<path d="M884.94 95.6683C884.94 95.6683 881.305 93.4329 880.094 90.9174C878.883 88.402 875.808 82.9031 875.625 81.5995C875.441 80.2958 878.047 81.6913 879.539 84.303C879.539 84.303 878.515 81.5076 876.652 77.8723C874.79 74.2369 871.807 72.0014 872.555 70.2297C873.298 68.458 878.704 75.1687 879.355 76.2886C880.007 77.4085 881.31 76.1967 882.989 77.0323C884.664 77.8722 884.664 76.9404 886.343 77.9641C888.018 78.9878 889.461 81.0701 891.211 90.235L884.94 95.6683Z" fill="#E9928B"/>
<path d="M842.118 165.457C842.118 165.457 840.15 164.779 836.822 161.577C833.498 158.375 831.526 157.207 830.42 156.713C829.313 156.218 827.525 155.667 825.679 155.79C823.834 155.912 822.845 155.05 823.278 154.433C823.711 153.817 825.434 153.388 825.434 153.388C825.434 153.388 822.049 153.694 822.911 152.154C823.772 150.614 828.635 151.231 828.635 151.231C828.635 151.231 829.558 150.063 830.853 150.063C832.147 150.063 832.02 149.018 834.609 149.324C837.194 149.63 838.549 151.17 841.256 151.787C843.963 152.404 846.202 158.038 846.202 158.038L842.118 165.457Z" fill="#E9928B"/>
<path d="M846.19 157.412C846.19 157.412 841.838 161.257 840.509 165.321L840.041 166.52L842.569 170.051L848.429 158.865L846.19 157.412Z" fill="#93405E"/>
<path d="M884.476 99.1459L882.381 95.8517C882.381 95.8517 886.474 91.0571 891.766 89.6572L893.069 91.9539L884.476 99.1459Z" fill="#93405E"/>
<path d="M947.208 141.682L931.286 150.133L928.92 151.389C928.92 151.389 928.076 150.965 926.694 150.243C922.181 147.872 911.93 142.29 906.74 137.806C904.326 135.723 900.324 130.727 896.165 125.15C888.631 115.049 880.58 103.049 880.58 103.049C886.37 94.0591 893.065 91.0625 893.065 91.0625C893.065 91.0625 911.1 116.436 913.894 118.833C915.53 120.237 926.637 127.81 935.585 133.86C941.943 138.156 947.208 141.682 947.208 141.682Z" fill="#67A4C3"/>
<path d="M947.208 141.681L931.286 150.133C929.873 150.164 928.312 150.203 926.698 150.242C922.185 147.871 911.935 142.289 906.744 137.805C904.33 135.723 900.328 130.727 896.169 125.149C899.476 126.873 902.738 128.387 904.636 130.023C908.764 133.597 907.566 129.222 925.942 131.751C929.571 132.249 932.781 132.989 935.593 133.851C941.943 138.155 947.208 141.681 947.208 141.681Z" fill="#4F91B3"/>
<path d="M934.5 139.134C934.5 139.134 920.72 147.591 920.69 142.267C920.681 140.482 920.357 138.938 919.933 137.682C919.094 135.189 917.856 133.806 917.856 133.806C917.856 133.806 917.852 133.811 917.847 133.819C912.927 139.064 910.732 137.402 910.133 136.405C909.534 135.407 905.471 127.017 906.07 124.217C906.67 121.421 906.538 119.755 905.672 118.022C904.811 116.294 906.07 112.099 906.07 112.099L917.79 109.632C917.79 109.632 928.64 120.687 929.572 124.414C930.503 128.145 934.5 139.134 934.5 139.134Z" fill="#E9928B"/>
<path d="M950.077 175.362C946.483 186.15 926.93 222.175 916.697 223.203C912.525 223.623 907.142 220.898 902.235 217.52C895.107 212.616 888.972 206.343 888.972 206.343C897.959 199.969 896.76 179.872 896.76 179.872C896.76 179.872 896.76 179.877 896.756 179.881C896.559 180.043 883.912 190.551 875.433 191.539C866.883 192.537 839.245 173.358 839.245 173.358C839.245 173.358 845.437 157.776 848.433 158.375C851.429 158.975 871.199 171.762 874.584 171.958C877.969 172.16 897.158 154.976 901.934 150.181C906.714 145.387 925.514 137.994 938.694 137.797C938.694 137.797 947.283 139.197 950.278 145.588C953.27 151.988 953.672 164.574 950.077 175.362Z" fill="#67A4C3"/>
<path d="M911.79 100.239C905.532 100.992 899.589 105.629 901.509 110.279C903.429 114.925 907.177 115.485 909.578 115.515C911.978 115.546 912.774 116.972 913.614 118.271C914.454 119.571 914.825 118.766 915.879 116.662C916.933 114.553 919.347 116.062 919.408 118.901C919.47 121.741 918.975 128.622 924.053 128.744C929.13 128.867 930.123 126.763 930.311 126.763C930.499 126.763 934.644 118.276 934.338 110.839C934.338 110.839 939.603 108.114 938.611 103.774C937.618 99.4386 931.92 98.568 928.513 102.068C928.513 102.068 925.662 102.221 922.999 100.427C920.335 98.6293 916.741 97.7631 915.07 98.8174C913.4 99.8673 913.338 100.051 911.79 100.239Z" fill="#0C1B3C"/>
<path d="M916.256 243.094H910.907V303.884H916.256V243.094Z" fill="#F0D1AA"/>
<path d="M916.255 303.883H913.579V243.093L916.255 242.927V303.883Z" fill="#EDBF84"/>
<path d="M934.749 308.38H892.409C892.409 307.138 892.912 306.018 893.725 305.204C894.538 304.391 895.662 303.888 896.904 303.888H930.254C932.738 303.883 934.749 305.896 934.749 308.38Z" fill="#EDBF84"/>
<path d="M921.241 308.38H892.413C892.413 307.138 892.916 306.018 893.729 305.204C894.543 304.391 895.667 303.888 896.909 303.888H913.583L921.241 308.38Z" fill="#F0D1AA"/>
<path d="M966.122 179.311C965.741 179.486 965.37 179.675 965.007 179.876C964.889 179.941 964.771 180.007 964.657 180.073C964.539 180.138 964.425 180.204 964.311 180.274C964.198 180.339 964.084 180.409 963.97 180.484C963.865 180.549 963.76 180.615 963.66 180.681C963.537 180.759 963.419 180.838 963.306 180.921C963.196 180.996 963.087 181.07 962.978 181.149C962.868 181.228 962.759 181.306 962.654 181.385C962.295 181.652 961.941 181.932 961.596 182.221C961.469 182.326 961.346 182.431 961.224 182.54C960.787 182.925 960.363 183.327 959.956 183.747L959.943 183.76C959.776 183.931 959.61 184.106 959.444 184.285C959.422 184.312 959.396 184.342 959.37 184.369C959.208 184.544 959.051 184.723 958.893 184.907C958.718 185.108 958.552 185.309 958.386 185.515C958.377 185.528 958.364 185.541 958.355 185.554C958.198 185.747 958.045 185.943 957.896 186.14C957.734 186.346 957.577 186.556 957.424 186.77C957.415 186.783 957.406 186.792 957.398 186.805C957.244 187.015 957.096 187.225 956.951 187.44C956.794 187.663 956.645 187.886 956.497 188.113C956.497 188.113 956.497 188.118 956.492 188.118C956.361 188.319 956.234 188.52 956.108 188.726C956.073 188.783 956.038 188.839 956.003 188.896C955.972 188.944 955.937 188.997 955.906 189.049C955.67 189.434 955.443 189.824 955.22 190.222C954.949 190.703 954.682 191.197 954.433 191.696C954.301 191.945 954.175 192.199 954.052 192.453C953.925 192.707 953.803 192.96 953.685 193.218C953.444 193.735 953.208 194.255 952.981 194.785C952.867 195.047 952.753 195.314 952.644 195.581C952.53 195.848 952.421 196.119 952.316 196.386C952.22 196.618 952.132 196.849 952.04 197.086C951.922 197.396 951.804 197.707 951.686 198.022C951.581 198.297 951.485 198.569 951.385 198.849C951.371 198.879 951.363 198.914 951.35 198.945C951.262 199.19 951.175 199.435 951.091 199.68C950.895 200.248 950.698 200.822 950.51 201.399C950.422 201.666 950.335 201.937 950.252 202.204C950.164 202.488 950.077 202.768 949.985 203.053C949.819 203.591 949.657 204.124 949.5 204.663C949.491 204.693 949.482 204.728 949.473 204.759C949.386 205.043 949.307 205.332 949.224 205.616C949.22 205.621 949.22 205.625 949.22 205.629C949.141 205.909 949.058 206.194 948.979 206.474C948.874 206.837 948.778 207.2 948.678 207.563C948.621 207.769 948.564 207.979 948.511 208.184C948.481 208.298 948.45 208.416 948.415 208.53C948.214 209.269 948.022 210.008 947.829 210.743C947.641 211.461 947.457 212.174 947.274 212.878C947.195 213.18 947.116 213.477 947.042 213.779C946.801 214.72 946.561 215.652 946.325 216.566C946.251 216.833 946.185 217.104 946.115 217.371C945.988 217.856 945.857 218.338 945.73 218.81C945.651 219.103 945.573 219.401 945.49 219.689C945.201 220.735 944.912 221.75 944.611 222.734C944.545 222.957 944.475 223.18 944.409 223.399C944.361 223.557 944.309 223.71 944.261 223.867C944.221 223.998 944.178 224.134 944.134 224.261C943.994 224.69 943.854 225.114 943.705 225.525C943.552 225.971 943.395 226.405 943.233 226.829C943.224 226.851 943.216 226.873 943.211 226.894C943.137 227.087 943.062 227.271 942.988 227.459C942.923 227.621 942.857 227.782 942.791 227.94C942.774 227.979 942.756 228.027 942.739 228.067C942.665 228.251 942.581 228.43 942.503 228.614C942.498 228.627 942.49 228.644 942.481 228.657C942.393 228.85 942.306 229.042 942.218 229.231C942.131 229.419 942.044 229.602 941.952 229.782C941.886 229.917 941.82 230.049 941.751 230.18C941.72 230.241 941.689 230.302 941.654 230.359C941.567 230.517 941.484 230.67 941.396 230.823C941.357 230.897 941.313 230.967 941.274 231.037C941.221 231.129 941.165 231.221 941.108 231.313C933.599 243.536 912.25 243.094 912.25 243.094H880.89C873.53 243.094 873.381 235.582 881.773 234.992C890.165 234.401 906.508 224.681 913.868 203.328C917.436 192.978 921.59 186.814 924.927 183.209C927.761 180.143 931.775 178.437 935.947 178.437H965.925C966.424 178.437 966.568 179.106 966.122 179.311Z" fill="#F4C8AF"/>
<path d="M965.007 179.875C964.889 179.941 964.771 180.006 964.657 180.072C964.539 180.138 964.425 180.203 964.312 180.273C964.198 180.339 964.084 180.409 963.97 180.483C963.865 180.549 963.765 180.614 963.66 180.68C963.537 180.759 963.419 180.837 963.306 180.921C963.192 180.995 963.083 181.069 962.978 181.148C962.868 181.227 962.759 181.306 962.654 181.384C962.296 181.651 961.941 181.931 961.596 182.22C961.469 182.325 961.347 182.43 961.224 182.539C960.787 182.924 960.363 183.327 959.956 183.747L959.943 183.76C959.777 183.93 959.61 184.105 959.444 184.285C959.422 184.311 959.396 184.342 959.37 184.368C959.208 184.543 959.051 184.722 958.893 184.906C958.718 185.107 958.552 185.308 958.386 185.514C958.377 185.527 958.364 185.54 958.355 185.553C958.202 185.746 958.045 185.943 957.896 186.14C957.739 186.35 957.577 186.559 957.424 186.769C957.415 186.783 957.406 186.791 957.398 186.804C957.249 187.014 957.096 187.224 956.952 187.439C956.799 187.662 956.65 187.885 956.497 188.112C956.497 188.112 956.497 188.117 956.492 188.117C956.366 188.318 956.234 188.519 956.108 188.725C956.073 188.782 956.038 188.839 956.003 188.896C955.972 188.944 955.941 188.996 955.911 189.049H955.906C955.67 189.434 955.443 189.823 955.22 190.221C954.949 190.702 954.682 191.197 954.433 191.695C954.301 191.945 954.175 192.194 954.052 192.452C953.93 192.706 953.803 192.96 953.685 193.218C953.444 193.734 953.208 194.254 952.981 194.784C952.867 195.046 952.753 195.313 952.644 195.58C952.53 195.847 952.421 196.118 952.316 196.385C952.22 196.617 952.132 196.849 952.041 197.085C951.923 197.395 951.804 197.706 951.686 198.021C951.586 198.297 951.485 198.568 951.385 198.848C951.371 198.878 951.363 198.914 951.35 198.944C951.262 199.189 951.175 199.434 951.092 199.679C950.895 200.248 950.698 200.821 950.51 201.398C950.423 201.665 950.339 201.936 950.252 202.203C950.165 202.488 950.077 202.768 949.985 203.052C949.819 203.59 949.657 204.128 949.5 204.662C949.491 204.692 949.482 204.727 949.474 204.758C949.39 205.042 949.307 205.331 949.224 205.615C949.22 205.62 949.22 205.624 949.22 205.629C949.141 205.909 949.062 206.189 948.979 206.473C948.874 206.836 948.778 207.199 948.678 207.562C948.621 207.772 948.564 207.978 948.512 208.183C948.481 208.297 948.45 208.415 948.415 208.529C948.218 209.268 948.022 210.008 947.829 210.743C947.641 211.46 947.458 212.173 947.274 212.877C947.195 213.179 947.121 213.481 947.042 213.779C946.802 214.719 946.561 215.651 946.325 216.565C946.255 216.836 946.185 217.103 946.115 217.37C945.988 217.856 945.857 218.337 945.73 218.809C945.651 219.102 945.573 219.4 945.49 219.689C945.201 220.734 944.912 221.749 944.611 222.733C944.545 222.957 944.475 223.18 944.41 223.398C944.361 223.556 944.309 223.709 944.261 223.866C944.221 223.998 944.178 224.133 944.134 224.26C943.994 224.689 943.854 225.113 943.705 225.524C943.552 225.971 943.395 226.404 943.233 226.828C943.224 226.85 943.216 226.872 943.211 226.894C943.137 227.086 943.063 227.27 942.988 227.458C942.923 227.62 942.857 227.782 942.791 227.939C942.774 227.979 942.756 228.027 942.739 228.066C942.665 228.25 942.582 228.429 942.503 228.613C942.498 228.626 942.49 228.644 942.481 228.657C942.393 228.849 942.306 229.042 942.219 229.23C942.131 229.418 942.044 229.602 941.952 229.781C941.886 229.917 941.821 230.048 941.751 230.179C941.72 230.24 941.689 230.302 941.654 230.358C941.567 230.516 941.484 230.669 941.396 230.822C941.3 230.988 941.204 231.15 941.108 231.312C933.599 243.535 912.25 243.093 912.25 243.093H882.875C880.781 241.457 881.8 238.959 887.371 238.565C895.763 237.975 913.894 226.124 921.258 204.767C924.827 194.416 928.981 188.252 932.318 184.648C935.152 181.581 939.162 179.875 943.338 179.875H965.007V179.875Z" fill="#F7DFD3"/>
<path d="M955.902 189.054C955.666 189.439 955.438 189.828 955.215 190.226C954.944 190.707 954.677 191.202 954.428 191.7C954.297 191.95 954.17 192.199 954.047 192.457C953.925 192.711 953.798 192.965 953.68 193.223C953.44 193.739 953.203 194.26 952.976 194.789C952.862 195.051 952.749 195.318 952.639 195.585C952.526 195.852 952.416 196.123 952.311 196.39C952.215 196.622 952.128 196.854 952.036 197.09C951.918 197.401 951.8 197.711 951.682 198.026C951.581 198.302 951.48 198.573 951.38 198.853C951.367 198.884 951.358 198.919 951.345 198.949C951.257 199.194 951.17 199.439 951.087 199.684C950.89 200.253 950.693 200.826 950.505 201.403C950.418 201.67 950.335 201.941 950.247 202.208C950.16 202.493 950.072 202.773 949.981 203.057C949.814 203.595 949.653 204.133 949.495 204.667C949.486 204.697 949.478 204.732 949.469 204.763C949.386 205.047 949.303 205.336 949.22 205.621C949.215 205.625 949.215 205.629 949.215 205.634C949.137 205.914 949.058 206.194 948.975 206.478C948.87 206.841 948.774 207.204 948.673 207.567C948.616 207.777 948.559 207.983 948.507 208.188C948.476 208.302 948.446 208.42 948.411 208.534C948.214 209.273 948.017 210.013 947.825 210.748C947.637 211.465 947.453 212.178 947.269 212.882C947.19 213.184 947.116 213.486 947.037 213.784C946.797 214.724 946.556 215.656 946.32 216.57C946.25 216.842 946.18 217.108 946.11 217.375C945.983 217.861 945.852 218.342 945.725 218.814C945.647 219.108 945.568 219.405 945.485 219.694C945.196 220.739 944.908 221.754 944.606 222.739C944.54 222.962 944.47 223.185 944.405 223.403C944.357 223.561 944.304 223.714 944.256 223.872C944.217 224.003 944.173 224.138 944.129 224.265C943.989 224.694 943.849 225.118 943.701 225.53C943.548 225.976 943.39 226.409 943.228 226.833C943.22 226.855 943.211 226.877 943.207 226.899C943.132 227.091 943.058 227.275 942.984 227.463C942.918 227.625 942.852 227.787 942.787 227.944C942.769 227.984 942.752 228.032 942.734 228.071C942.66 228.255 942.577 228.434 942.498 228.618C942.494 228.631 942.485 228.649 942.476 228.662C942.389 228.854 942.301 229.047 942.214 229.235C942.126 229.423 942.039 229.607 941.947 229.786C941.882 229.922 941.816 230.053 941.746 230.184C941.715 230.245 941.685 230.307 941.65 230.364C941.562 230.521 941.479 230.674 941.392 230.827C941.352 230.902 941.309 230.972 941.269 231.042C941.217 231.134 941.16 231.225 941.103 231.317C933.594 243.54 912.245 243.098 912.245 243.098H901.924C903.009 243.033 923.06 242.07 930.21 212.086C935.046 191.836 948.166 190.633 955.902 189.054Z" fill="#F4C8AF"/>
<path d="M739.791 242.8V222.27C739.791 215.87 734.604 210.682 728.207 210.682H713.561V308.324H732.335H739.791H762.955V265.973C762.955 259.573 757.769 254.384 751.371 254.384C744.977 254.389 739.791 249.2 739.791 242.8Z" fill="#DCECEB"/>
<path d="M736.669 283.529C732.199 274.998 726.812 268.913 718.048 262.027C709.289 255.142 697.809 255.111 693.126 252.893C688.438 250.671 688.319 256.821 689.776 262.596C691.232 268.371 686.811 294.96 713.434 303.411C740.053 311.868 739.97 289.824 736.669 283.529Z" fill="#F2D6C8"/>
<path d="M719.854 289.264C719.657 289.264 719.487 289.119 719.46 288.918C718.184 279.504 722.85 270.203 722.898 270.111C722.998 269.915 723.239 269.836 723.436 269.936C723.632 270.037 723.711 270.278 723.611 270.474C723.562 270.566 719.014 279.652 720.252 288.809C720.283 289.027 720.13 289.229 719.911 289.259C719.889 289.264 719.872 289.264 719.854 289.264Z" fill="#F5B89B"/>
<path d="M719.924 290.318C719.863 290.318 719.798 290.305 719.741 290.274C711.808 286.105 698.02 287.597 697.88 287.614C697.661 287.636 697.464 287.483 697.438 287.26C697.412 287.041 697.569 286.844 697.792 286.818C698.369 286.753 711.965 285.283 720.113 289.565C720.309 289.666 720.384 289.911 720.279 290.104C720.204 290.239 720.069 290.318 719.924 290.318Z" fill="#F5B89B"/>
<path d="M722.413 297.974C722.233 297.974 722.067 297.852 722.023 297.668C716.308 274.049 693.651 257.36 693.423 257.194C693.244 257.062 693.205 256.813 693.336 256.634C693.467 256.454 693.716 256.415 693.896 256.546C694.127 256.713 717.016 273.577 722.802 297.48C722.854 297.694 722.723 297.909 722.509 297.961C722.478 297.97 722.443 297.974 722.413 297.974Z" fill="#F5B89B"/>
<path d="M711.712 275.82C711.624 275.82 711.537 275.79 711.463 275.733C706.289 271.59 693.786 272.671 693.664 272.684C693.441 272.71 693.248 272.539 693.231 272.321C693.209 272.102 693.371 271.905 693.594 271.887C694.119 271.839 706.538 270.768 711.965 275.107C712.136 275.247 712.167 275.497 712.027 275.667C711.948 275.768 711.83 275.82 711.712 275.82Z" fill="#F5B89B"/>
<path d="M707.562 270.557C707.405 270.557 707.26 270.465 707.195 270.312C705.572 266.454 706.429 259.931 706.464 259.656C706.495 259.437 706.687 259.284 706.915 259.314C707.133 259.345 707.286 259.546 707.256 259.765C707.247 259.831 706.394 266.349 707.929 270.002C708.017 270.203 707.921 270.439 707.715 270.527C707.667 270.544 707.614 270.557 707.562 270.557Z" fill="#F5B89B"/>
<path d="M667.054 308.207C666.293 300.227 673.517 288.215 696.708 296.028C696.708 296.028 702.568 277.715 718.678 278.323C734.789 278.936 739.914 294.007 739.914 294.007C739.914 294.007 761.557 291.391 764.648 309.703C764.648 309.703 668.151 319.734 667.054 308.207Z" fill="#ADCCC7"/>
<path d="M715.154 309.58L714.366 309.453C716.457 296.482 708.419 287.173 708.336 287.081L708.935 286.552C709.018 286.652 717.301 296.242 715.154 309.58Z" fill="#6EAB9C"/>
<path d="M715.42 301.635L714.808 301.119C714.882 301.032 722.229 292.243 723.48 286.727L724.258 286.902C722.964 292.61 715.726 301.272 715.42 301.635Z" fill="#6EAB9C"/>
<path d="M715.079 306.25C709.342 305.94 704.256 300.021 704.046 299.767L704.654 299.251C704.702 299.312 709.731 305.161 715.123 305.454L715.079 306.25Z" fill="#6EAB9C"/>
<path d="M733.183 310.005L732.663 309.401C733.079 309.043 742.883 300.617 747.982 300.473L748.004 301.273C743.185 301.404 733.28 309.917 733.183 310.005Z" fill="#6EAB9C"/>
<path d="M752.36 308.355C752.281 308.351 744.466 307.874 738.143 306.242L738.344 305.468C744.593 307.082 752.333 307.55 752.408 307.559L752.36 308.355Z" fill="#6EAB9C"/>
<path d="M694.119 309.524C688.954 305.228 678.065 301.798 677.956 301.763L678.192 301.002C678.647 301.142 689.343 304.515 694.63 308.911L694.119 309.524Z" fill="#6EAB9C"/>
<path d="M690.1 306.203L689.299 306.181C689.426 301.824 687.528 298.398 687.511 298.363L688.206 297.97C688.294 298.118 690.235 301.614 690.1 306.203Z" fill="#6EAB9C"/>
<path d="M876.565 308.364H868.978C868.978 308.364 875.096 305.297 877.098 299.011C878.542 294.479 880.903 290.13 883.837 291.207C886.772 292.283 884.353 297.274 882.797 300.087C880.571 304.099 876.565 308.364 876.565 308.364Z" fill="#408C91"/>
<path d="M729.23 210.683H728.032V162.154C728.032 158.029 731.386 154.674 735.51 154.674H740.456V155.872H735.51C732.047 155.872 729.23 158.69 729.23 162.154V210.683Z" fill="#3FB8A9"/>
<path d="M734.067 211.185H732.869V162.657C732.869 160.733 734.434 159.171 736.354 159.171H745.052V160.37H736.354C735.09 160.37 734.067 161.398 734.067 162.657V211.185Z" fill="#3FB8A9"/>
<path d="M901.934 216.071C902.113 216.557 902.209 217.042 902.235 217.519C895.107 212.615 888.972 206.342 888.972 206.342C897.958 199.968 896.76 179.871 896.76 179.871C896.76 179.871 906.901 171.012 908.301 173.156C909.7 175.299 904.706 187.583 908.301 192.627C911.891 197.671 898.969 207.904 901.934 216.071Z" fill="#4F91B3"/>
<path d="M919.933 137.682C919.094 135.188 917.856 133.806 917.856 133.806C917.856 133.806 919.675 131.553 919.938 128.749C919.938 128.749 922.36 134.344 919.933 137.682Z" fill="#DE6667"/>
<path d="M819.211 74.558C823.435 70.8966 823.891 64.5035 820.231 60.2786C816.571 56.0537 810.18 55.5968 805.957 59.2582C801.733 62.9196 801.277 69.3127 804.937 73.5376C808.597 77.7625 814.988 78.2194 819.211 74.558Z" fill="white"/>
<path d="M877.611 57.0352H832.668V59.9399H877.611V57.0352Z" fill="white"/>
<path d="M877.61 65.6182H832.667V68.5229H877.61V65.6182Z" fill="white"/>
<path d="M857.537 74.1221H832.667V77.0269H857.537V74.1221Z" fill="white"/>
<path d="M733.905 238.482C733.905 239.532 733.052 240.385 732.003 240.385C730.953 240.385 730.101 239.532 730.101 238.482C730.101 237.432 730.953 236.579 732.003 236.579C733.057 236.579 733.905 237.432 733.905 238.482Z" fill="#B6D5D0"/>
<path d="M732.007 231.435C733.058 231.435 733.91 230.583 733.91 229.532C733.91 228.481 733.058 227.629 732.007 227.629C730.957 227.629 730.105 228.481 730.105 229.532C730.105 230.583 730.957 231.435 732.007 231.435Z" fill="#B6D5D0"/>
<path d="M732.007 222.485C733.058 222.485 733.91 221.633 733.91 220.582C733.91 219.531 733.058 218.679 732.007 218.679C730.957 218.679 730.105 219.531 730.105 220.582C730.105 221.633 730.957 222.485 732.007 222.485Z" fill="#B6D5D0"/>
<path d="M919.938 141.335C919.938 141.335 920.213 139.681 921.687 138.662C923.16 137.642 932.611 133.491 935.173 138.01L919.938 141.335Z" fill="#93405E"/>
</svg>
